<?xml version="1.0" encoding="utf-8"?>
<!-- Generator: Adobe Illustrator 13.0.0, SVG Export Plug-In . SVG Version: 6.00 Build 14948)  -->
<!DOCTYPE svg PUBLIC "-//W3C//DTD SVG 1.1//EN" "http://www.w3.org/Graphics/SVG/1.1/DTD/svg11.dtd">
<svg version="1.1" id="Layer_1" xmlns="http://www.w3.org/2000/svg" xmlns:xlink="http://www.w3.org/1999/xlink" x="0px" y="0px"
	 width="512px" height="512px" viewBox="0 0 512 512" enable-background="new 0 0 512 512" xml:space="preserve">
<g>
	<path fill="#E16B5A" d="M181.666,190.942l88.5,88.5l89.275-89.277l141.257,141.257C508.04,307.576,512,282.247,512,255.992
		c0-141.385-114.615-256-256-256c-141.385,0-256,114.615-256,256c0,141.385,114.615,256,256,256c2.071,0,4.134-0.029,6.194-0.078
		L61.442,311.164L181.666,190.942z"/>
	<path fill="#CC6152" d="M500.698,331.422L359.441,190.165l-89.275,89.277l-88.5-88.5L61.442,311.164l200.751,200.75
		C374.61,509.244,469.081,434.108,500.698,331.422z"/>
	<g>
		<path fill="#FFD464" d="M82.998,301.514c0-88.564,71.779-160.352,160.347-160.352c88.562,0,160.384,71.783,160.384,160.352H82.998
			z"/>
		<path fill="#F2CA5F" d="M403.728,301.514c0-6.256-0.398-12.419-1.092-18.48l0,0c-0.008-0.057-0.018-0.106-0.021-0.163
			c-0.27-2.263-0.555-4.522-0.91-6.749c-0.223-1.451-0.5-2.879-0.768-4.316c-13.948-74.36-79.18-130.643-157.588-130.643
			c-3.104,0-6.182,0.106-9.24,0.291c73.34,4.159,133.485,57.6,147.853,127.729H86.264c-0.933,4.537-1.635,9.175-2.171,13.86h300.059
			c0.688,6.066,1.096,12.221,1.096,18.48h18.48V301.514z"/>
		<path fill="#FFD464" d="M442.675,319.994H77.325c-10.207,0-18.48-8.275-18.48-18.48c0-10.206,8.274-18.48,18.48-18.48h365.351
			c10.205,0,18.48,8.274,18.48,18.48C461.156,311.719,452.88,319.994,442.675,319.994z"/>
		<path fill="#F2CA5F" d="M442.675,283.033h-18.48c10.205,0,18.48,8.274,18.48,18.48c0,10.205-8.275,18.48-18.48,18.48h18.48
			c10.205,0,18.48-8.275,18.48-18.48C461.156,291.308,452.88,283.033,442.675,283.033z"/>
		<g>
			<path fill="#E6C05A" d="M243.363,165.728c-16.942,0-30.678,41.461-30.678,58.403c0,16.942,13.736,30.682,30.678,30.682
				c16.941,0,30.678-13.74,30.678-30.682C274.041,207.188,260.304,165.728,243.363,165.728z"/>
			<path fill="#E6C05A" d="M191.594,171.637c-14.701-8.427-47.236,20.698-55.663,35.395c-8.422,14.706-3.345,33.445,11.356,41.872
				c14.697,8.428,33.44,3.345,41.872-11.351C197.586,222.855,206.291,180.055,191.594,171.637z"/>
			<path fill="#E6C05A" d="M347.908,207.031c-8.424-14.697-40.958-43.822-55.66-35.395c-14.701,8.418-5.992,51.219,2.431,65.92
				c8.427,14.696,27.177,19.779,41.872,11.352C351.248,240.481,356.347,221.728,347.908,207.031z"/>
		</g>
	</g>
</g>
</svg>
