<?xml version="1.0" encoding="utf-8"?>
<!-- Generator: Adobe Illustrator 13.0.0, SVG Export Plug-In . SVG Version: 6.00 Build 14948)  -->
<!DOCTYPE svg PUBLIC "-//W3C//DTD SVG 1.1//EN" "http://www.w3.org/Graphics/SVG/1.1/DTD/svg11.dtd">
<svg version="1.1" id="Layer_1" xmlns="http://www.w3.org/2000/svg" xmlns:xlink="http://www.w3.org/1999/xlink" x="0px" y="0px"
	 width="7px" height="7px" viewBox="-307.5 -200.5 7 7" enable-background="new -307.5 -200.5 7 7" xml:space="preserve">
<g>
	<g>
		<path fill="#F99B1C" d="M15.173,19.77c0,1.021-0.828,1.849-1.849,1.849s-1.848-0.827-1.848-1.849s0.828-1.849,1.848-1.849
			C14.345,17.921,15.173,18.748,15.173,19.77L15.173,19.77z M22.676,17.921c-1.021,0-1.849,0.827-1.849,1.849
			c0,1.021,0.827,1.849,1.849,1.849s1.85-0.827,1.85-1.849C24.523,18.748,23.695,17.921,22.676,17.921L22.676,17.921z M36,18.739
			v3.513c0,1.764-1.43,3.191-3.193,3.191H30.49C28.193,31.82,22.33,35.671,18,35.671S7.807,31.82,5.511,25.443H3.193
			C1.43,25.443,0,24.016,0,22.252v-3.513c0-1.214,0.677-2.269,1.674-2.81c0.033-4.987,1.487-8.882,4.327-11.575
			C8.817,1.683,12.854,0.329,18,0.329c5.146,0,9.184,1.354,11.999,4.025c2.84,2.693,4.293,6.588,4.327,11.575
			C35.323,16.47,36,17.525,36,18.739L36,18.739z M29.241,19.779c0-0.82-0.042-1.592-0.104-2.34c-1.416-1.297-3.99-2.281-7.236-2.646
			c0.427,0.479,0.795,1.11,1.019,1.94c-1.989-1.567-5.894-1.194-8.846-4.7c-0.169-0.196-0.316-0.383-0.442-0.554
			c-0.001-0.002-0.003-0.003-0.004-0.005l0,0c-0.525-0.71-0.705-1.133-0.715-0.665c-0.087,4.03-2.943,7.172-6.115,7.615
			c-0.02,0.443-0.037,0.891-0.037,1.358c0,1.702,0.278,3.256,0.751,4.653c1.782,2.149,4.724,2.758,7.329,2.918
			c0.483-0.77,1.568-1.307,2.832-1.307c1.712,0,3.102,0.985,3.102,2.201s-1.39,2.201-3.102,2.201c-1.318,0-2.44-0.584-2.89-1.406
			c-1.82-0.105-3.821-0.416-5.604-1.259c2.508,3.696,6.396,5.651,8.824,5.651C21.814,33.436,29.241,28.616,29.241,19.779
			L29.241,19.779z M32.402,15.545C32.2,6.842,27.232,2.245,18,2.245c-9.232,0-14.2,4.597-14.403,13.3h1.229
			c0.449-2.934,1.399-5.346,2.84-7.201C9.963,5.389,13.44,3.89,18,3.89c4.561,0,8.037,1.499,10.334,4.455
			c1.441,1.855,2.393,4.267,2.841,7.201L32.402,15.545L32.402,15.545z"/>
	</g>
</g>
<circle fill="#BAD693" cx="-304" cy="-197" r="3.5"/>
</svg>
