<?xml version="1.0" encoding="utf-8"?>
<!-- Generator: Adobe Illustrator 13.0.0, SVG Export Plug-In . SVG Version: 6.00 Build 14948)  -->
<!DOCTYPE svg PUBLIC "-//W3C//DTD SVG 1.1//EN" "http://www.w3.org/Graphics/SVG/1.1/DTD/svg11.dtd">
<svg version="1.1" id="Layer_1" xmlns="http://www.w3.org/2000/svg" xmlns:xlink="http://www.w3.org/1999/xlink" x="0px" y="0px"
	 width="36px" height="36px" viewBox="0 0 36 36" enable-background="new 0 0 36 36" xml:space="preserve">
<g>
	<path fill="#FFFFFF" d="M18.001,0C8.06,0,0,8.058,0,17.997C0,27.94,8.06,36,18.001,36c9.942,0,18-8.061,18-18.003
		C36,8.058,27.943,0,18.001,0z M18.001,34.156c-8.926,0-16.158-7.235-16.158-16.161c0-8.922,7.232-16.154,16.158-16.154
		c8.923,0,16.157,7.232,16.157,16.154C34.156,26.921,26.923,34.156,18.001,34.156z"/>
	<path fill="#FFFFFF" d="M18,4.042C10.291,4.042,4.042,10.292,4.042,18c0,7.709,6.249,13.958,13.958,13.958
		c7.708,0,13.958-6.249,13.958-13.958C31.958,10.292,25.708,4.042,18,4.042z M20.844,5.896L20.056,22.09h-4.075L15.196,5.896H20.844
		z M18.021,30.383h-0.072c-1.86,0-3.146-1.396-3.146-3.254c0-1.928,1.325-3.252,3.219-3.252c1.892,0,3.145,1.324,3.179,3.252
		C21.2,28.986,19.951,30.383,18.021,30.383z"/>
</g>
</svg>
