<?xml version="1.0" encoding="utf-8"?>
<!-- Generator: Adobe Illustrator 13.0.0, SVG Export Plug-In . SVG Version: 6.00 Build 14948)  -->
<!DOCTYPE svg PUBLIC "-//W3C//DTD SVG 1.1//EN" "http://www.w3.org/Graphics/SVG/1.1/DTD/svg11.dtd">
<svg version="1.1" id="Layer_1" xmlns="http://www.w3.org/2000/svg" xmlns:xlink="http://www.w3.org/1999/xlink" x="0px" y="0px"
	 width="36px" height="36px" viewBox="72 72 36 36" enable-background="new 72 72 36 36" xml:space="preserve">
<g>
	<g>
		<g>
			<rect x="82.53" y="93.655" fill="#FFFFFF" width="11.204" height="1.245"/>
			<rect x="82.53" y="90.894" fill="#FFFFFF" width="11.204" height="1.245"/>
			<rect x="82.53" y="88.132" fill="#FFFFFF" width="11.204" height="1.245"/>
			<rect x="82.53" y="96.575" fill="#FFFFFF" width="11.204" height="1.245"/>
			<path fill="#FFFFFF" d="M90,72c-9.941,0-18,8.059-18,18c0,9.941,8.059,18,18,18c9.941,0,18-8.059,18-18
				C108,80.059,99.941,72,90,72z M96.197,97.435v2.188c0,1.208-0.979,2.187-2.187,2.187H82.254c-1.208,0-2.187-0.979-2.187-2.187
				v-16.13c0-1.208,0.979-2.187,2.187-2.187h11.756c1.208,0,2.187,0.979,2.187,2.188v2.187V97.435z M98.999,94.634v2.186
				c0,0.989-0.656,1.823-1.557,2.095v-1.479V85.679v-2.187c0-1.892-1.539-3.432-3.432-3.432H82.962
				c0.271-0.9,1.105-1.557,2.094-1.557h11.756c1.207,0,2.187,0.979,2.186,2.188v2.187h0.001V94.634z"/>
			<rect x="82.53" y="85.371" fill="#FFFFFF" width="11.204" height="1.245"/>
		</g>
	</g>
</g>
</svg>
