<?xml version="1.0" encoding="utf-8"?>
<!-- Generator: Adobe Illustrator 13.0.0, SVG Export Plug-In . SVG Version: 6.00 Build 14948)  -->
<!DOCTYPE svg PUBLIC "-//W3C//DTD SVG 1.1//EN" "http://www.w3.org/Graphics/SVG/1.1/DTD/svg11.dtd">
<svg version="1.1" id="Layer_1" xmlns="http://www.w3.org/2000/svg" xmlns:xlink="http://www.w3.org/1999/xlink" x="0px" y="0px"
	 width="20px" height="20px" viewBox="0 0 20 20" enable-background="new 0 0 20 20" xml:space="preserve">
<g>
	<path fill="#EF4723" d="M14.037,0.852c0.021,0.166,0.032,0.333,0.032,0.504c0,0.814-0.241,1.572-0.654,2.208
		c2.302,1.227,3.872,3.65,3.872,6.435c0,4.019-3.27,7.287-7.287,7.287c-4.018,0-7.287-3.269-7.287-7.287
		c0-0.729,0.108-1.432,0.308-2.096l-1.965-2.37C0.381,6.879,0,8.396,0,10c0,5.514,4.486,10,10,10s10-4.486,10-10
		C20,5.922,17.546,2.407,14.037,0.852L14.037,0.852z M14.037,0.852"/>
	<path fill="#EF4723" d="M7.688,10c0,1.277,1.035,2.312,2.312,2.312c1.276,0,2.312-1.035,2.312-2.312
		c0-1.277-1.036-2.312-2.312-2.312c-0.048,0-0.096,0.002-0.143,0.005l-5.22-6.339L2.542,3.078l5.22,6.338
		C7.713,9.603,7.688,9.798,7.688,10L7.688,10z M7.688,10"/>
	<path fill="#EF4723" d="M11.356,1.356c0,0.75-0.607,1.357-1.356,1.357c-0.75,0-1.356-0.607-1.356-1.357C8.644,0.607,9.25,0,10,0
		C10.749,0,11.356,0.607,11.356,1.356L11.356,1.356z M11.356,1.356"/>
</g>
</svg>
