<?xml version="1.0" encoding="utf-8"?>
<!-- Generator: Adobe Illustrator 13.0.0, SVG Export Plug-In . SVG Version: 6.00 Build 14948)  -->
<!DOCTYPE svg PUBLIC "-//W3C//DTD SVG 1.1//EN" "http://www.w3.org/Graphics/SVG/1.1/DTD/svg11.dtd">
<svg version="1.1" id="Layer_1" xmlns="http://www.w3.org/2000/svg" xmlns:xlink="http://www.w3.org/1999/xlink" x="0px" y="0px"
	 width="36px" height="36px" viewBox="0 0 36 36" enable-background="new 0 0 36 36" xml:space="preserve">
<g>
	<path fill="#FFFFFF" d="M31.496,7.873V3.375H0v24.75c0,0,0,4.499,4.499,4.499h28.124c0,0,3.378-0.071,3.378-4.499V7.873H31.496z
		 M4.499,30.373c-2.246,0-2.246-2.247-2.246-2.247V5.627h26.996v22.499c0,1.032,0.319,1.752,0.759,2.247H4.499z M4.499,30.373"/>
	<rect x="4.499" y="10.126" fill="#FFFFFF" width="22.499" height="2.247"/>
	<rect x="16.874" y="23.62" fill="#FFFFFF" width="7.877" height="2.254"/>
	<rect x="16.874" y="19.123" fill="#FFFFFF" width="10.123" height="2.252"/>
	<rect x="16.874" y="14.625" fill="#FFFFFF" width="10.123" height="2.252"/>
	<rect x="4.499" y="14.625" fill="#FFFFFF" width="10.123" height="11.25"/>
</g>
</svg>
