<?xml version="1.0" encoding="utf-8"?>
<!-- Generator: Adobe Illustrator 13.0.0, SVG Export Plug-In . SVG Version: 6.00 Build 14948)  -->
<!DOCTYPE svg PUBLIC "-//W3C//DTD SVG 1.1//EN" "http://www.w3.org/Graphics/SVG/1.1/DTD/svg11.dtd">
<svg version="1.1" id="Layer_1" xmlns="http://www.w3.org/2000/svg" xmlns:xlink="http://www.w3.org/1999/xlink" x="0px" y="0px"
	 width="3401.574px" height="3401.574px" viewBox="3727.559 0 3401.574 3401.574"
	 enable-background="new 3727.559 0 3401.574 3401.574" xml:space="preserve">
<circle fill="#7CE8D9" cx="5428.346" cy="1700.787" r="1700.787"/>
<path fill="#64D8C5" d="M6071.623,3275.577c620.369-253.67,1057.512-863.13,1057.512-1574.79c0-0.519-0.021-1.029-0.021-1.548
	l-181.485-181.485l-106.797,188.349L5820.824,686.107l-843.119,528.067l-210.758,117.248l417.377,417.378l-17.479,20.694
	l-223.223-223.221l-176.688,83.438l280.854,280.856l-23.213,27.498l235.188,235.187l-79.565,210.885L6071.623,3275.577z"/>
<path fill="#FED8B2" d="M5595.037,2122.915v-184.841h-333.354v184.841c0,14.749-11.959,26.707-26.708,26.707h-229.713v637.868
	h846.215v-637.868h-229.713C5606.989,2149.623,5595.037,2137.664,5595.037,2122.915z"/>
<path fill="#EABE96" d="M5851.458,2149.623h-229.713c-14.75,0-26.709-11.959-26.709-26.708v-184.841h-170.49v849.417h426.924
	v-637.868H5851.458L5851.458,2149.623z"/>
<circle fill="#FED8B2" cx="4874.242" cy="1550.753" r="133.22"/>
<circle fill="#EABE96" cx="5954.042" cy="1550.753" r="133.22"/>
<path fill="#F4E3C3" d="M5429.158,2105.562h-30.017c-277.681,0-502.782-225.103-502.782-502.782v-459.054
	c0-277.681,225.102-502.781,502.782-502.781h30.017c277.681,0,502.781,225.102,502.781,502.781v459.054
	C5931.939,1880.467,5706.837,2105.562,5429.158,2105.562z"/>
<path fill="#FED8B2" d="M5429.158,640.951h-4.625v1464.609h4.625c277.681,0,502.781-225.102,502.781-502.781v-459.053
	C5931.939,866.053,5706.837,640.951,5429.158,640.951z"/>
<path fill="#57442F" d="M5877.414,810.857c-98.752-140.654-262.061-232.684-446.967-232.684h-5.914v650.797
	c68.729-22.31,135.465-48.918,199.432-80.894c75.419,86.62,162.52,163.953,258.666,226.688v175.998h93.689v-287.459v-139.271
	C5976.319,1007.484,5939.671,899.537,5877.414,810.857z"/>
<path fill="#9A4F03" d="M5397.845,578.188c-301.479,0-545.866,244.396-545.866,545.881v42.214V1550.8h80.136v-225.5
	c-0.013,0-0.033,0-0.045,0c168.976-17.168,335.965-45.489,492.471-96.301V578.188H5397.845z"/>
<circle fill="#59595B" cx="5170.08" cy="1491.65" r="51.781"/>
<circle fill="#272525" cx="5658.21" cy="1491.65" r="51.781"/>
<g>
	<path fill="#FD8469" d="M5414.142,1915.977c-93.297,0-169.175-75.891-169.175-169.175c0-15.817,12.815-28.634,28.634-28.634
		s28.635,12.814,28.635,28.634c0,61.707,50.213,111.906,111.906,111.906c61.699,0,111.905-50.213,111.905-111.906
		c0-15.817,12.815-28.634,28.635-28.634s28.634,12.814,28.634,28.634C5583.332,1840.093,5507.44,1915.977,5414.142,1915.977z"/>
	<path fill="#FD8469" d="M5414.142,1858.715c-61.707,0-111.906-50.213-111.906-111.906c0-15.818-12.814-28.635-28.635-28.635
		c-15.817,0-28.633,12.815-28.633,28.635c0,93.297,75.891,169.176,169.174,169.176c3.508,0,6.943-0.319,10.392-0.524v-57.271
		C5421.105,1858.509,5417.65,1858.715,5414.142,1858.715z"/>
</g>
<path fill="#FC6F58" d="M5583.332,1746.809c0-15.818-12.815-28.635-28.635-28.635c-15.818,0-28.635,12.815-28.635,28.635
	c0,58.205-44.679,106.126-101.521,111.396v57.269C5512.987,1910.044,5583.332,1836.585,5583.332,1746.809z"/>
<path fill="#F4A200" d="M4832.798,1133.86v188.974h591.748V538.386C5097.384,540.458,4832.798,806.22,4832.798,1133.86z"/>
<path fill="#DD8D00" d="M6023.921,1133.86c0-328.923-266.64-595.562-595.562-595.562c-1.282,0-2.531,0.094-3.812,0.094v784.448
	h599.375V1133.86z"/>
<path fill="#CC8006" d="M5428.36,538.299c-66.085,0-129.579,10.93-188.974,30.801v753.741h377.953V569.093
	C5557.925,549.222,5494.431,538.299,5428.36,538.299z"/>
<path fill="#AA6707" d="M5617.333,569.093c-59.396-19.871-122.89-30.8-188.975-30.8c-1.282,0-2.545,0.066-3.812,0.079v784.455
	h192.787V569.093z"/>
<rect x="4766.925" y="1125.271" fill="#DD8D00" width="1322.834" height="206.152"/>
<rect x="5424.566" y="1125.271" fill="#C67A00" width="665.193" height="206.152"/>
<path fill="#31BAFD" d="M5873.587,2149.623H5696.22c0,155.787-126.297,282.064-282.064,282.064
	c-155.769,0-282.064-126.297-282.064-282.064h-177.359c-213.614,0-386.783,173.168-386.783,386.782v631.649
	c252.408,148.354,546.438,233.52,860.398,233.52c302.262,0,586.048-78.946,832.023-217.195v-647.974
	C6260.371,2322.797,6087.196,2149.623,5873.587,2149.623z"/>
<path fill="#2B9ED8" d="M5873.587,2149.623H5696.22c0,152.3-120.729,276.331-271.682,281.806v970.079
	c1.27,0,2.531,0.066,3.813,0.066c302.263,0,586.034-78.946,832.024-217.195v-647.975
	C6260.371,2322.797,6087.196,2149.623,5873.587,2149.623z"/>
<path fill="#324A5E" d="M5050.406,2149.623h-95.688c-32.17,0-63.408,3.999-93.285,11.395v1143.58
	c177.328,62.729,368.102,96.978,566.928,96.978c198.838,0,389.586-34.36,566.926-97.098v-1135.21
	c-38.273-12.676-79.166-19.65-121.686-19.65h-67.288v685.031h-755.907V2149.623L5050.406,2149.623z"/>
<path fill="#2B3B4E" d="M5873.587,2149.623H5806.3v685.025h-381.769v566.879c1.271,0,2.53,0.047,3.813,0.047
	c198.84,0,389.586-34.36,566.926-97.099V2169.268C5957,2156.585,5916.121,2149.623,5873.587,2149.623z"/>
<path fill="#B97850" d="M6562.212,2968.359c68.179-61.023,131.381-127.474,188.975-198.654v-942.935h-188.975V2968.359z"/>
<path fill="#935635" d="M6751.194,1826.771h-93.522v1049.106c32.58-34.082,63.838-69.474,93.522-106.18V1826.771z"/>
<path fill="#804000" d="M6899.134,1899.301h-484.877c-46.373,0-83.977-37.604-83.977-83.977v-229.088
	c0-46.373,37.604-83.978,83.977-83.978h484.877c46.375,0,83.978,37.604,83.978,83.978v229.088
	C6983.119,1861.718,6945.515,1899.301,6899.134,1899.301z"/>
<path fill="#6D3501" d="M6899.134,1502.273h-241.479v397.048h241.479c46.373,0,83.978-37.604,83.978-83.978v-229.088
	C6983.119,1539.857,6945.515,1502.273,6899.134,1502.273z"/>
</svg>
