<?xml version="1.0" encoding="utf-8"?>
<!-- Generator: Adobe Illustrator 13.0.0, SVG Export Plug-In . SVG Version: 6.00 Build 14948)  -->
<!DOCTYPE svg PUBLIC "-//W3C//DTD SVG 1.1//EN" "http://www.w3.org/Graphics/SVG/1.1/DTD/svg11.dtd">
<svg version="1.1" id="Layer_1" xmlns="http://www.w3.org/2000/svg" xmlns:xlink="http://www.w3.org/1999/xlink" x="0px" y="0px"
	 width="3401.515px" height="3329.991px" viewBox="3727.559 0 3401.515 3329.991"
	 enable-background="new 3727.559 0 3401.515 3329.991" xml:space="preserve">
<path fill="#84DBFF" d="M5759.274,1385.685l170.967,170.967l548.89-548.891l649.456,649.456C7105.473,738.034,6353.098,0,5428.346,0
	c-939.318,0-1700.787,761.469-1700.787,1700.787c0,857.937,635.239,1567.5,1461.025,1684.014l-714.212-714.213L5759.274,1385.685z"
	/>
<path fill="#69CAE8" d="M7129.134,1700.787c0-14.567-0.185-29.091-0.548-43.571l-649.456-649.456l-548.89,548.891l-170.967-170.967
	L4474.372,2670.588l714.212,714.213c78.333,11.053,158.379,16.773,239.762,16.773
	C6367.666,3401.574,7129.134,2640.106,7129.134,1700.787z"/>
<g>
	<path fill="#2B3B4E" d="M5824.75,1141.001h-792.808c-10.714,0-24.106-5.357-29.463-13.393c-8.035-8.035-10.714-21.427-8.035-32.141
		l88.388-372.298c5.356-16.071,18.749-29.463,37.497-29.463h616.033c18.749,0,32.141,13.392,37.498,29.463l88.387,372.298
		c2.679,10.714,0,24.105-8.035,32.141C5848.856,1135.644,5835.464,1141.001,5824.75,1141.001z M5080.154,1063.327h696.385
		l-69.638-294.625h-557.108L5080.154,1063.327z"/>
	<path fill="#2B3B4E" d="M6293.471,2710.546h-1730.25c-64.281,0-115.171-50.89-115.171-115.171V1574.902
		c0-64.282,50.89-115.172,115.171-115.172h1730.25c64.282,0,115.172,50.891,115.172,115.172v1020.473
		C6408.642,2656.978,6357.753,2710.546,6293.471,2710.546z"/>
</g>
<path fill="#324A5E" d="M6274.722,1982.02H4581.97c-125.885,0-227.664-101.779-227.664-227.664V1074.04
	c0-53.567,42.854-96.422,96.422-96.422h1957.914c53.568,0,96.423,42.854,96.423,96.422v680.315
	C6505.065,1880.24,6403.286,1982.02,6274.722,1982.02z"/>
<path fill="#F9B54C" d="M6063.128,2217.72h-101.779c-21.428,0-37.498-16.07-37.498-37.498v-120.528
	c0-21.427,16.07-37.497,37.498-37.497h101.779c21.428,0,37.498,16.07,37.498,37.497v120.528
	C6100.626,2201.648,6084.556,2217.72,6063.128,2217.72z"/>
<path fill="#FFD05B" d="M6105.983,2099.869h-187.488c-21.427,0-37.498-16.07-37.498-37.497v-208.916
	c0-21.427,16.071-37.497,37.498-37.497h187.488c21.428,0,37.498,16.07,37.498,37.497v208.916
	C6143.48,2083.799,6127.41,2099.869,6105.983,2099.869z"/>
<path fill="#F9B54C" d="M4895.343,2217.72h-101.779c-21.427,0-37.497-16.07-37.497-37.498v-120.528
	c0-21.427,16.07-37.497,37.497-37.497h101.779c21.428,0,37.498,16.07,37.498,37.497v120.528
	C4932.841,2201.648,4914.092,2217.72,4895.343,2217.72z"/>
<path fill="#FFD05B" d="M4938.199,2099.869h-187.489c-21.427,0-37.497-16.07-37.497-37.497v-208.916
	c0-21.427,16.07-37.497,37.497-37.497h187.489c21.427,0,37.497,16.07,37.497,37.497v208.916
	C4975.696,2083.799,4956.947,2099.869,4938.199,2099.869z"/>
<g>
	<rect x="5939.921" y="974.939" fill="#F9B54C" width="144.635" height="841.02"/>
	<rect x="4772.137" y="974.939" fill="#F9B54C" width="144.634" height="841.02"/>
</g>
</svg>
