<?xml version="1.0" encoding="utf-8"?>
<!-- Generator: Adobe Illustrator 13.0.0, SVG Export Plug-In . SVG Version: 6.00 Build 14948)  -->
<!DOCTYPE svg PUBLIC "-//W3C//DTD SVG 1.1//EN" "http://www.w3.org/Graphics/SVG/1.1/DTD/svg11.dtd">
<svg version="1.1" id="Layer_1" xmlns="http://www.w3.org/2000/svg" xmlns:xlink="http://www.w3.org/1999/xlink" x="0px" y="0px"
	 width="3385.431px" height="3350.831px" viewBox="3727.559 0 3385.431 3350.831"
	 enable-background="new 3727.559 0 3385.431 3350.831" xml:space="preserve">
<path fill="#90DFAA" d="M4959.685,2468.174l882.659,882.657c0.001,0,0.001,0,0.001,0L4731.732,2240.217L6309.708,662.242
	l803.281,803.281C6998.419,637.547,6287.839,0,5428.346,0c-939.317,0-1700.787,761.469-1700.787,1700.787
	c0,793.997,544.083,1460.909,1279.755,1648.263l-464.253-464.252L4959.685,2468.174z"/>
<path fill="#79CC90" d="M7112.989,1465.523l-803.28-803.281L4731.732,2240.217l1110.611,1110.614
	c739.236-184.883,1286.791-853.519,1286.791-1650.044C7129.134,1620.961,7123.628,1542.422,7112.989,1465.523z M4543.062,2884.798
	l464.253,464.252c134.647,34.291,275.709,52.524,421.032,52.524c142.793,0,281.475-17.601,413.997-50.743l-882.659-882.657
	L4543.062,2884.798z"/>
<path fill="#324A5E" d="M6286.486,2897.064H4570.207c-17.513,0-31.658-14.146-31.658-31.658V690.419
	c0-17.514,14.146-31.658,31.658-31.658H6287.16c17.515,0,31.658,14.146,31.658,31.658v2175.66
	C6318.144,2882.919,6304,2897.064,6286.486,2897.064z"/>
<polygon fill="#FFFFFF" points="4713.679,786.74 4713.679,2556.906 5893.791,2556.906 5893.791,2308.355 6143.014,2308.355 
	6143.014,786.74 "/>
<polygon fill="#E6E9EE" points="5893.791,2556.906 6143.014,2308.355 5893.791,2308.355 "/>
<path fill="#FF7058" d="M5568.451,587.361v-49.172c0-77.461-62.643-140.104-140.104-140.104s-140.104,62.644-140.104,140.104v49.172
	h-247.203v286.943h775.289V587.361H5568.451z"/>
<circle fill="#90DFAA" cx="5428.346" cy="538.19" r="70.052"/>
<path fill="#E6E9EE" d="M5715.292,2082.033H4917.1v-798.191h798.19v798.191H5715.292z M4995.91,2003.898h641.246V1362.65H4995.91
	V2003.898z"/>
<polygon fill="#54C0EB" points="5370.417,1922.395 5076.738,1628.715 5215.496,1489.957 5370.417,1644.88 5800.835,1215.137 
	5939.593,1353.895 "/>
</svg>
