<?xml version="1.0" encoding="utf-8"?>
<!-- Generator: Adobe Illustrator 13.0.0, SVG Export Plug-In . SVG Version: 6.00 Build 14948)  -->
<!DOCTYPE svg PUBLIC "-//W3C//DTD SVG 1.1//EN" "http://www.w3.org/Graphics/SVG/1.1/DTD/svg11.dtd">
<svg version="1.1" id="Layer_1" xmlns="http://www.w3.org/2000/svg" xmlns:xlink="http://www.w3.org/1999/xlink" x="0px" y="0px"
	 width="3382.524px" height="3381.443px" viewBox="3727.559 0 3382.524 3381.443"
	 enable-background="new 3727.559 0 3382.524 3381.443" xml:space="preserve">
<path fill="#FD8469" d="M5011.773,2357.48l-242.952-242.952L6274.001,609.347l836.082,836.082
	C6986.891,627.254,6280.875,0,5428.346,0c-939.317,0-1700.787,761.469-1700.787,1700.787
	c0,850.066,623.638,1554.467,1438.349,1680.656l-589.047-589.05L5011.773,2357.48z"/>
<path fill="#E56453" d="M7129.134,1700.787c0-86.792-6.51-172.063-19.051-255.358l-836.082-836.082L4768.821,2114.528
	l242.952,242.952l-434.913,434.914l589.047,589.049c85.541,13.249,173.187,20.131,262.438,20.131
	C6367.666,3401.574,7129.134,2640.105,7129.134,1700.787z"/>
<path fill="#FFFFFF" d="M4549.83,685.672v2027.553c0,58.926,48.211,109.814,109.814,109.814H5843.5v-350.871
	c0-61.604,48.211-109.814,109.814-109.814h350.871V685.672c0-58.925-48.212-109.814-109.814-109.814H4659.644
	C4598.041,578.535,4549.83,626.747,4549.83,685.672z"/>
<path fill="#E6E9EE" d="M5843.5,2823.039l460.687-460.686h-348.192c-61.604,0-109.814,48.211-109.814,109.813v350.871
	L5843.5,2823.039L5843.5,2823.039z"/>
<g>
	<path fill="#84DBFF" d="M5465.844,1990.055l-72.317-171.418h-332.121l-72.316,171.418h-187.488l340.158-790.129h171.418
		l340.156,790.129H5465.844z M5227.466,1435.625l-99.103,230.343h198.202L5227.466,1435.625z"/>
	<path fill="#84DBFF" d="M5797.966,1601.688v-149.991h-144.635v-101.779h144.635v-149.99h112.492v149.99h144.635v101.779h-144.635
		v149.991H5797.966z"/>
</g>
</svg>
