<?xml version="1.0" encoding="utf-8"?>
<!-- Generator: Adobe Illustrator 13.0.0, SVG Export Plug-In . SVG Version: 6.00 Build 14948)  -->
<!DOCTYPE svg PUBLIC "-//W3C//DTD SVG 1.1//EN" "http://www.w3.org/Graphics/SVG/1.1/DTD/svg11.dtd">
<svg version="1.1" id="Layer_1" xmlns="http://www.w3.org/2000/svg" xmlns:xlink="http://www.w3.org/1999/xlink" x="0px" y="0px"
	 width="3401.515px" height="3329.991px" viewBox="3727.559 0 3401.515 3329.991"
	 enable-background="new 3727.559 0 3401.515 3329.991" xml:space="preserve">
<path fill="#FBD303" d="M5722.587,1830.018l-658-658l774.988-774.987l1289.498,1289.498
	C7121.414,753.939,6363.178,0.268,5428.846,0.001c-0.166,0-0.331-0.001-0.496-0.001c-939.321,0-1700.791,761.47-1700.791,1700.791
	c0,769.055,510.437,1418.884,1211.003,1629.2l-357.973-357.974L5722.587,1830.018z"/>
<path fill="#EFC100" d="M5428.846,3401.579c939.092-0.269,1700.294-761.633,1700.294-1700.788c0-4.76-0.025-9.514-0.064-14.264
	L5839.578,397.029l-774.988,774.987l658,658l-1142,1142.001l357.973,357.974c155.104,46.563,319.522,71.59,489.789,71.59
	C5428.516,3401.581,5428.681,3401.579,5428.846,3401.579z"/>
<g>
	<ellipse fill="#0090FF" cx="4595.5" cy="2469.05" rx="126.875" ry="178.026"/>
	<ellipse fill="#0090FF" cx="6261.193" cy="2469.05" rx="126.874" ry="178.026"/>
	<path fill="#0090FF" d="M5788.5,1613.696l-79.807-20.465l-92.082,235.323l-188.262,26.604l-188.263-26.604l-92.083-235.323
		l-79.807,20.465c0,0-396.983,135.058-405.166,409.264l765.317,374.474l765.317-374.474
		C6185.484,1746.708,5788.5,1613.696,5788.5,1613.696z"/>
</g>
<path fill="#F1F3F7" d="M5434.487,2094.578c0,0-358.104-282.391-642.542-296.717v296.717H5434.487z"/>
<path fill="#FCFCFD" d="M5434.487,2094.578c0,0-538.179-218.957-800.104-198.491v302.854L5434.487,2094.578z"/>
<path fill="#F0BA7A" d="M5426.304,1540.026c-82.218,0-159.536-20.546-227.146-56.764v195.912
	c51.916,87.854,140.358,132.837,229.688,134.967v-274.138C5427.998,1540.009,5427.153,1540.026,5426.304,1540.026z"/>
<path fill="#E8AF70" d="M5428.846,1540.005v274.138c93.771,2.236,188.517-42.746,243.01-134.967v-206.271
	C5600.707,1515.151,5517.664,1539.547,5428.846,1540.005z"/>
<path fill="#F7CFA2" d="M5170.515,680.581c-124.822,0-225.093,100.272-225.093,225.093v153.471c0,42.28,5.437,83.265,15.633,122.303
	c53.966,206.584,241.511,358.58,465.249,358.58c0.85,0,1.693-0.022,2.542-0.026v-859.42H5170.515z"/>
<path fill="#EDC196" d="M5686.183,680.581h-257.337V1540c219.81-1.134,404.247-148.959,460.612-350.806
	c11.547-41.351,17.727-84.964,17.727-130.05V905.674C5909.231,780.847,5808.958,680.581,5686.183,680.581z"/>
<path fill="#393D47" d="M5428.35,222.204c-327.742,0-593.429,265.687-593.429,593.429c0,138.012,47.115,265.016,126.135,365.814
	c-10.199-39.038-15.633-80.022-15.633-122.303V905.674c0-72.178,33.528-136.146,85.944-177.267v240.7h397.479v-746.9
	C5428.68,222.207,5428.515,222.204,5428.35,222.204z"/>
<path fill="#202328" d="M5907.185,1059.145c0,45.086-6.18,88.699-17.727,130.05c82.736-102.001,132.318-231.989,132.318-373.562
	c0-327.576-265.418-593.157-592.932-593.426v746.901h77.258l18.42-216.91l28.647,216.91h249.649V713.834
	c63.53,39.523,105.696,110.456,104.362,191.84v153.471H5907.185z"/>
<polygon fill="#393D47" points="5434.487,3070.669 4587.316,2968.352 4534.112,1967.704 5434.487,2094.578 "/>
<path fill="#F1F3F7" d="M5432.442,2094.578c0,0,358.104-282.391,642.541-296.717v296.717H5432.442z"/>
<path fill="#FCFCFD" d="M5432.442,2094.578c0,0,538.179-218.957,800.104-198.491v302.854L5432.442,2094.578z"/>
<polygon fill="#333842" points="5432.442,3070.669 6281.658,2968.352 6332.817,1967.704 5432.442,2094.578 "/>
<path fill="#F7CFA2" d="M4796.037,2469.051c0-16.373-14.326-30.693-30.693-30.693h-22.51c16.374,0,30.695-14.321,30.695-30.694
	v-2.045c0-16.374-14.328-30.694-30.695-30.694h-163.706c-36.832,0-65.479,28.646-65.479,65.479l18.42,120.73
	c0,36.832,28.647,65.479,65.479,65.479h124.822c16.373,0,28.647-12.274,28.647-28.646v-6.139c0-16.372-12.276-28.647-28.647-28.647
	h26.602c16.373,0,30.693-14.327,30.693-30.694v-2.045c0-16.373-14.326-30.693-30.693-30.693h16.373
	C4781.716,2499.744,4796.037,2485.424,4796.037,2469.051z"/>
<path fill="#F0BA7A" d="M6060.655,2469.051c0-16.373,14.328-30.693,30.694-30.693h22.51c-16.373,0-30.692-14.321-30.692-30.694
	v-2.045c0-16.374,14.327-30.694,30.692-30.694h163.707c36.83,0,65.479,28.646,65.479,65.479l-18.418,120.73
	c0,36.832-28.647,65.479-65.479,65.479h-124.822c-16.373,0-28.648-12.274-28.648-28.646v-6.139
	c0-16.372,12.275-28.647,28.648-28.647h-26.604c-16.371,0-30.691-14.327-30.691-30.694v-2.045c0-16.373,14.326-30.693,30.691-30.693
	h-16.371C6074.983,2499.744,6060.655,2485.424,6060.655,2469.051z"/>
<circle fill="#59595B" cx="5222.996" cy="1046.661" r="46.788"/>
<circle fill="#272525" cx="5664.055" cy="1046.661" r="46.788"/>
<path fill="#FD8469" d="M5435.522,1430.068c-84.299,0-152.86-68.572-152.86-152.861c0-14.293,11.58-25.873,25.873-25.873
	s25.875,11.58,25.875,25.873c0,55.756,45.371,101.115,101.113,101.115c55.751,0,101.115-45.371,101.115-101.115
	c0-14.293,11.58-25.873,25.873-25.873s25.873,11.58,25.873,25.873C5588.382,1361.502,5519.817,1430.068,5435.522,1430.068z"/>
<path fill="#FC6F58" d="M5562.509,1251.34c-14.293,0-25.873,11.58-25.873,25.874c0,55.755-45.357,101.115-101.115,101.115
	c-0.33,0-0.643-0.042-0.973-0.054v51.746c0.33,0,0.643,0.054,0.973,0.054c84.289,0,152.861-68.572,152.861-152.86
	C5588.382,1262.92,5576.803,1251.34,5562.509,1251.34z"/>
<path fill="#3EB9E3" d="M5199.158,1679.176v-128.438c-35.838-4.813-69.51,2.043-96.029,22.235
	c-70.132,53.401-63.714,179.785,14.335,282.285c78.048,102.503,198.172,142.308,268.304,88.906
	c21.539-16.4,35.838-39.697,43.08-67.062v-62.963C5339.516,1812.013,5251.072,1767.029,5199.158,1679.176z"/>
<path fill="#2AAFD3" d="M5755.25,1572.477c-23.379-17.801-52.314-25.23-83.394-23.447v130.146
	c-54.494,92.221-149.24,137.203-243.01,134.967v62.964c0.133-0.501,0.28-0.993,0.408-1.497c7.151,27.8,21.554,51.458,43.354,68.061
	c70.133,53.4,190.256,13.596,268.305-88.904C5818.96,1752.262,5825.38,1625.878,5755.25,1572.477z"/>
</svg>
