<?xml version="1.0" encoding="utf-8"?>
<!-- Generator: Adobe Illustrator 13.0.0, SVG Export Plug-In . SVG Version: 6.00 Build 14948)  -->
<!DOCTYPE svg PUBLIC "-//W3C//DTD SVG 1.1//EN" "http://www.w3.org/Graphics/SVG/1.1/DTD/svg11.dtd">
<svg version="1.1" id="Capa_1" xmlns="http://www.w3.org/2000/svg" xmlns:xlink="http://www.w3.org/1999/xlink" x="0px" y="0px"
	 width="36px" height="36px" viewBox="219.539 219.538 36 36" enable-background="new 219.539 219.538 36 36" xml:space="preserve">
<g>
	<g>
		<path fill="#6C9C28" d="M254.934,243.683c-0.404-0.404-0.895-0.606-1.472-0.606h-10.038l-2.942,2.942
			c-0.837,0.808-1.817,1.212-2.942,1.212s-2.106-0.403-2.942-1.212l-2.92-2.942h-10.06c-0.577,0-1.067,0.202-1.471,0.606
			c-0.404,0.403-0.606,0.894-0.606,1.471v6.923c0,0.577,0.202,1.067,0.606,1.472c0.404,0.403,0.894,0.605,1.471,0.605h31.847
			c0.576,0,1.067-0.202,1.471-0.605c0.403-0.404,0.605-0.895,0.605-1.472v-6.923C255.539,244.577,255.337,244.086,254.934,243.683z
			 M246.82,250.973c-0.274,0.274-0.599,0.411-0.974,0.411s-0.699-0.137-0.974-0.411c-0.273-0.273-0.411-0.598-0.411-0.973
			s0.138-0.7,0.411-0.974c0.274-0.274,0.599-0.411,0.974-0.411s0.699,0.137,0.974,0.411c0.274,0.273,0.411,0.599,0.411,0.974
			C247.231,250.375,247.095,250.7,246.82,250.973z M252.358,250.973c-0.273,0.274-0.598,0.411-0.974,0.411
			c-0.374,0-0.699-0.137-0.973-0.411c-0.274-0.273-0.411-0.598-0.411-0.973s0.137-0.7,0.411-0.974
			c0.273-0.274,0.598-0.411,0.973-0.411s0.7,0.137,0.974,0.411c0.274,0.273,0.411,0.599,0.411,0.974
			C252.77,250.375,252.633,250.7,252.358,250.973z"/>
		<path fill="#6C9C28" d="M236.565,244.05c0.26,0.273,0.584,0.411,0.974,0.411c0.39,0,0.714-0.138,0.974-0.411l9.692-9.692
			c0.447-0.418,0.548-0.923,0.303-1.515c-0.245-0.562-0.67-0.843-1.276-0.844h-5.538v-9.692c0-0.375-0.138-0.699-0.411-0.973
			c-0.274-0.274-0.599-0.412-0.974-0.412h-5.539c-0.375,0-0.699,0.137-0.974,0.412c-0.274,0.274-0.411,0.598-0.411,0.973V232h-5.539
			c-0.606,0-1.031,0.282-1.277,0.844c-0.245,0.591-0.144,1.096,0.303,1.514L236.565,244.05z"/>
	</g>
</g>
</svg>
