<?xml version="1.0" encoding="iso-8859-1"?>
<!-- Generator: Adobe Illustrator 19.0.0, SVG Export Plug-In . SVG Version: 6.00 Build 0)  -->
<svg version="1.1" id="Layer_1" xmlns="http://www.w3.org/2000/svg" xmlns:xlink="http://www.w3.org/1999/xlink" x="0px" y="0px"
	 viewBox="0 0 496.158 496.158" style="enable-background:new 0 0 496.158 496.158;" xml:space="preserve">
<path style="fill:#A09F9D;" d="M248.082,0.003C111.07,0.003,0,111.063,0,248.085c0,137.001,111.07,248.07,248.082,248.07
	c137.006,0,248.076-111.069,248.076-248.07C496.158,111.062,385.088,0.003,248.082,0.003z"/>
<g>
	<path style="fill:#F5EFD8;" d="M224.495,235.432h-14.602c-22.051,0-32.433,20.1-39.917,43.831
		c-7.485,23.757-16.625,118.728-16.625,118.728c0,24.209,17.866,43.84,39.906,43.84h54.602V259.03L224.495,235.432z"/>
	<path style="fill:#F5EFD8;" d="M325.718,279.263c-7.484-23.731-17.867-43.831-39.917-43.831h-14.603l-23.363,23.598v182.801h54.602
		c22.039,0,39.906-19.63,39.906-43.84C342.343,397.991,333.202,303.02,325.718,279.263z"/>
</g>
<path style="fill:#E9C29C;" d="M246.739,63.964c-44.427,0-80.437,36.015-80.437,80.433c0,44.444,36.01,80.45,80.437,80.45
	c44.425,0,80.438-36.006,80.438-80.45C327.177,99.979,291.164,63.964,246.739,63.964z"/>
<path style="fill:#A46434;" d="M246.739,63.964c-44.427,0-80.437,36.015-80.437,80.433c0,0,33.164-2.341,63.199-15.918
	c31.146-14.081,42.83-33.427,42.83-33.427l54.845,49.346C327.177,99.979,291.164,63.964,246.739,63.964z"/>
<g>
	<path style="fill:#343433;" d="M222.628,144.707c-6.087,0-11.02,5.217-11.02,11.65c0,6.429,4.933,11.637,11.02,11.637
		c6.089,0,11.022-5.208,11.022-11.637C233.65,149.924,228.717,144.707,222.628,144.707z"/>
	<path style="fill:#343433;" d="M270.385,144.707c-6.09,0-11.021,5.217-11.021,11.65c0,6.429,4.932,11.637,11.021,11.637
		c6.087,0,11.028-5.208,11.028-11.637C281.413,149.924,276.472,144.707,270.385,144.707z"/>
</g>
<g>
	<path style="fill:#FFFFFF;" d="M273.823,147.286c-2.423,0-4.396,2.078-4.396,4.656c0,2.565,1.973,4.657,4.396,4.657
		c2.442,0,4.407-2.091,4.407-4.657C278.23,149.364,276.266,147.286,273.823,147.286z"/>
	<path style="fill:#FFFFFF;" d="M225.949,147.286c-2.432,0-4.398,2.078-4.398,4.656c0,2.565,1.967,4.657,4.398,4.657
		c2.439,0,4.415-2.091,4.415-4.657C230.364,149.364,228.389,147.286,225.949,147.286z"/>
</g>
<rect x="246.709" y="258.839" style="fill:#BBBCBB;" width="2.208" height="183.14"/>
<rect x="182.679" y="54.179" style="fill:#F5EFD8;" width="127.85" height="40.37"/>
<g>
	<rect x="194.639" y="54.179" style="fill:#686866;" width="15.15" height="40.37"/>
	<rect x="223.989" y="54.179" style="fill:#686866;" width="15.14" height="40.37"/>
	<rect x="253.329" y="54.179" style="fill:#686866;" width="15.14" height="40.37"/>
	<rect x="282.669" y="54.179" style="fill:#686866;" width="15.14" height="40.37"/>
	<path style="fill:#686866;" d="M311.59,248.936h-53.763h-73.724c-2.3,3-4.354,6.397-6.216,10.093h69.947h69.972
		C315.944,255.333,313.89,251.936,311.59,248.936z"/>
	<path style="fill:#686866;" d="M168.755,283.702c-0.708,2.873-1.426,6.28-2.146,10.093h81.226v-10.093H168.755z"/>
	<path style="fill:#686866;" d="M326.938,283.702h-79.104v10.093h81.249C328.365,289.982,327.647,286.575,326.938,283.702z"/>
	<path style="fill:#686866;" d="M162.642,318.468c-0.47,3.307-0.933,6.684-1.387,10.093h86.58v-10.093H162.642z"/>
	<path style="fill:#686866;" d="M333.052,318.468h-85.217v10.093h86.604C333.985,325.151,333.521,321.774,333.052,318.468z"/>
	<path style="fill:#686866;" d="M158.179,353.233c-0.407,3.459-0.795,6.837-1.163,10.093h90.819v-10.093H158.179z"/>
	<path style="fill:#686866;" d="M337.515,353.233h-89.68v10.093h90.843C338.31,360.071,337.922,356.692,337.515,353.233z"/>
	<path style="fill:#686866;" d="M154.354,387.998c-0.64,6.219-1.003,9.993-1.003,9.993c0,0.034,0.002,0.067,0.002,0.101h94.481
		v-10.093h-93.48V387.998z"/>
	<path style="fill:#686866;" d="M341.227,387.998h-93.393v10.093h94.256c0-0.034,0.002-0.067,0.002-0.101
		C342.093,397.991,341.777,394.227,341.227,387.998z"/>
	<path style="fill:#686866;" d="M160.336,422.764c2.408,3.854,5.362,7.262,8.74,10.093h78.759v-10.093H160.336z"/>
	<path style="fill:#686866;" d="M247.835,422.764v10.093h78.531c3.378-2.832,6.332-6.239,8.74-10.093H247.835z"/>
</g>
<g>
	<polygon style="fill:#E9C29C;" points="224.166,235.416 247.673,259.03 271.363,235.416 	"/>
	<path style="fill:#E9C29C;" d="M153.351,397.991c0,24.209,17.866,43.84,39.906,43.84l8.244-43.706L153.351,397.991z"/>
</g>
<path style="fill:#F5EFD8;" d="M209.893,235.432c-22.051,0-32.433,20.1-39.917,43.831c-7.485,23.757-16.625,118.728-16.625,118.728
	l48.15,0.134l21.869-162.746L209.893,235.432z"/>
<g>
	<path style="fill:#686866;" d="M205.828,235.673c-5.515,0.666-10.227,2.706-14.317,5.786l29.685,10.11l1.369-10.195
		L205.828,235.673z"/>
	<path style="fill:#686866;" d="M176.299,262.342c-1.357,2.981-2.605,6.125-3.779,9.375l43.957,14.971l1.37-10.195L176.299,262.342z
		"/>
	<path style="fill:#686866;" d="M166.266,295.652c-0.573,3.141-1.146,6.519-1.713,10.079l47.205,16.077l1.369-10.196
		L166.266,295.652z"/>
	<path style="fill:#686866;" d="M160.988,330.581c-0.446,3.399-0.882,6.817-1.306,10.217l47.355,16.129l1.37-10.196L160.988,330.581
		z"/>
	<path style="fill:#686866;" d="M156.73,365.857c-0.404,3.63-0.783,7.079-1.128,10.279l46.716,15.91l1.371-10.196L156.73,365.857z"
		/>
</g>
<path style="fill:#E9C29C;" d="M294.656,398.125l8.244,43.706c22.04,0,39.906-19.63,39.906-43.84L294.656,398.125z"/>
<path style="fill:#F5EFD8;" d="M326.182,279.263c-7.484-23.731-17.866-43.831-39.917-43.831l-13.478-0.052l21.869,162.746
	l48.15-0.134C342.807,397.991,333.666,303.02,326.182,279.263z"/>
<g>
	<path style="fill:#686866;" d="M290.33,235.673l-16.736,5.701l1.369,10.195l29.685-10.11
		C300.557,238.379,295.844,236.339,290.33,235.673z"/>
	<path style="fill:#686866;" d="M319.859,262.342l-41.548,14.151l1.37,10.195l43.957-14.971
		C322.465,268.467,321.217,265.324,319.859,262.342z"/>
	<path style="fill:#686866;" d="M329.892,295.652l-46.861,15.96l1.369,10.196l47.205-16.077
		C331.038,302.171,330.465,298.793,329.892,295.652z"/>
	<path style="fill:#686866;" d="M335.17,330.581l-47.42,16.15l1.37,10.196l47.355-16.129
		C336.052,337.398,335.616,333.98,335.17,330.581z"/>
	<path style="fill:#686866;" d="M339.428,365.857l-46.959,15.993l1.37,10.196l46.716-15.91
		C340.21,372.936,339.832,369.488,339.428,365.857z"/>
</g>
<g>
</g>
<g>
</g>
<g>
</g>
<g>
</g>
<g>
</g>
<g>
</g>
<g>
</g>
<g>
</g>
<g>
</g>
<g>
</g>
<g>
</g>
<g>
</g>
<g>
</g>
<g>
</g>
<g>
</g>
</svg>
