<?xml version="1.0" encoding="utf-8"?>
<!-- Generator: Adobe Illustrator 13.0.0, SVG Export Plug-In . SVG Version: 6.00 Build 14948)  -->
<!DOCTYPE svg PUBLIC "-//W3C//DTD SVG 1.1//EN" "http://www.w3.org/Graphics/SVG/1.1/DTD/svg11.dtd">
<svg version="1.1" id="Layer_1" xmlns="http://www.w3.org/2000/svg" xmlns:xlink="http://www.w3.org/1999/xlink" x="0px" y="0px"
	 width="36px" height="36px" viewBox="0 0 36 36" enable-background="new 0 0 36 36" xml:space="preserve">
<g>
	<g>
		<path fill="#FFFFFF" d="M18,0C8.059,0,0,8.059,0,18C0,27.94,8.059,36,18,36C27.941,36,36,27.94,36,18C35.999,8.059,27.939,0,18,0z
			 M18,34.67c-9.042,0-16.401-7.358-16.401-16.4c0-9.042,7.358-16.4,16.401-16.4c9.044,0,16.398,7.357,16.398,16.4
			C34.398,27.312,27.044,34.67,18,34.67z"/>
		<path fill="#FFFFFF" d="M18,4.269c-7.245,0-13.222,5.534-13.929,12.596h13.364l-1.029-1.029c-0.507-0.507-0.507-1.328,0-1.834
			s1.328-0.507,1.835,0l3.243,3.242c0,0,0,0.002,0.001,0.002l0.916,0.916l-0.916,0.917h-0.001l-3.027,3.027
			c-0.254,0.254-0.584,0.381-0.917,0.381c-0.331,0-0.664-0.127-0.917-0.381c-0.506-0.507-0.506-1.327,0-1.834l0.813-0.813H4.061
			C4.667,26.624,10.682,32.269,18,32.269c7.72,0,13.999-6.28,13.999-13.999C32,10.551,25.72,4.269,18,4.269z"/>
	</g>
</g>
</svg>
