<svg xmlns="http://www.w3.org/2000/svg" width="1040" height="87"><defs><clipPath id="a"><path fill="#fff" d="M0 0h1040v87H0z" data-name="Rectangle 173377" transform="translate(-8826 -3634)"/></clipPath></defs><g clip-path="url(#a)" data-name="Mask Group 83914" transform="translate(8826 3634)"><g data-name="Group 220311"><path fill="#86c9cf" d="M-8792.4-3250.3l41.8 59.1 34.9-9.4-41.8-59.1z" data-name="Path 256761"/><g data-name="Group 220310"><path fill="#86c9cf" d="M-8632.3-3223s-5.2-10.2-.3-34.4a94.7 94.7 0 00-.1-35.8l-35 9.4s5.2 8.4-1.1 41.5c-3.7 18.9 1.5 28.7 1.5 28.7z" data-name="Path 256762"/><path fill="#dddddc" d="M-8624.2-3225.1s-.6-11.6-16.9-30a94.7 94.7 0 01-17.8-31l35-9.4s-.4 9.8 21.7 35.3c12.6 14.6 13 25.7 13 25.7z" data-name="Path 256763"/><path fill="#ffb900" d="M-8634.3-3246.5c.4-3.3 1-6.9 1.7-10.9a94.7 94.7 0 00-.1-35.8l-26.1 7a94.7 94.7 0 0017.8 31c2.6 3.2 4.9 6 6.8 8.7" data-name="Path 256764"/><path fill="#86c9cf" d="M-8751-3261.4s4.7 7.7.8 24.4c-8.3 35.3-.5 45.8-.5 45.8l35-9.4s-6-14.4 1.2-41.4c4.9-18.7-1.6-28.8-1.6-28.8z" data-name="Path 256765"/><path fill="#dddddc" d="M-8757.5-3259.7l-6.6 72.1-35 9.4 6.7-72.1z" data-name="Path 256766"/><path fill="#ffb900" d="M-8798.9-3248.6s-.2 9 11.6 21.6c24.8 26.4 23.2 39.4 23.2 39.4l-35 9.3s-2-15.4-21.8-35.2c-13.5-13.7-12.9-25.8-12.9-25.8z" data-name="Path 256767"/><path fill="#e85620" d="M-8787.3-3227a57 57 0 01-6.5-8.2l-5.2 57 35-9.4c0-1.1.5-14-23.3-39.4" data-name="Path 256768"/><path fill="#dddddc" d="M-8689.9-3277.8l-34.3 9.2 17.6 65.6 34.3-9.2a34 34 0 00-17.6-65.6" data-name="Path 256769"/></g><g data-name="logo_content"><path fill="#86c9cf" d="M-8873.4-3552.5l41.7 59.1 35-9.4-41.8-59.1z" data-name="Path 256761"/><g data-name="Group 220310"><path fill="#86c9cf" d="M-8713.3-3525.1s-5.2-10.3-.4-34.5a94.7 94.7 0 000-35.8l-35 9.4s5.2 8.4-1.2 41.5c-3.6 18.9 1.6 28.7 1.6 28.7z" data-name="Path 256762"/><path fill="#dddddc" d="M-8705.2-3527.3s-.6-11.6-16.9-30a94.7 94.7 0 01-17.8-31l35-9.4s-.4 9.8 21.7 35.3c12.6 14.6 13 25.7 13 25.7z" data-name="Path 256763"/><path fill="#ffb900" d="M-8715.3-3548.7c.4-3.3.9-6.9 1.6-10.9a94.7 94.7 0 000-35.8l-26.2 7a94.7 94.7 0 0017.9 31.1c2.6 3 4.9 6 6.8 8.6" data-name="Path 256764"/><path fill="#86c9cf" d="M-8832-3563.6s4.7 7.7.8 24.4c-8.4 35.3-.5 45.8-.5 45.8l35-9.4s-6-14.4 1.2-41.4c4.9-18.7-1.6-28.8-1.6-28.8z" data-name="Path 256765"/><path fill="#dddddc" d="M-8838.5-3561.9l-6.6 72.1-35 9.4 6.6-72.1z" data-name="Path 256766"/><path fill="#ffb900" d="M-8879.9-3550.8s-.2 9 11.5 21.6c24.9 26.4 23.3 39.4 23.3 39.4l-35 9.3s-2-15.4-21.8-35.2c-13.5-13.7-12.9-25.8-12.9-25.8z" data-name="Path 256767"/><path fill="#e85620" d="M-8868.4-3529.2a57 57 0 01-6.5-8.2l-5.2 57 35-9.4c0-1.1.6-14-23.3-39.4" data-name="Path 256768"/><path fill="#dddddc" d="M-8771-3580l-34.2 9.2 17.6 65.6 34.3-9.2a34 34 0 00-17.6-65.6" data-name="Path 256769"/></g></g><g data-name="logo_content"><path fill="#86c9cf" d="M-8554.8-3314l41.8 59.1 35-9.4-41.8-59.1z" data-name="Path 256761"/><g data-name="Group 220310"><path fill="#86c9cf" d="M-8394.6-3286.6s-5.3-10.4-.4-34.5a94.7 94.7 0 000-35.8l-35 9.4s5.2 8.4-1.2 41.5c-3.6 18.9 1.6 28.7 1.6 28.7z" data-name="Path 256762"/><path fill="#dddddc" d="M-8386.5-3288.8s-.7-11.6-17-30a94.7 94.7 0 01-17.8-31l35-9.4s-.3 9.8 21.8 35.3c12.5 14.6 13 25.6 13 25.6z" data-name="Path 256763"/><path fill="#ffb900" d="M-8396.6-3310.2c.3-3.3.9-6.9 1.6-10.9a94.7 94.7 0 000-35.8l-26.2 7a94.7 94.7 0 0017.8 31c2.7 3.1 5 6 6.9 8.7" data-name="Path 256764"/><path fill="#86c9cf" d="M-8513.4-3325.1s4.7 7.7.8 24.4c-8.3 35.3-.4 45.7-.4 45.7l35-9.3s-6-14.4 1.1-41.5c5-18.6-1.6-28.7-1.6-28.7z" data-name="Path 256765"/><path fill="#dddddc" d="M-8519.8-3323.4l-6.6 72.1-35 9.4 6.6-72.2z" data-name="Path 256766"/><path fill="#ffb900" d="M-8561.2-3312.3s-.3 9 11.5 21.6c24.8 26.3 23.2 39.3 23.2 39.3l-34.9 9.4s-2-15.4-21.8-35.2c-13.5-13.7-13-25.8-13-25.8z" data-name="Path 256767"/><path fill="#e85620" d="M-8549.7-3290.7a57 57 0 01-6.5-8.2l-5.2 57 35-9.5c0-1 .5-14-23.3-39.3" data-name="Path 256768"/><path fill="#dddddc" d="M-8452.3-3341.5l-34.2 9.2 17.6 65.6 34.2-9.2a34 34 0 00-17.6-65.6" data-name="Path 256769"/></g></g><g data-name="logo_content"><path fill="#86c9cf" d="M-8635.8-3616.2l41.8 59.1 35-9.4-41.9-59.1z" data-name="Path 256761"/><g data-name="Group 220310"><path fill="#86c9cf" d="M-8475.6-3588.8s-5.3-10.4-.4-34.5a94.7 94.7 0 00-.1-35.8l-35 9.4s5.2 8.4-1.1 41.5c-3.6 18.9 1.5 28.7 1.5 28.7z" data-name="Path 256762"/><path fill="#dddddc" d="M-8467.6-3591s-.6-11.6-16.9-30a94.7 94.7 0 01-17.8-31l35-9.4s-.3 9.8 21.7 35.3c12.6 14.6 13 25.6 13 25.6z" data-name="Path 256763"/><path fill="#ffb900" d="M-8477.7-3612.4c.4-3.3 1-6.9 1.7-10.9a94.7 94.7 0 00-.1-35.8l-26.1 7a94.7 94.7 0 0017.8 31c2.6 3.2 5 6 6.9 8.7" data-name="Path 256764"/><path fill="#86c9cf" d="M-8594.4-3627.3s4.7 7.7.8 24.4c-8.3 35.3-.4 45.7-.4 45.7l34.9-9.3s-6-14.4 1.2-41.5c5-18.6-1.6-28.7-1.6-28.7z" data-name="Path 256765"/><path fill="#dddddc" d="M-8600.9-3625.6l-6.6 72.1-34.9 9.4 6.6-72.1z" data-name="Path 256766"/><path fill="#ffb900" d="M-8642.3-3614.5s-.2 9 11.6 21.6c24.8 26.3 23.2 39.3 23.2 39.3l-35 9.4s-1.9-15.4-21.7-35.2c-13.6-13.7-13-25.8-13-25.8z" data-name="Path 256767"/><path fill="#e85620" d="M-8630.7-3593a57 57 0 01-6.5-8.1l-5.2 57 35-9.5c0-1 .5-14-23.3-39.3" data-name="Path 256768"/><path fill="#dddddc" d="M-8533.3-3643.7l-34.3 9.2 17.6 65.6 34.3-9.2a34 34 0 00-17.6-65.6" data-name="Path 256769"/></g></g><g data-name="logo_content"><path fill="#86c9cf" d="M-8317.2-3377.8l41.8 59.2 35-9.4-41.8-59.1z" data-name="Path 256761"/><g data-name="Group 220310"><path fill="#86c9cf" d="M-8157-3350.4s-5.2-10.3-.4-34.4a94.7 94.7 0 000-35.8l-35 9.4s5.2 8.4-1.2 41.5c-3.6 18.9 1.6 28.7 1.6 28.7z" data-name="Path 256762"/><path fill="#dddddc" d="M-8148.9-3352.5s-.6-11.6-16.9-30a94.7 94.7 0 01-17.8-31l35-9.4s-.4 9.8 21.7 35.3c12.6 14.5 13 25.6 13 25.6z" data-name="Path 256763"/><path fill="#ffb900" d="M-8159-3374c.4-3.2.9-6.8 1.6-10.8a94.7 94.7 0 000-35.8l-26.2 7a94.7 94.7 0 0017.9 31c2.6 3.1 4.9 6 6.8 8.6" data-name="Path 256764"/><path fill="#86c9cf" d="M-8275.8-3388.9s4.8 7.8.9 24.5c-8.4 35.3-.5 45.7-.5 45.7l35-9.3s-6-14.4 1.2-41.5c4.9-18.6-1.6-28.7-1.6-28.7z" data-name="Path 256765"/><path fill="#dddddc" d="M-8282.2-3387.1l-6.6 72-35 9.5 6.6-72.2z" data-name="Path 256766"/><path fill="#ffb900" d="M-8323.6-3376s-.2 9 11.5 21.6c24.9 26.3 23.3 39.3 23.3 39.3l-35 9.4s-2-15.4-21.8-35.3c-13.5-13.7-12.9-25.7-12.9-25.7z" data-name="Path 256767"/><path fill="#e85620" d="M-8312-3354.4a57 57 0 01-6.6-8.3l-5.2 57 35-9.4c0-1 .6-14-23.3-39.3" data-name="Path 256768"/><path fill="#dddddc" d="M-8214.6-3405.3l-34.3 9.2 17.6 65.7 34.3-9.2a34 34 0 00-17.6-65.7" data-name="Path 256769"/></g></g><g data-name="logo_content"><path fill="#86c9cf" d="M-8398.2-3680l41.8 59.2 35-9.4-41.8-59.1z" data-name="Path 256761"/><g data-name="Group 220310"><path fill="#86c9cf" d="M-8238-3652.6s-5.3-10.3-.4-34.4a94.7 94.7 0 000-35.8l-35 9.4s5.2 8.4-1.2 41.5c-3.6 18.9 1.6 28.7 1.6 28.7z" data-name="Path 256762"/><path fill="#dddddc" d="M-8230-3654.7s-.5-11.6-16.8-30a94.7 94.7 0 01-17.9-31l35-9.4s-.3 9.8 21.8 35.3c12.5 14.5 13 25.6 13 25.6z" data-name="Path 256763"/><path fill="#ffb900" d="M-8240-3676.1c.3-3.3.9-6.9 1.6-10.9a94.7 94.7 0 000-35.8l-26.2 7a94.7 94.7 0 0017.8 31c2.7 3.1 5 6 6.9 8.7" data-name="Path 256764"/><path fill="#86c9cf" d="M-8356.8-3691s4.7 7.7.8 24.4c-8.3 35.3-.4 45.7-.4 45.7l35-9.3s-6-14.4 1.1-41.5c5-18.6-1.5-28.7-1.5-28.7z" data-name="Path 256765"/><path fill="#dddddc" d="M-8363.2-3689.3l-6.6 72-35 9.5 6.6-72.2z" data-name="Path 256766"/><path fill="#ffb900" d="M-8404.6-3678.2s-.3 9 11.5 21.6c24.9 26.3 23.3 39.3 23.3 39.3l-35 9.4s-2-15.4-21.8-35.3c-13.5-13.7-12.9-25.7-12.9-25.7z" data-name="Path 256767"/><path fill="#e85620" d="M-8393.1-3656.6a57 57 0 01-6.5-8.3l-5.2 57 35-9.4c0-1 .6-14-23.3-39.3" data-name="Path 256768"/><path fill="#dddddc" d="M-8295.7-3707.5l-34.2 9.2 17.6 65.7 34.2-9.2a34 34 0 00-17.6-65.7" data-name="Path 256769"/></g></g><g data-name="logo_content"><path fill="#86c9cf" d="M-8079.5-3441.5l41.8 59.2 35-9.4-41.9-59.1z" data-name="Path 256761"/><g data-name="Group 220310"><path fill="#86c9cf" d="M-7919.3-3414s-5.3-10.4-.4-34.5a94.7 94.7 0 00-.1-35.8l-35 9.4s5.2 8.4-1.1 41.5c-3.6 18.8 1.5 28.7 1.5 28.7z" data-name="Path 256762"/><path fill="#dddddc" d="M-7911.3-3416.2s-.6-11.6-16.9-30a94.7 94.7 0 01-17.8-31l35-9.4s-.3 9.8 21.7 35.3c12.6 14.5 13 25.6 13 25.6z" data-name="Path 256763"/><path fill="#ffb900" d="M-7921.4-3437.6c.4-3.3 1-7 1.7-10.9a94.7 94.7 0 00-.1-35.8l-26.1 7a94.7 94.7 0 0017.8 31l6.9 8.6" data-name="Path 256764"/><path fill="#86c9cf" d="M-8038.1-3452.6s4.7 7.7.8 24.5c-8.3 35.3-.4 45.7-.4 45.7l34.9-9.4s-6-14.3 1.2-41.4c4.9-18.6-1.6-28.7-1.6-28.7z" data-name="Path 256765"/><path fill="#dddddc" d="M-8044.6-3450.8l-6.6 72-35 9.4 6.7-72z" data-name="Path 256766"/><path fill="#ffb900" d="M-8086-3439.8s-.2 9.1 11.6 21.6c24.8 26.4 23.2 39.4 23.2 39.4l-35 9.4s-2-15.4-21.8-35.3c-13.5-13.7-12.8-25.7-12.8-25.7z" data-name="Path 256767"/><path fill="#e85620" d="M-8074.4-3418.2a57 57 0 01-6.5-8.2l-5.2 57 35-9.4c0-1 .5-14-23.3-39.4" data-name="Path 256768"/><path fill="#dddddc" d="M-7977-3469l-34.3 9.2 17.6 65.7 34.3-9.2a34 34 0 00-17.6-65.7" data-name="Path 256769"/></g></g><g data-name="logo_content"><path fill="#86c9cf" d="M-8160.5-3743.7l41.7 59.2 35-9.4-41.8-59.1z" data-name="Path 256761"/><g data-name="Group 220310"><path fill="#86c9cf" d="M-8000.4-3716.3s-5.2-10.3-.3-34.4a94.7 94.7 0 00-.1-35.8l-35 9.4s5.2 8.4-1.2 41.5c-3.6 18.8 1.6 28.7 1.6 28.7z" data-name="Path 256762"/><path fill="#dddddc" d="M-7992.3-3718.4s-.6-11.6-16.9-30a94.7 94.7 0 01-17.8-31l35-9.4s-.4 9.8 21.7 35.3c12.6 14.5 13 25.6 13 25.6z" data-name="Path 256763"/><path fill="#ffb900" d="M-8002.4-3739.8c.4-3.3.9-7 1.7-10.9a94.7 94.7 0 00-.1-35.8l-26.2 7a94.7 94.7 0 0017.9 31c2.6 3.1 4.9 6 6.8 8.6" data-name="Path 256764"/><path fill="#86c9cf" d="M-8119.2-3754.8s4.8 7.7.9 24.5c-8.4 35.3-.5 45.7-.5 45.7l35-9.4s-6-14.3 1.2-41.4c4.9-18.6-1.6-28.7-1.6-28.7z" data-name="Path 256765"/><path fill="#dddddc" d="M-8125.6-3753l-6.6 72-35 9.4 6.7-72z" data-name="Path 256766"/><path fill="#ffb900" d="M-8167-3742s-.2 9.1 11.5 21.6c24.9 26.4 23.3 39.4 23.3 39.4l-35 9.4s-2-15.4-21.8-35.3c-13.5-13.7-12.9-25.7-12.9-25.7z" data-name="Path 256767"/><path fill="#e85620" d="M-8155.5-3720.4a57 57 0 01-6.5-8.2l-5.1 57 34.9-9.4c.1-1 .6-14-23.3-39.4" data-name="Path 256768"/><path fill="#dddddc" d="M-8058-3771.2l-34.3 9.2 17.6 65.7 34.3-9.2a34 34 0 00-17.6-65.7" data-name="Path 256769"/></g></g><g data-name="logo_content"><path fill="#86c9cf" d="M-7841.9-3505.1l41.8 59.1 35-9.4-41.8-59.1z" data-name="Path 256761"/><g data-name="Group 220310"><path fill="#86c9cf" d="M-7681.7-3477.7s-5.2-10.4-.4-34.5a94.7 94.7 0 000-35.8l-35 9.4s5.2 8.4-1.2 41.5c-3.6 18.9 1.6 28.7 1.6 28.7z" data-name="Path 256762"/><path fill="#dddddc" d="M-7673.6-3479.9s-.6-11.6-17-30a94.7 94.7 0 01-17.8-31l35-9.4s-.3 9.8 21.8 35.3c12.5 14.6 13 25.7 13 25.7z" data-name="Path 256763"/><path fill="#ffb900" d="M-7683.7-3501.3c.3-3.3.9-6.9 1.6-10.9a94.7 94.7 0 000-35.8l-26.2 7a94.7 94.7 0 0017.8 31c2.7 3.2 5 6 6.9 8.7" data-name="Path 256764"/><path fill="#86c9cf" d="M-7800.5-3516.2s4.8 7.7.8 24.4c-8.3 35.3-.4 45.7-.4 45.7l35-9.3s-6-14.4 1.1-41.5c5-18.6-1.5-28.7-1.5-28.7z" data-name="Path 256765"/><path fill="#dddddc" d="M-7807-3514.5l-6.5 72.1-35 9.4 6.6-72.1z" data-name="Path 256766"/><path fill="#ffb900" d="M-7848.3-3503.4s-.3 9 11.5 21.6c24.9 26.3 23.3 39.3 23.3 39.3l-35 9.4s-2-15.4-21.8-35.2c-13.5-13.7-12.9-25.8-12.9-25.8z" data-name="Path 256767"/><path fill="#e85620" d="M-7836.8-3481.8a57 57 0 01-6.5-8.2l-5.2 57 35-9.5c0-1 .6-14-23.3-39.3" data-name="Path 256768"/><path fill="#dddddc" d="M-7739.3-3532.6l-34.3 9.2 17.6 65.6 34.3-9.2a34 34 0 00-17.6-65.6" data-name="Path 256769"/></g></g><g data-name="logo_content"><path fill="#86c9cf" d="M-7922.9-3807.3l41.8 59.1 35-9.4-41.8-59.1z" data-name="Path 256761"/><g data-name="Group 220310"><path fill="#86c9cf" d="M-7762.7-3780s-5.3-10.2-.4-34.4a94.7 94.7 0 000-35.8l-35 9.4s5.2 8.4-1.2 41.5c-3.6 18.9 1.6 28.7 1.6 28.7z" data-name="Path 256762"/><path fill="#dddddc" d="M-7754.6-3782.1s-.7-11.6-17-30a94.7 94.7 0 01-17.8-31l35-9.4s-.3 9.8 21.8 35.3c12.5 14.6 13 25.7 13 25.7z" data-name="Path 256763"/><path fill="#ffb900" d="M-7764.7-3803.5c.3-3.3.9-6.9 1.6-10.9a94.7 94.7 0 000-35.8l-26.2 7a94.7 94.7 0 0017.8 31c2.7 3.2 5 6 6.9 8.7" data-name="Path 256764"/><path fill="#86c9cf" d="M-7881.5-3818.4s4.7 7.7.8 24.4c-8.3 35.3-.4 45.8-.4 45.8l35-9.4s-6-14.4 1.1-41.4c5-18.7-1.6-28.8-1.6-28.8z" data-name="Path 256765"/><path fill="#dddddc" d="M-7888-3816.7l-6.5 72.1-35 9.4 6.6-72.1z" data-name="Path 256766"/><path fill="#ffb900" d="M-7929.3-3805.6s-.3 9 11.5 21.6c24.8 26.4 23.2 39.4 23.2 39.4l-34.9 9.3s-2-15.4-21.8-35.2c-13.5-13.7-13-25.8-13-25.8z" data-name="Path 256767"/><path fill="#e85620" d="M-7917.8-3784a57 57 0 01-6.5-8.2l-5.2 57 35-9.4c0-1.1.5-14-23.3-39.4" data-name="Path 256768"/><path fill="#dddddc" d="M-7820.4-3834.8l-34.2 9.2 17.6 65.6 34.2-9.2a34 34 0 00-17.6-65.6" data-name="Path 256769"/></g></g><g data-name="logo_content"><path fill="#86c9cf" d="M-8812.6-3325.5l41.8 59.1 35-9.3-41.8-59.2z" data-name="Path 256761"/><g data-name="Group 220310"><path fill="#86c9cf" d="M-8652.4-3298.1s-5.3-10.3-.4-34.4a94.7 94.7 0 000-35.8l-35 9.3s5.2 8.4-1.2 41.5c-3.6 18.9 1.6 28.7 1.6 28.7z" data-name="Path 256762"/><path fill="#dddddc" d="M-8644.3-3300.3s-.7-11.5-17-30a94.7 94.7 0 01-17.8-31l35-9.4s-.3 9.9 21.8 35.3c12.5 14.6 13 25.7 13 25.7z" data-name="Path 256763"/><path fill="#ffb900" d="M-8654.4-3321.7c.3-3.3.9-6.9 1.6-10.8a94.7 94.7 0 000-35.8l-26.2 7a94.7 94.7 0 0017.8 31c2.7 3 5 6 6.9 8.6" data-name="Path 256764"/><path fill="#86c9cf" d="M-8771.2-3336.6s4.7 7.7.8 24.4c-8.3 35.3-.4 45.8-.4 45.8l35-9.4s-6-14.4 1.1-41.4c5-18.7-1.6-28.8-1.6-28.8z" data-name="Path 256765"/><path fill="#dddddc" d="M-8777.6-3334.9l-6.6 72.1-35 9.4 6.6-72.1z" data-name="Path 256766"/><path fill="#ffb900" d="M-8819-3323.8s-.3 9 11.5 21.6c24.8 26.4 23.3 39.4 23.3 39.4l-35 9.3s-2-15.4-21.8-35.2c-13.5-13.7-13-25.7-13-25.7z" data-name="Path 256767"/><path fill="#e85620" d="M-8807.5-3302.2a57 57 0 01-6.5-8.2l-5.2 57 35-9.4c0-1.1.6-14-23.3-39.4" data-name="Path 256768"/><path fill="#dddddc" d="M-8710-3353l-34.3 9.2 17.6 65.6 34.2-9.2a34 34 0 00-17.6-65.6" data-name="Path 256769"/></g></g><g data-name="logo_content"><path fill="#86c9cf" d="M-8893.6-3627.7l41.8 59.1 35-9.3-41.9-59.2z" data-name="Path 256761"/><g data-name="Group 220310"><path fill="#86c9cf" d="M-8733.4-3600.3s-5.3-10.3-.4-34.4a94.7 94.7 0 00-.1-35.8l-35 9.3s5.2 8.4-1.1 41.5c-3.6 18.9 1.5 28.7 1.5 28.7z" data-name="Path 256762"/><path fill="#dddddc" d="M-8725.4-3602.5s-.6-11.5-16.9-30a94.7 94.7 0 01-17.8-31l35-9.4s-.3 9.9 21.7 35.3c12.6 14.6 13 25.7 13 25.7z" data-name="Path 256763"/><path fill="#ffb900" d="M-8735.5-3623.9c.4-3.3 1-6.9 1.7-10.8a94.7 94.7 0 00-.1-35.8l-26.1 7a94.7 94.7 0 0017.8 31c2.7 3 5 6 6.9 8.6" data-name="Path 256764"/><path fill="#86c9cf" d="M-8852.2-3638.8s4.7 7.7.8 24.4c-8.3 35.3-.4 45.8-.4 45.8l34.9-9.4s-6-14.4 1.2-41.4c5-18.7-1.6-28.8-1.6-28.8z" data-name="Path 256765"/><path fill="#dddddc" d="M-8858.7-3637l-6.6 72-34.9 9.4 6.6-72.1z" data-name="Path 256766"/><path fill="#ffb900" d="M-8900-3626s-.3 9 11.5 21.6c24.8 26.4 23.2 39.4 23.2 39.4l-35 9.3s-1.9-15.4-21.7-35.2c-13.6-13.7-13-25.7-13-25.7z" data-name="Path 256767"/><path fill="#e85620" d="M-8888.5-3604.4a57 57 0 01-6.5-8.2l-5.2 57 35-9.4c0-1.1.5-14-23.3-39.4" data-name="Path 256768"/><path fill="#dddddc" d="M-8791-3655.2l-34.4 9.2 17.6 65.6 34.3-9.2a34 34 0 00-17.6-65.6" data-name="Path 256769"/></g></g><g data-name="logo_content"><path fill="#86c9cf" d="M-8575-3389.2l41.8 59.1 35-9.4-41.8-59.1z" data-name="Path 256761"/><g data-name="Group 220310"><path fill="#86c9cf" d="M-8414.8-3361.8s-5.2-10.3-.4-34.5a94.7 94.7 0 000-35.8l-35 9.4s5.2 8.4-1.2 41.5c-3.6 18.9 1.6 28.7 1.6 28.7z" data-name="Path 256762"/><path fill="#dddddc" d="M-8406.7-3364s-.6-11.6-16.9-30a94.7 94.7 0 01-17.8-31l35-9.4s-.4 9.8 21.7 35.3c12.6 14.6 13 25.7 13 25.7z" data-name="Path 256763"/><path fill="#ffb900" d="M-8416.8-3385.4c.4-3.3.9-6.9 1.6-10.9a94.7 94.7 0 000-35.8l-26.2 7a94.7 94.7 0 0017.9 31c2.6 3.2 4.9 6 6.8 8.7" data-name="Path 256764"/><path fill="#86c9cf" d="M-8533.6-3400.3s4.8 7.7.9 24.4c-8.4 35.3-.5 45.7-.5 45.7l35-9.3s-6-14.4 1.2-41.4c4.9-18.7-1.6-28.8-1.6-28.8z" data-name="Path 256765"/><path fill="#dddddc" d="M-8540-3398.6l-6.6 72.1-35 9.4 6.7-72.1z" data-name="Path 256766"/><path fill="#ffb900" d="M-8581.4-3387.5s-.2 9 11.5 21.6c24.9 26.4 23.3 39.4 23.3 39.4l-35 9.3s-2-15.4-21.8-35.2c-13.5-13.7-12.9-25.8-12.9-25.8z" data-name="Path 256767"/><path fill="#e85620" d="M-8569.9-3366a57 57 0 01-6.5-8.1l-5.2 57 35-9.4c0-1.1.6-14-23.3-39.4" data-name="Path 256768"/><path fill="#dddddc" d="M-8472.4-3416.7l-34.3 9.2 17.6 65.6 34.3-9.2a34 34 0 00-17.6-65.6" data-name="Path 256769"/></g></g><g data-name="logo_content"><path fill="#86c9cf" d="M-8656-3691.4l41.8 59.1 35-9.4-41.8-59.1z" data-name="Path 256761"/><g data-name="Group 220310"><path fill="#86c9cf" d="M-8495.8-3664s-5.2-10.3-.4-34.5a94.7 94.7 0 000-35.8l-35 9.4s5.2 8.4-1.2 41.5c-3.6 18.9 1.6 28.7 1.6 28.7z" data-name="Path 256762"/><path fill="#dddddc" d="M-8487.7-3666.2s-.6-11.6-17-30a94.7 94.7 0 01-17.8-31l35-9.4s-.3 9.8 21.8 35.3c12.5 14.6 13 25.7 13 25.7z" data-name="Path 256763"/><path fill="#ffb900" d="M-8497.8-3687.6c.3-3.3.9-6.9 1.6-10.9a94.7 94.7 0 000-35.8l-26.2 7a94.7 94.7 0 0017.8 31.1c2.7 3 5 6 6.9 8.6" data-name="Path 256764"/><path fill="#86c9cf" d="M-8614.6-3702.5s4.8 7.7.8 24.4c-8.3 35.3-.4 45.8-.4 45.8l35-9.4s-6-14.4 1.1-41.4c5-18.7-1.5-28.8-1.5-28.8z" data-name="Path 256765"/><path fill="#dddddc" d="M-8621-3700.8l-6.6 72.1-35 9.4 6.6-72.1z" data-name="Path 256766"/><path fill="#ffb900" d="M-8662.4-3689.7s-.3 9 11.5 21.6c24.9 26.4 23.3 39.4 23.3 39.4l-35 9.3s-2-15.4-21.8-35.2c-13.5-13.7-12.9-25.8-12.9-25.8z" data-name="Path 256767"/><path fill="#e85620" d="M-8650.9-3668.1a57 57 0 01-6.5-8.2l-5.2 57 35-9.4c0-1.1.6-14-23.3-39.4" data-name="Path 256768"/><path fill="#dddddc" d="M-8553.5-3719l-34.2 9.3 17.6 65.6 34.2-9.2a34 34 0 00-17.6-65.6" data-name="Path 256769"/></g></g><g data-name="logo_content"><path fill="#86c9cf" d="M-8337.3-3453l41.8 59.2 35-9.4-41.9-59.1z" data-name="Path 256761"/><g data-name="Group 220310"><path fill="#86c9cf" d="M-8177.1-3425.5s-5.3-10.4-.4-34.5a94.7 94.7 0 00-.1-35.8l-35 9.4s5.2 8.4-1.1 41.5c-3.6 18.9 1.5 28.7 1.5 28.7z" data-name="Path 256762"/><path fill="#dddddc" d="M-8169-3427.7s-.7-11.6-17-30a94.7 94.7 0 01-17.8-31l35-9.4s-.3 9.8 21.7 35.3c12.6 14.6 13 25.6 13 25.6z" data-name="Path 256763"/><path fill="#ffb900" d="M-8179.2-3449.1c.4-3.3 1-6.9 1.7-10.9a94.7 94.7 0 00-.1-35.8l-26.1 7a94.7 94.7 0 0017.8 31c2.6 3.1 5 6 6.9 8.7" data-name="Path 256764"/><path fill="#86c9cf" d="M-8296-3464s4.8 7.7.9 24.4c-8.3 35.3-.4 45.7-.4 45.7l34.9-9.3s-6-14.4 1.2-41.5c5-18.6-1.6-28.7-1.6-28.7z" data-name="Path 256765"/><path fill="#dddddc" d="M-8302.4-3462.3l-6.6 72.1-34.9 9.4 6.6-72.2z" data-name="Path 256766"/><path fill="#ffb900" d="M-8343.8-3451.2s-.2 9 11.6 21.6c24.8 26.3 23.2 39.3 23.2 39.3l-35 9.4s-1.9-15.4-21.7-35.2c-13.6-13.8-13-25.8-13-25.8z" data-name="Path 256767"/><path fill="#e85620" d="M-8332.2-3429.6a57 57 0 01-6.5-8.2l-5.2 57 35-9.5c0-1 .5-14-23.3-39.3" data-name="Path 256768"/><path fill="#dddddc" d="M-8234.8-3480.4l-34.3 9.1 17.6 65.7 34.3-9.2a34 34 0 00-17.6-65.6" data-name="Path 256769"/></g></g><g data-name="logo_content"><path fill="#86c9cf" d="M-8418.3-3755.1l41.7 59.1 35-9.4-41.8-59.1z" data-name="Path 256761"/><g data-name="Group 220310"><path fill="#86c9cf" d="M-8258.2-3727.7s-5.2-10.4-.3-34.5a94.7 94.7 0 00-.1-35.8l-35 9.4s5.2 8.4-1.2 41.5c-3.6 18.9 1.6 28.7 1.6 28.7z" data-name="Path 256762"/><path fill="#dddddc" d="M-8250-3730s-.7-11.5-17-29.9a94.7 94.7 0 01-17.8-31l35-9.4s-.4 9.8 21.7 35.3c12.6 14.6 13 25.6 13 25.6z" data-name="Path 256763"/><path fill="#ffb900" d="M-8260.2-3751.3c.4-3.3.9-6.9 1.7-10.9a94.7 94.7 0 00-.1-35.8l-26.2 7a94.7 94.7 0 0017.9 31c2.6 3.1 4.9 6 6.8 8.7" data-name="Path 256764"/><path fill="#86c9cf" d="M-8377-3766.2s4.8 7.7.9 24.4c-8.4 35.3-.5 45.7-.5 45.7l35-9.3s-6-14.4 1.2-41.5c4.9-18.6-1.6-28.7-1.6-28.7z" data-name="Path 256765"/><path fill="#dddddc" d="M-8383.4-3764.5l-6.6 72.1-35 9.4 6.7-72.1z" data-name="Path 256766"/><path fill="#ffb900" d="M-8424.8-3753.4s-.2 9 11.5 21.6c24.9 26.3 23.3 39.3 23.3 39.3l-35 9.4s-2-15.4-21.8-35.2c-13.5-13.7-12.9-25.8-12.9-25.8z" data-name="Path 256767"/><path fill="#e85620" d="M-8413.3-3731.8a57 57 0 01-6.5-8.2l-5.1 57 34.9-9.5c.1-1 .6-14-23.3-39.3" data-name="Path 256768"/><path fill="#dddddc" d="M-8315.8-3782.6l-34.3 9.2 17.6 65.6 34.3-9.2a34 34 0 00-17.6-65.6" data-name="Path 256769"/></g></g><g data-name="logo_content"><path fill="#86c9cf" d="M-8099.7-3516.7l41.8 59.2 35-9.4-41.8-59.1z" data-name="Path 256761"/><g data-name="Group 220310"><path fill="#86c9cf" d="M-7939.5-3489.3s-5.3-10.3-.4-34.4a94.7 94.7 0 000-35.8l-35 9.4s5.2 8.4-1.2 41.5c-3.6 18.8 1.6 28.7 1.6 28.7z" data-name="Path 256762"/><path fill="#dddddc" d="M-7931.4-3491.4s-.6-11.6-17-30a94.7 94.7 0 01-17.8-31l35-9.4s-.3 9.8 21.8 35.3c12.5 14.5 13 25.6 13 25.6z" data-name="Path 256763"/><path fill="#ffb900" d="M-7941.5-3512.8c.3-3.3.9-6.9 1.6-10.9a94.7 94.7 0 000-35.8l-26.2 7a94.7 94.7 0 0017.8 31c2.7 3.1 5 6 6.9 8.6" data-name="Path 256764"/><path fill="#86c9cf" d="M-8058.3-3527.8s4.7 7.8.8 24.5c-8.3 35.3-.4 45.7-.4 45.7l35-9.3s-6-14.4 1.1-41.5c5-18.6-1.5-28.7-1.5-28.7z" data-name="Path 256765"/><path fill="#dddddc" d="M-8064.7-3526l-6.6 72-35 9.5 6.6-72.2z" data-name="Path 256766"/><path fill="#ffb900" d="M-8106.1-3515s-.3 9.1 11.5 21.7c24.9 26.3 23.3 39.3 23.3 39.3l-35 9.4s-2-15.4-21.8-35.3c-13.5-13.7-12.9-25.7-12.9-25.7z" data-name="Path 256767"/><path fill="#e85620" d="M-8094.6-3493.3a57 57 0 01-6.5-8.3l-5.2 57 35-9.4c0-1 .6-14-23.3-39.3" data-name="Path 256768"/><path fill="#dddddc" d="M-7997.2-3544.2l-34.2 9.2 17.6 65.7 34.2-9.2a34 34 0 00-17.6-65.7" data-name="Path 256769"/></g></g><g data-name="logo_content"><path fill="#86c9cf" d="M-8180.7-3818.9l41.8 59.2 35-9.4-41.9-59.1z" data-name="Path 256761"/><g data-name="Group 220310"><path fill="#86c9cf" d="M-8020.5-3791.5s-5.3-10.3-.4-34.4a94.7 94.7 0 000-35.8l-35 9.4s5.1 8.4-1.2 41.5c-3.6 18.9 1.5 28.7 1.5 28.7z" data-name="Path 256762"/><path fill="#dddddc" d="M-8012.4-3793.6s-.7-11.6-17-30a94.7 94.7 0 01-17.8-31l35-9.4s-.3 9.8 21.7 35.3c12.6 14.5 13 25.6 13 25.6z" data-name="Path 256763"/><path fill="#ffb900" d="M-8022.5-3815c.3-3.3.8-6.9 1.6-10.9a94.7 94.7 0 000-35.8l-26.2 7a94.7 94.7 0 0017.8 31c2.7 3.1 5 6 6.9 8.7" data-name="Path 256764"/><path fill="#86c9cf" d="M-8139.3-3830s4.7 7.8.8 24.5c-8.3 35.3-.4 45.7-.4 45.7l35-9.3s-6-14.4 1.1-41.5c5-18.6-1.6-28.7-1.6-28.7z" data-name="Path 256765"/><path fill="#dddddc" d="M-8145.8-3828.2l-6.5 72-35 9.5 6.6-72.2z" data-name="Path 256766"/><path fill="#ffb900" d="M-8187.1-3817.1s-.3 9 11.5 21.6c24.8 26.3 23.2 39.3 23.2 39.3l-35 9.4s-1.9-15.4-21.7-35.3c-13.5-13.7-13-25.7-13-25.7z" data-name="Path 256767"/><path fill="#e85620" d="M-8175.6-3795.5a57 57 0 01-6.5-8.3l-5.2 57 35-9.4c0-1 .5-14-23.3-39.3" data-name="Path 256768"/><path fill="#dddddc" d="M-8078.2-3846.4l-34.3 9.2 17.6 65.7 34.3-9.2a34 34 0 00-17.6-65.7" data-name="Path 256769"/></g></g><g data-name="logo_content"><path fill="#86c9cf" d="M-7862-3580.5l41.7 59.2 35-9.4-41.8-59.2z" data-name="Path 256761"/><g data-name="Group 220310"><path fill="#86c9cf" d="M-7701.9-3553s-5.2-10.4-.4-34.5a94.7 94.7 0 000-35.8l-35 9.4s5.2 8.3-1.2 41.4c-3.6 19 1.6 28.7 1.6 28.7z" data-name="Path 256762"/><path fill="#dddddc" d="M-7693.8-3555.2s-.6-11.6-17-30a94.7 94.7 0 01-17.8-31l35-9.5s-.3 9.9 21.8 35.4c12.5 14.5 13 25.6 13 25.6z" data-name="Path 256763"/><path fill="#ffb900" d="M-7704-3576.6c.4-3.3 1-7 1.7-10.9a94.7 94.7 0 000-35.8l-26.2 7a94.7 94.7 0 0017.8 31c2.7 3.1 5 6 6.9 8.6" data-name="Path 256764"/><path fill="#86c9cf" d="M-7820.7-3591.6s4.8 7.7.8 24.5c-8.3 35.2-.4 45.7-.4 45.7l35-9.4s-6-14.3 1.1-41.4c5-18.6-1.5-28.8-1.5-28.8z" data-name="Path 256765"/><path fill="#dddddc" d="M-7827.1-3589.9l-6.6 72.2-35 9.3 6.6-72z" data-name="Path 256766"/><path fill="#ffb900" d="M-7868.5-3578.8s-.3 9 11.5 21.6c24.9 26.4 23.3 39.4 23.3 39.4l-35 9.4s-2-15.5-21.8-35.3c-13.5-13.7-12.9-25.7-12.9-25.7z" data-name="Path 256767"/><path fill="#e85620" d="M-7857-3557.2a57 57 0 01-6.5-8.2l-5.2 57 35-9.4c0-1 .6-14-23.3-39.4" data-name="Path 256768"/><path fill="#dddddc" d="M-7759.5-3608l-34.3 9.2 17.6 65.6 34.3-9.1a34 34 0 00-17.6-65.7" data-name="Path 256769"/></g></g><g data-name="logo_content"><path fill="#86c9cf" d="M-7943-3882.7l41.7 59.2 35-9.4-41.8-59.2z" data-name="Path 256761"/><g data-name="Group 220310"><path fill="#86c9cf" d="M-7783-3855.3s-5.2-10.3-.3-34.4a94.7 94.7 0 000-35.8l-35 9.4s5.2 8.3-1.2 41.5c-3.6 18.8 1.6 28.6 1.6 28.6z" data-name="Path 256762"/><path fill="#dddddc" d="M-7774.8-3857.4s-.7-11.6-17-30a94.7 94.7 0 01-17.8-31l35-9.5s-.3 9.9 21.8 35.4c12.5 14.5 13 25.6 13 25.6z" data-name="Path 256763"/><path fill="#ffb900" d="M-7785-3878.8c.4-3.3 1-7 1.7-10.9a94.7 94.7 0 000-35.8l-26.2 7a94.7 94.7 0 0017.8 31c2.7 3.1 5 6 6.9 8.6" data-name="Path 256764"/><path fill="#86c9cf" d="M-7901.7-3893.8s4.7 7.7.8 24.5c-8.3 35.2-.4 45.7-.4 45.7l35-9.4s-6-14.3 1.1-41.4c5-18.6-1.6-28.7-1.6-28.7z" data-name="Path 256765"/><path fill="#dddddc" d="M-7908.1-3892l-6.6 72-35 9.4 6.6-72z" data-name="Path 256766"/><path fill="#ffb900" d="M-7949.5-3881s-.3 9.1 11.5 21.6c24.8 26.4 23.2 39.4 23.2 39.4l-34.9 9.4s-2-15.5-21.8-35.3c-13.5-13.7-13-25.7-13-25.7z" data-name="Path 256767"/><path fill="#e85620" d="M-7938-3859.4a57 57 0 01-6.5-8.2l-5.2 57 35-9.4c0-1 .5-14-23.3-39.4" data-name="Path 256768"/><path fill="#dddddc" d="M-7840.6-3910.2l-34.2 9.2 17.6 65.7 34.2-9.2a34 34 0 00-17.6-65.7" data-name="Path 256769"/></g></g><g data-name="logo_content"><path fill="#86c9cf" d="M-8833-3402l41.7 59.1 35-9.3-41.8-59.2z" data-name="Path 256761"/><g data-name="Group 220310"><path fill="#86c9cf" d="M-8673-3374.6s-5.2-10.3-.3-34.4a94.7 94.7 0 000-35.8l-35 9.3s5.2 8.4-1.2 41.5c-3.6 19 1.6 28.7 1.6 28.7z" data-name="Path 256762"/><path fill="#dddddc" d="M-8664.8-3376.8s-.7-11.5-17-30a94.7 94.7 0 01-17.8-31l35-9.4s-.3 9.9 21.8 35.4c12.5 14.5 13 25.6 13 25.6z" data-name="Path 256763"/><path fill="#ffb900" d="M-8675-3398.2c.4-3.2 1-6.8 1.7-10.8a94.7 94.7 0 000-35.8l-26.2 7a94.7 94.7 0 0017.8 31c2.7 3.1 5 6 6.9 8.6" data-name="Path 256764"/><path fill="#86c9cf" d="M-8791.7-3413.1s4.7 7.7.8 24.5c-8.3 35.2-.4 45.7-.4 45.7l35-9.4s-6-14.3 1.1-41.4c5-18.6-1.6-28.8-1.6-28.8z" data-name="Path 256765"/><path fill="#dddddc" d="M-8798.1-3411.4l-6.6 72.2-35 9.3 6.6-72.1z" data-name="Path 256766"/><path fill="#ffb900" d="M-8839.5-3400.3s-.3 9 11.5 21.6c24.8 26.4 23.2 39.4 23.2 39.4l-34.9 9.4s-2-15.5-21.8-35.3c-13.5-13.7-13-25.7-13-25.7z" data-name="Path 256767"/><path fill="#e85620" d="M-8828-3378.7a57 57 0 01-6.5-8.2l-5.2 57 35-9.4c0-1 .6-14-23.3-39.4" data-name="Path 256768"/><path fill="#dddddc" d="M-8730.6-3429.5l-34.2 9.2 17.6 65.6 34.2-9.2a34 34 0 00-17.6-65.6" data-name="Path 256769"/></g></g><g data-name="logo_content"><path fill="#86c9cf" d="M-8914.1-3704.2l41.8 59.2 35-9.4-41.9-59.2z" data-name="Path 256761"/><g data-name="Group 220310"><path fill="#86c9cf" d="M-8754-3676.8s-5.2-10.3-.3-34.4a94.7 94.7 0 00-.1-35.8l-35 9.4s5.2 8.3-1.1 41.4c-3.6 19 1.5 28.7 1.5 28.7z" data-name="Path 256762"/><path fill="#dddddc" d="M-8745.9-3679s-.6-11.5-16.9-30a94.7 94.7 0 01-17.8-31l35-9.4s-.3 9.9 21.7 35.4c12.6 14.5 13 25.6 13 25.6z" data-name="Path 256763"/><path fill="#ffb900" d="M-8756-3700.3c.4-3.3 1-7 1.7-11a94.7 94.7 0 00-.1-35.7l-26.1 7a94.7 94.7 0 0017.8 31c2.6 3.1 5 6 6.9 8.6" data-name="Path 256764"/><path fill="#86c9cf" d="M-8872.7-3715.3s4.7 7.7.8 24.5c-8.3 35.2-.4 45.7-.4 45.7l34.9-9.4s-6-14.3 1.2-41.4c5-18.6-1.6-28.8-1.6-28.8z" data-name="Path 256765"/><path fill="#dddddc" d="M-8879.2-3713.6l-6.6 72.2-34.9 9.3 6.6-72.1z" data-name="Path 256766"/><path fill="#ffb900" d="M-8920.6-3702.5s-.2 9 11.6 21.6c24.8 26.4 23.2 39.4 23.2 39.4l-35 9.4s-1.9-15.5-21.7-35.3c-13.6-13.7-13-25.7-13-25.7z" data-name="Path 256767"/><path fill="#e85620" d="M-8909-3680.9a57 57 0 01-6.5-8.2l-5.2 57 35-9.4c0-1 .5-14-23.3-39.4" data-name="Path 256768"/><path fill="#dddddc" d="M-8811.6-3731.7l-34.3 9.2 17.6 65.6 34.3-9.2a34 34 0 00-17.6-65.6" data-name="Path 256769"/></g></g><g data-name="logo_content"><path fill="#86c9cf" d="M-8595.5-3465.7l41.8 59.1 35-9.3-41.8-59.2z" data-name="Path 256761"/><g data-name="Group 220310"><path fill="#86c9cf" d="M-8435.3-3438.3s-5.2-10.3-.4-34.4a94.7 94.7 0 000-35.8l-35 9.3s5.2 8.4-1.2 41.5c-3.6 18.9 1.6 28.7 1.6 28.7z" data-name="Path 256762"/><path fill="#dddddc" d="M-8427.2-3440.5s-.6-11.5-16.9-30a94.7 94.7 0 01-17.8-31l35-9.4s-.4 9.9 21.7 35.3c12.6 14.6 13 25.7 13 25.7z" data-name="Path 256763"/><path fill="#ffb900" d="M-8437.3-3461.9c.4-3.3.9-6.8 1.6-10.8a94.7 94.7 0 000-35.8l-26.2 7a94.7 94.7 0 0017.9 31c2.6 3 4.9 6 6.8 8.6" data-name="Path 256764"/><path fill="#86c9cf" d="M-8554-3476.8s4.7 7.7.8 24.5c-8.4 35.2-.5 45.7-.5 45.7l35-9.4s-6-14.3 1.2-41.4c4.9-18.7-1.6-28.8-1.6-28.8z" data-name="Path 256765"/><path fill="#dddddc" d="M-8560.5-3475l-6.6 72-35 9.4 6.6-72.1z" data-name="Path 256766"/><path fill="#ffb900" d="M-8601.9-3464s-.2 9 11.5 21.6c24.9 26.4 23.3 39.4 23.3 39.4l-35 9.3s-2-15.4-21.8-35.2c-13.5-13.7-12.9-25.7-12.9-25.7z" data-name="Path 256767"/><path fill="#e85620" d="M-8590.4-3442.4a57 57 0 01-6.5-8.2l-5.2 57 35-9.4c0-1 .6-14-23.3-39.4" data-name="Path 256768"/><path fill="#dddddc" d="M-8493-3493.2l-34.2 9.2 17.6 65.6 34.3-9.2a34 34 0 00-17.6-65.6" data-name="Path 256769"/></g></g><g data-name="logo_content"><path fill="#86c9cf" d="M-8676.5-3768l41.8 59.2 35-9.3-41.8-59.2z" data-name="Path 256761"/><g data-name="Group 220310"><path fill="#86c9cf" d="M-8516.3-3740.5s-5.3-10.3-.4-34.4a94.7 94.7 0 000-35.8l-35 9.3s5.2 8.4-1.2 41.5c-3.6 18.9 1.6 28.7 1.6 28.7z" data-name="Path 256762"/><path fill="#dddddc" d="M-8508.2-3742.7s-.6-11.5-17-30a94.7 94.7 0 01-17.8-31l35-9.4s-.3 9.9 21.8 35.4c12.5 14.5 13 25.6 13 25.6z" data-name="Path 256763"/><path fill="#ffb900" d="M-8518.3-3764c.3-3.4.9-7 1.6-11a94.7 94.7 0 000-35.7l-26.2 7a94.7 94.7 0 0017.8 31c2.7 3 5 6 6.9 8.6" data-name="Path 256764"/><path fill="#86c9cf" d="M-8635-3779s4.6 7.7.7 24.5c-8.3 35.2-.4 45.7-.4 45.7l35-9.4s-6-14.3 1.1-41.4c5-18.7-1.5-28.8-1.5-28.8z" data-name="Path 256765"/><path fill="#dddddc" d="M-8641.5-3777.3l-6.6 72.1-35 9.4 6.6-72.1z" data-name="Path 256766"/><path fill="#ffb900" d="M-8683-3766.2s-.2 9 11.6 21.6c24.9 26.4 23.3 39.4 23.3 39.4l-35 9.3s-2-15.4-21.8-35.2c-13.5-13.7-12.9-25.7-12.9-25.7z" data-name="Path 256767"/><path fill="#e85620" d="M-8671.4-3744.6a57 57 0 01-6.5-8.2l-5.2 57 35-9.4c0-1 .6-14-23.3-39.4" data-name="Path 256768"/><path fill="#dddddc" d="M-8574-3795.4l-34.2 9.2 17.6 65.6 34.2-9.2a34 34 0 00-17.6-65.6" data-name="Path 256769"/></g></g><g data-name="logo_content"><path fill="#86c9cf" d="M-8357.8-3529.4l41.8 59.1 35-9.3-41.9-59.2z" data-name="Path 256761"/><g data-name="Group 220310"><path fill="#86c9cf" d="M-8197.6-3502s-5.3-10.3-.4-34.4a94.7 94.7 0 00-.1-35.8l-35 9.3s5.2 8.4-1.1 41.5c-3.6 18.9 1.5 28.7 1.5 28.7z" data-name="Path 256762"/><path fill="#dddddc" d="M-8189.6-3504.2s-.6-11.5-16.9-30a94.7 94.7 0 01-17.8-31l35-9.4s-.3 9.9 21.7 35.3c12.6 14.6 13 25.7 13 25.7z" data-name="Path 256763"/><path fill="#ffb900" d="M-8199.7-3525.6c.4-3.3 1-6.9 1.7-10.8a94.7 94.7 0 00-.1-35.8l-26.1 7a94.7 94.7 0 0017.8 31c2.6 3 4.9 6 6.9 8.6" data-name="Path 256764"/><path fill="#86c9cf" d="M-8316.4-3540.5s4.7 7.7.8 24.4c-8.3 35.3-.4 45.8-.4 45.8l34.9-9.4s-6-14.4 1.2-41.4c4.9-18.7-1.6-28.8-1.6-28.8z" data-name="Path 256765"/><path fill="#dddddc" d="M-8322.9-3538.8l-6.6 72.1-35 9.4 6.7-72.1z" data-name="Path 256766"/><path fill="#ffb900" d="M-8364.3-3527.7s-.2 9 11.6 21.6c24.8 26.4 23.2 39.4 23.2 39.4l-35 9.3s-2-15.4-21.8-35.2c-13.5-13.7-12.8-25.7-12.8-25.7z" data-name="Path 256767"/><path fill="#e85620" d="M-8352.7-3506.1a57 57 0 01-6.5-8.2l-5.2 57 35-9.4c0-1.1.5-14-23.3-39.4" data-name="Path 256768"/><path fill="#dddddc" d="M-8255.3-3557l-34.3 9.3 17.6 65.6 34.3-9.2a34 34 0 00-17.6-65.6" data-name="Path 256769"/></g></g><g data-name="logo_content"><path fill="#86c9cf" d="M-8438.8-3831.6l41.7 59.1 35-9.3-41.8-59.2z" data-name="Path 256761"/><g data-name="Group 220310"><path fill="#86c9cf" d="M-8278.7-3804.2s-5.2-10.3-.3-34.4a94.7 94.7 0 00-.1-35.8l-35 9.3s5.2 8.4-1.2 41.5c-3.6 18.9 1.6 28.7 1.6 28.7z" data-name="Path 256762"/><path fill="#dddddc" d="M-8270.6-3806.4s-.6-11.5-16.9-30a94.7 94.7 0 01-17.8-31l35-9.4s-.4 9.9 21.7 35.3c12.6 14.6 13 25.7 13 25.7z" data-name="Path 256763"/><path fill="#ffb900" d="M-8280.7-3827.8c.4-3.3.9-6.9 1.7-10.8a94.7 94.7 0 00-.1-35.8l-26.2 7a94.7 94.7 0 0017.9 31c2.6 3 4.9 6 6.8 8.6" data-name="Path 256764"/><path fill="#86c9cf" d="M-8397.5-3842.7s4.8 7.7.9 24.4c-8.4 35.3-.5 45.8-.5 45.8l35-9.4s-6-14.4 1.2-41.4c4.9-18.7-1.6-28.8-1.6-28.8z" data-name="Path 256765"/><path fill="#dddddc" d="M-8403.9-3841l-6.6 72.1-35 9.4 6.7-72.1z" data-name="Path 256766"/><path fill="#ffb900" d="M-8445.3-3829.9s-.2 9 11.5 21.6c24.9 26.4 23.3 39.4 23.3 39.4l-35 9.3s-2-15.4-21.8-35.2c-13.5-13.7-12.9-25.7-12.9-25.7z" data-name="Path 256767"/><path fill="#e85620" d="M-8433.8-3808.3a57 57 0 01-6.5-8.2l-5.1 57 34.9-9.4c.1-1.1.6-14-23.3-39.4" data-name="Path 256768"/><path fill="#dddddc" d="M-8336.3-3859.1l-34.3 9.2 17.6 65.6 34.3-9.2a34 34 0 00-17.6-65.6" data-name="Path 256769"/></g></g><g data-name="logo_content"><path fill="#86c9cf" d="M-8120.2-3593.1l41.8 59.1 35-9.4-41.8-59.1z" data-name="Path 256761"/><g data-name="Group 220310"><path fill="#86c9cf" d="M-7960-3565.7s-5.3-10.4-.4-34.5a94.7 94.7 0 000-35.8l-35 9.4s5.2 8.4-1.2 41.5c-3.6 18.9 1.6 28.7 1.6 28.7z" data-name="Path 256762"/><path fill="#dddddc" d="M-7952-3567.9s-.6-11.6-16.8-30a94.7 94.7 0 01-17.9-31l35-9.4s-.3 9.8 21.8 35.3c12.5 14.6 13 25.7 13 25.7z" data-name="Path 256763"/><path fill="#ffb900" d="M-7962-3589.3c.3-3.3.9-6.9 1.6-10.9a94.7 94.7 0 000-35.8l-26.2 7a94.7 94.7 0 0017.8 31c2.7 3.2 5 6 6.9 8.7" data-name="Path 256764"/><path fill="#86c9cf" d="M-8078.8-3604.2s4.7 7.7.8 24.4c-8.3 35.3-.4 45.7-.4 45.7l35-9.3s-6-14.4 1.1-41.5c5-18.6-1.6-28.7-1.6-28.7z" data-name="Path 256765"/><path fill="#dddddc" d="M-8085.2-3602.5l-6.6 72.1-35 9.4 6.6-72.1z" data-name="Path 256766"/><path fill="#ffb900" d="M-8126.6-3591.4s-.3 9 11.5 21.6c24.9 26.3 23.3 39.3 23.3 39.3l-35 9.4s-2-15.4-21.8-35.2c-13.5-13.7-13-25.8-13-25.8z" data-name="Path 256767"/><path fill="#e85620" d="M-8115.1-3569.8a57 57 0 01-6.5-8.2l-5.2 57 35-9.5c0-1 .6-14-23.3-39.3" data-name="Path 256768"/><path fill="#dddddc" d="M-8017.7-3620.6l-34.2 9.2 17.6 65.6 34.2-9.2a34 34 0 00-17.6-65.6" data-name="Path 256769"/></g></g><g data-name="logo_content"><path fill="#86c9cf" d="M-8201.2-3895.3l41.8 59.1 35-9.4-41.9-59.1z" data-name="Path 256761"/><g data-name="Group 220310"><path fill="#86c9cf" d="M-8041-3868s-5.3-10.2-.4-34.4a94.7 94.7 0 00-.1-35.8l-35 9.4s5.2 8.4-1.1 41.5c-3.6 18.9 1.5 28.7 1.5 28.7z" data-name="Path 256762"/><path fill="#dddddc" d="M-8033-3870.1s-.6-11.6-16.9-30a94.7 94.7 0 01-17.8-31l35-9.4s-.3 9.8 21.7 35.3c12.6 14.6 13 25.7 13 25.7z" data-name="Path 256763"/><path fill="#ffb900" d="M-8043-3891.5c.3-3.3.8-6.9 1.6-10.9a94.7 94.7 0 00-.1-35.8l-26.1 7a94.7 94.7 0 0017.8 31c2.7 3.2 5 6 6.9 8.7" data-name="Path 256764"/><path fill="#86c9cf" d="M-8159.8-3906.4s4.7 7.7.8 24.4c-8.3 35.3-.4 45.7-.4 45.7l35-9.3s-6-14.4 1.1-41.4c5-18.7-1.6-28.8-1.6-28.8z" data-name="Path 256765"/><path fill="#dddddc" d="M-8166.3-3904.7l-6.6 72.1-34.9 9.4 6.6-72.1z" data-name="Path 256766"/><path fill="#ffb900" d="M-8207.6-3893.6s-.3 9 11.5 21.6c24.8 26.4 23.2 39.4 23.2 39.4l-35 9.3s-1.9-15.4-21.7-35.2c-13.5-13.7-13-25.8-13-25.8z" data-name="Path 256767"/><path fill="#e85620" d="M-8196.1-3872a57 57 0 01-6.5-8.2l-5.2 57 35-9.4c0-1.1.5-14-23.3-39.4" data-name="Path 256768"/><path fill="#dddddc" d="M-8098.7-3922.8l-34.3 9.2 17.6 65.6 34.3-9.2a34 34 0 00-17.6-65.6" data-name="Path 256769"/></g></g><g data-name="logo_content"><path fill="#86c9cf" d="M-7882.5-3656.8l41.8 59.1 34.9-9.3-41.8-59.2z" data-name="Path 256761"/><g data-name="Group 220310"><path fill="#86c9cf" d="M-7722.4-3629.4s-5.2-10.3-.3-34.4a94.7 94.7 0 00-.1-35.8l-35 9.3s5.2 8.4-1.2 41.5c-3.6 19 1.6 28.7 1.6 28.7z" data-name="Path 256762"/><path fill="#dddddc" d="M-7714.3-3631.6s-.6-11.5-16.9-30a94.7 94.7 0 01-17.8-31l35-9.4s-.4 9.9 21.7 35.4c12.6 14.5 13 25.6 13 25.6z" data-name="Path 256763"/><path fill="#ffb900" d="M-7724.4-3653c.4-3.2 1-6.8 1.7-10.8a94.7 94.7 0 00-.1-35.8l-26.2 7a94.7 94.7 0 0017.9 31c2.6 3.1 4.9 6 6.8 8.6" data-name="Path 256764"/><path fill="#86c9cf" d="M-7841.1-3667.9s4.7 7.7.8 24.5c-8.3 35.2-.5 45.7-.5 45.7l35-9.4s-6-14.3 1.2-41.4c4.9-18.7-1.6-28.8-1.6-28.8z" data-name="Path 256765"/><path fill="#dddddc" d="M-7847.6-3666.2l-6.6 72.1-35 9.4 6.7-72.1z" data-name="Path 256766"/><path fill="#ffb900" d="M-7889-3655s-.2 9 11.6 21.5c24.8 26.4 23.2 39.4 23.2 39.4l-35 9.4s-2-15.5-21.8-35.3c-13.5-13.7-12.9-25.7-12.9-25.7z" data-name="Path 256767"/><path fill="#e85620" d="M-7877.4-3633.5a57 57 0 01-6.6-8.2l-5.1 57 35-9.4c0-1 .5-14-23.3-39.4" data-name="Path 256768"/><path fill="#dddddc" d="M-7780-3684.3l-34.3 9.2 17.6 65.6 34.3-9.2a34 34 0 00-17.6-65.6" data-name="Path 256769"/></g></g><g data-name="logo_content"><path fill="#86c9cf" d="M-7963.6-3959l41.8 59.2 35-9.4-41.8-59.2z" data-name="Path 256761"/><g data-name="Group 220310"><path fill="#86c9cf" d="M-7803.4-3931.6s-5.2-10.3-.4-34.4a94.7 94.7 0 000-35.8l-35 9.4s5.2 8.3-1.2 41.4c-3.6 19 1.6 28.7 1.6 28.7z" data-name="Path 256762"/><path fill="#dddddc" d="M-7795.3-3933.8s-.6-11.5-16.9-30a94.7 94.7 0 01-17.8-31l35-9.4s-.4 9.9 21.7 35.4c12.6 14.5 13 25.6 13 25.6z" data-name="Path 256763"/><path fill="#ffb900" d="M-7805.4-3955.2c.4-3.2.9-6.8 1.6-10.8a94.7 94.7 0 000-35.8l-26.2 7a94.7 94.7 0 0017.9 31c2.6 3.1 4.9 6 6.8 8.6" data-name="Path 256764"/><path fill="#86c9cf" d="M-7922.2-3970s4.8 7.6.9 24.4c-8.4 35.2-.5 45.7-.5 45.7l35-9.4s-6-14.3 1.2-41.4c4.9-18.6-1.6-28.8-1.6-28.8z" data-name="Path 256765"/><path fill="#dddddc" d="M-7928.6-3968.4l-6.6 72.2-35 9.3 6.6-72.1z" data-name="Path 256766"/><path fill="#ffb900" d="M-7970-3957.3s-.2 9 11.5 21.6c24.9 26.4 23.3 39.4 23.3 39.4l-35 9.4s-2-15.5-21.8-35.3c-13.5-13.7-12.9-25.7-12.9-25.7z" data-name="Path 256767"/><path fill="#e85620" d="M-7958.5-3935.7a57 57 0 01-6.5-8.2l-5.2 57 35-9.4c0-1 .6-14-23.3-39.4" data-name="Path 256768"/><path fill="#dddddc" d="M-7861-3986.5l-34.3 9.2 17.6 65.6 34.3-9.2a34 34 0 00-17.6-65.6" data-name="Path 256769"/></g></g><g data-name="logo_content"><path fill="#86c9cf" d="M-8853.2-3477.2l41.7 59.2 35-9.4-41.8-59.2z" data-name="Path 256761"/><g data-name="Group 220310"><path fill="#86c9cf" d="M-8693-3449.8s-5.3-10.3-.5-34.4a94.7 94.7 0 000-35.8l-35 9.4s5.2 8.3-1.2 41.4c-3.6 19 1.6 28.7 1.6 28.7z" data-name="Path 256762"/><path fill="#dddddc" d="M-8685-3452s-.6-11.5-16.9-30a94.7 94.7 0 01-17.8-31l35-9.4s-.4 9.9 21.7 35.4c12.6 14.5 13 25.6 13 25.6z" data-name="Path 256763"/><path fill="#ffb900" d="M-8695.1-3473.3c.4-3.3.9-7 1.6-10.9a94.7 94.7 0 000-35.8l-26.2 7a94.7 94.7 0 0017.9 31c2.6 3.1 4.9 6 6.8 8.6" data-name="Path 256764"/><path fill="#86c9cf" d="M-8811.9-3488.3s4.8 7.7.9 24.5c-8.4 35.2-.5 45.7-.5 45.7l35-9.4s-6-14.3 1.2-41.4c4.9-18.6-1.6-28.8-1.6-28.8z" data-name="Path 256765"/><path fill="#dddddc" d="M-8818.3-3486.6l-6.6 72.2-35 9.3 6.7-72z" data-name="Path 256766"/><path fill="#ffb900" d="M-8859.7-3475.5s-.2 9.1 11.5 21.6c24.9 26.4 23.3 39.4 23.3 39.4l-35 9.4s-2-15.5-21.8-35.3c-13.5-13.7-12.9-25.7-12.9-25.7z" data-name="Path 256767"/><path fill="#e85620" d="M-8848.2-3453.9a57 57 0 01-6.5-8.2l-5.2 57 35-9.4c0-1 .6-14-23.3-39.4" data-name="Path 256768"/><path fill="#dddddc" d="M-8750.7-3504.7l-34.3 9.2 17.6 65.6 34.3-9.1a34 34 0 00-17.6-65.7" data-name="Path 256769"/></g></g><g data-name="logo_content"><path fill="#86c9cf" d="M-8934.3-3779.4l41.8 59.2 35-9.4-41.8-59.2z" data-name="Path 256761"/><g data-name="Group 220310"><path fill="#86c9cf" d="M-8774.1-3752s-5.2-10.3-.4-34.4a94.7 94.7 0 000-35.8l-35 9.4s5.2 8.3-1.2 41.5c-3.6 18.8 1.6 28.7 1.6 28.7z" data-name="Path 256762"/><path fill="#dddddc" d="M-8766-3754.1s-.6-11.6-17-30a94.7 94.7 0 01-17.8-31l35-9.5s-.3 9.9 21.8 35.4c12.5 14.5 13 25.6 13 25.6z" data-name="Path 256763"/><path fill="#ffb900" d="M-8776.1-3775.5c.3-3.3.9-7 1.6-10.9a94.7 94.7 0 000-35.8l-26.2 7a94.7 94.7 0 0017.8 31c2.7 3.1 5 6 6.9 8.6" data-name="Path 256764"/><path fill="#86c9cf" d="M-8892.9-3790.5s4.8 7.7.8 24.5c-8.3 35.3-.4 45.7-.4 45.7l35-9.4s-6-14.3 1.1-41.4c5-18.6-1.5-28.7-1.5-28.7z" data-name="Path 256765"/><path fill="#dddddc" d="M-8899.3-3788.8l-6.6 72.2-35 9.3 6.6-72z" data-name="Path 256766"/><path fill="#ffb900" d="M-8940.7-3777.7s-.3 9.1 11.5 21.6c24.9 26.4 23.3 39.4 23.3 39.4l-35 9.4s-2-15.5-21.8-35.3c-13.5-13.7-12.9-25.7-12.9-25.7z" data-name="Path 256767"/><path fill="#e85620" d="M-8929.2-3756a57 57 0 01-6.5-8.3l-5.2 57 35-9.4c0-1 .6-14-23.3-39.4" data-name="Path 256768"/><path fill="#dddddc" d="M-8831.7-3806.9l-34.3 9.2 17.6 65.7 34.2-9.2a34 34 0 00-17.5-65.7" data-name="Path 256769"/></g></g><g data-name="logo_content"><path fill="#86c9cf" d="M-8615.6-3540.9l41.8 59.1 35-9.3-41.9-59.2z" data-name="Path 256761"/><g data-name="Group 220310"><path fill="#86c9cf" d="M-8455.4-3513.5s-5.3-10.3-.4-34.4a94.7 94.7 0 00-.1-35.8l-35 9.3s5.2 8.4-1.1 41.5c-3.6 19 1.5 28.7 1.5 28.7z" data-name="Path 256762"/><path fill="#dddddc" d="M-8447.4-3515.7s-.6-11.5-16.9-30a94.7 94.7 0 01-17.8-31l35-9.4s-.3 9.9 21.7 35.4c12.6 14.5 13 25.6 13 25.6z" data-name="Path 256763"/><path fill="#ffb900" d="M-8457.5-3537c.4-3.3 1-7 1.7-11a94.7 94.7 0 00-.1-35.7l-26.1 7a94.7 94.7 0 0017.8 31c2.6 3.1 5 6 6.9 8.6" data-name="Path 256764"/><path fill="#86c9cf" d="M-8574.2-3552s4.7 7.7.8 24.5c-8.3 35.2-.4 45.7-.4 45.7l34.9-9.4s-6-14.3 1.2-41.4c5-18.7-1.6-28.8-1.6-28.8z" data-name="Path 256765"/><path fill="#dddddc" d="M-8580.7-3550.3l-6.6 72.1-34.9 9.4 6.6-72.1z" data-name="Path 256766"/><path fill="#ffb900" d="M-8622-3539.2s-.3 9 11.5 21.6c24.8 26.4 23.2 39.4 23.2 39.4l-35 9.4s-1.9-15.5-21.7-35.3c-13.6-13.7-13-25.7-13-25.7z" data-name="Path 256767"/><path fill="#e85620" d="M-8610.5-3517.6a57 57 0 01-6.5-8.2l-5.2 57 35-9.4c0-1 .5-14-23.3-39.4" data-name="Path 256768"/><path fill="#dddddc" d="M-8513-3568.4l-34.4 9.2 17.6 65.6 34.3-9.2a34 34 0 00-17.6-65.6" data-name="Path 256769"/></g></g><g data-name="logo_content"><path fill="#86c9cf" d="M-8696.6-3843.1l41.8 59.2 34.9-9.4-41.8-59.2z" data-name="Path 256761"/><g data-name="Group 220310"><path fill="#86c9cf" d="M-8536.5-3815.7s-5.2-10.3-.3-34.4a94.7 94.7 0 00-.1-35.8l-35 9.4s5.2 8.3-1.2 41.4c-3.6 19 1.6 28.7 1.6 28.7z" data-name="Path 256762"/><path fill="#dddddc" d="M-8528.4-3817.9s-.6-11.5-16.9-30a94.7 94.7 0 01-17.8-31l35-9.4s-.4 9.9 21.7 35.4c12.6 14.5 13 25.6 13 25.6z" data-name="Path 256763"/><path fill="#ffb900" d="M-8538.5-3839.2c.4-3.3 1-7 1.7-11a94.7 94.7 0 00-.1-35.7l-26.2 7a94.7 94.7 0 0017.9 31c2.6 3.1 4.9 6 6.8 8.6" data-name="Path 256764"/><path fill="#86c9cf" d="M-8655.2-3854.2s4.7 7.7.8 24.5c-8.4 35.2-.5 45.7-.5 45.7l35-9.4s-6-14.3 1.2-41.4c4.9-18.6-1.6-28.8-1.6-28.8z" data-name="Path 256765"/><path fill="#dddddc" d="M-8661.7-3852.5l-6.6 72.2-35 9.3 6.7-72.1z" data-name="Path 256766"/><path fill="#ffb900" d="M-8703-3841.4s-.3 9 11.4 21.6c24.9 26.4 23.3 39.4 23.3 39.4l-35 9.4s-2-15.5-21.8-35.3c-13.5-13.7-12.9-25.7-12.9-25.7z" data-name="Path 256767"/><path fill="#e85620" d="M-8691.6-3819.8a57 57 0 01-6.5-8.2l-5.1 57 34.9-9.4c.1-1 .6-14-23.3-39.4" data-name="Path 256768"/><path fill="#dddddc" d="M-8594.1-3870.6l-34.3 9.2 17.6 65.6 34.3-9.2a34 34 0 00-17.6-65.6" data-name="Path 256769"/></g></g><g data-name="logo_content"><path fill="#86c9cf" d="M-8378-3604.6l41.8 59.1 35-9.3-41.8-59.2z" data-name="Path 256761"/><g data-name="Group 220310"><path fill="#86c9cf" d="M-8217.8-3577.2s-5.3-10.3-.4-34.4a94.7 94.7 0 000-35.8l-35 9.3s5.2 8.4-1.2 41.5c-3.6 18.9 1.6 28.7 1.6 28.7z" data-name="Path 256762"/><path fill="#dddddc" d="M-8209.7-3579.4s-.6-11.5-17-30a94.7 94.7 0 01-17.8-31l35-9.4s-.3 9.9 21.8 35.3c12.5 14.6 13 25.7 13 25.7z" data-name="Path 256763"/><path fill="#ffb900" d="M-8219.8-3600.8c.3-3.3.9-6.9 1.6-10.8a94.7 94.7 0 000-35.8l-26.2 7a94.7 94.7 0 0017.8 31c2.7 3 5 6 6.9 8.6" data-name="Path 256764"/><path fill="#86c9cf" d="M-8336.6-3615.7s4.8 7.7.8 24.5c-8.3 35.2-.4 45.7-.4 45.7l35-9.4s-6-14.3 1.1-41.4c5-18.7-1.5-28.8-1.5-28.8z" data-name="Path 256765"/><path fill="#dddddc" d="M-8343-3614l-6.6 72.1-35 9.4 6.6-72.1z" data-name="Path 256766"/><path fill="#ffb900" d="M-8384.4-3602.9s-.3 9 11.5 21.6c24.9 26.4 23.3 39.4 23.3 39.4l-35 9.3s-2-15.4-21.8-35.2c-13.5-13.7-12.9-25.7-12.9-25.7z" data-name="Path 256767"/><path fill="#e85620" d="M-8372.9-3581.3a57 57 0 01-6.5-8.2l-5.2 57 35-9.4c0-1.1.6-14-23.3-39.4" data-name="Path 256768"/><path fill="#dddddc" d="M-8275.5-3632.1l-34.2 9.2 17.6 65.6 34.2-9.2a34 34 0 00-17.6-65.6" data-name="Path 256769"/></g></g><g data-name="logo_content"><path fill="#86c9cf" d="M-8459-3906.8l41.8 59.1 35-9.3-41.9-59.2z" data-name="Path 256761"/><g data-name="Group 220310"><path fill="#86c9cf" d="M-8298.8-3879.4s-5.3-10.3-.4-34.4a94.7 94.7 0 000-35.8l-35 9.3s5.1 8.4-1.2 41.5c-3.6 18.9 1.5 28.7 1.5 28.7z" data-name="Path 256762"/><path fill="#dddddc" d="M-8290.7-3881.6s-.7-11.5-17-30a94.7 94.7 0 01-17.8-31l35-9.4s-.3 9.9 21.7 35.4c12.6 14.5 13 25.6 13 25.6z" data-name="Path 256763"/><path fill="#ffb900" d="M-8300.8-3903c.3-3.3.8-6.8 1.6-10.8a94.7 94.7 0 000-35.8l-26.2 7a94.7 94.7 0 0017.8 31c2.7 3 5 6 6.9 8.6" data-name="Path 256764"/><path fill="#86c9cf" d="M-8417.6-3918s4.7 7.8.8 24.6c-8.3 35.2-.4 45.7-.4 45.7l35-9.4s-6-14.3 1.1-41.4c5-18.7-1.6-28.8-1.6-28.8z" data-name="Path 256765"/><path fill="#dddddc" d="M-8424-3916.2l-6.6 72.1-35 9.4 6.6-72.1z" data-name="Path 256766"/><path fill="#ffb900" d="M-8465.4-3905s-.3 9 11.5 21.5c24.8 26.4 23.2 39.4 23.2 39.4l-35 9.3s-1.9-15.4-21.7-35.2c-13.5-13.7-13-25.7-13-25.7z" data-name="Path 256767"/><path fill="#e85620" d="M-8454-3883.5a57 57 0 01-6.4-8.2l-5.2 57 35-9.4c0-1 .5-14-23.3-39.4" data-name="Path 256768"/><path fill="#dddddc" d="M-8356.5-3934.3l-34.3 9.2 17.6 65.6 34.3-9.2a34 34 0 00-17.6-65.6" data-name="Path 256769"/></g></g><g data-name="logo_content"><path fill="#86c9cf" d="M-8140.3-3668.3l41.7 59.1 35-9.3-41.8-59.2z" data-name="Path 256761"/><g data-name="Group 220310"><path fill="#86c9cf" d="M-7980.2-3641s-5.2-10.2-.3-34.3a94.7 94.7 0 00-.1-35.8l-35 9.3s5.2 8.4-1.2 41.5c-3.6 18.9 1.6 28.7 1.6 28.7z" data-name="Path 256762"/><path fill="#dddddc" d="M-7972-3643s-.7-11.6-17-30a94.7 94.7 0 01-17.8-31.1l35-9.4s-.4 9.9 21.7 35.3c12.6 14.6 13 25.7 13 25.7z" data-name="Path 256763"/><path fill="#ffb900" d="M-7982.2-3664.5c.4-3.3.9-6.9 1.7-10.8a94.7 94.7 0 00-.1-35.8l-26.2 7a94.7 94.7 0 0017.9 31c2.6 3 4.9 6 6.8 8.6" data-name="Path 256764"/><path fill="#86c9cf" d="M-8099-3679.4s4.8 7.7.9 24.4c-8.4 35.3-.5 45.8-.5 45.8l35-9.4s-6-14.4 1.2-41.4c4.9-18.7-1.6-28.8-1.6-28.8z" data-name="Path 256765"/><path fill="#dddddc" d="M-8105.4-3677.7l-6.6 72.1-35 9.4 6.7-72.1z" data-name="Path 256766"/><path fill="#ffb900" d="M-8146.8-3666.6s-.2 9 11.5 21.6c24.9 26.4 23.3 39.4 23.3 39.4l-35 9.3s-2-15.4-21.8-35.2c-13.5-13.7-12.9-25.7-12.9-25.7z" data-name="Path 256767"/><path fill="#e85620" d="M-8135.3-3645a57 57 0 01-6.5-8.2l-5.1 57 34.9-9.4c.1-1.1.6-14-23.3-39.4" data-name="Path 256768"/><path fill="#dddddc" d="M-8037.8-3695.8l-34.3 9.2 17.6 65.6 34.3-9.2a34 34 0 00-17.6-65.6" data-name="Path 256769"/></g></g><g data-name="logo_content"><path fill="#86c9cf" d="M-8221.4-3970.5l41.8 59.1 35-9.3-41.8-59.2z" data-name="Path 256761"/><g data-name="Group 220310"><path fill="#86c9cf" d="M-8061.2-3943.1s-5.2-10.3-.4-34.4a94.7 94.7 0 000-35.8l-35 9.3s5.2 8.4-1.2 41.5c-3.6 18.9 1.6 28.7 1.6 28.7z" data-name="Path 256762"/><path fill="#dddddc" d="M-8053.1-3945.3s-.6-11.5-17-30a94.7 94.7 0 01-17.7-31l34.9-9.4s-.3 9.9 21.8 35.3c12.5 14.6 13 25.7 13 25.7z" data-name="Path 256763"/><path fill="#ffb900" d="M-8063.2-3966.7c.3-3.3.9-6.9 1.6-10.8a94.7 94.7 0 000-35.8l-26.2 7a94.7 94.7 0 0017.8 31c2.7 3 5 6 7 8.6" data-name="Path 256764"/><path fill="#86c9cf" d="M-8180-3981.6s4.8 7.7.9 24.4c-8.4 35.3-.5 45.8-.5 45.8l35-9.4s-6-14.4 1.2-41.4c4.9-18.7-1.6-28.8-1.6-28.8z" data-name="Path 256765"/><path fill="#dddddc" d="M-8186.4-3979.9l-6.6 72.1-35 9.4 6.6-72.1z" data-name="Path 256766"/><path fill="#ffb900" d="M-8227.8-3968.8s-.2 9 11.5 21.6c24.9 26.4 23.3 39.4 23.3 39.4l-35 9.3s-2-15.4-21.8-35.2c-13.5-13.7-12.9-25.7-12.9-25.7z" data-name="Path 256767"/><path fill="#e85620" d="M-8216.3-3947.2a57 57 0 01-6.5-8.2l-5.2 57 35-9.4c0-1.1.6-14-23.3-39.4" data-name="Path 256768"/><path fill="#dddddc" d="M-8118.8-3998l-34.3 9.2 17.6 65.6 34.3-9.2a34 34 0 00-17.6-65.6" data-name="Path 256769"/></g></g><g data-name="logo_content"><path fill="#86c9cf" d="M-7902.7-3732.1l41.8 59.1 34.9-9.4-41.8-59.1z" data-name="Path 256761"/><g data-name="Group 220310"><path fill="#86c9cf" d="M-7742.6-3704.7s-5.2-10.4-.3-34.5a94.7 94.7 0 00-.1-35.8l-35 9.4s5.2 8.4-1.2 41.5c-3.6 18.9 1.6 28.7 1.6 28.7z" data-name="Path 256762"/><path fill="#dddddc" d="M-7734.5-3707s-.6-11.5-16.9-29.9a94.7 94.7 0 01-17.8-31l35-9.4s-.4 9.8 21.7 35.3c12.6 14.6 13 25.6 13 25.6z" data-name="Path 256763"/><path fill="#ffb900" d="M-7744.6-3728.3c.4-3.3 1-6.9 1.7-10.9a94.7 94.7 0 00-.1-35.8l-26.2 7a94.7 94.7 0 0017.9 31c2.6 3.1 4.9 6 6.8 8.7" data-name="Path 256764"/><path fill="#86c9cf" d="M-7861.3-3743.2s4.7 7.7.8 24.4c-8.3 35.3-.5 45.7-.5 45.7l35-9.3s-6-14.4 1.2-41.5c4.9-18.6-1.6-28.7-1.6-28.7z" data-name="Path 256765"/><path fill="#dddddc" d="M-7867.8-3741.5l-6.6 72.1-35 9.4 6.7-72.1z" data-name="Path 256766"/><path fill="#ffb900" d="M-7909.2-3730.4s-.2 9 11.5 21.6c24.9 26.3 23.3 39.3 23.3 39.3l-35 9.4s-2-15.4-21.8-35.2c-13.5-13.7-12.9-25.8-12.9-25.8z" data-name="Path 256767"/><path fill="#e85620" d="M-7897.7-3708.8a57 57 0 01-6.5-8.2l-5.1 57 35-9.5c0-1 .5-14-23.4-39.3" data-name="Path 256768"/><path fill="#dddddc" d="M-7800.2-3759.6l-34.3 9.2 17.6 65.6 34.3-9.2a34 34 0 00-17.6-65.6" data-name="Path 256769"/></g></g><g data-name="logo_content"><path fill="#86c9cf" d="M-7983.8-4034.3l41.8 59.1 35-9.4-41.8-59.1z" data-name="Path 256761"/><g data-name="Group 220310"><path fill="#86c9cf" d="M-7823.6-4007s-5.2-10.3-.4-34.4a94.7 94.7 0 000-35.8l-35 9.4s5.2 8.4-1.2 41.5c-3.6 18.9 1.6 28.7 1.6 28.7z" data-name="Path 256762"/><path fill="#dddddc" d="M-7815.5-4009.1s-.6-11.6-17-30a94.7 94.7 0 01-17.7-31l34.9-9.4s-.3 9.8 21.8 35.3c12.6 14.6 13 25.6 13 25.6z" data-name="Path 256763"/><path fill="#ffb900" d="M-7825.6-4030.5c.4-3.3.9-6.9 1.6-10.9a94.7 94.7 0 000-35.8l-26.2 7a94.7 94.7 0 0017.9 31c2.6 3.2 4.9 6 6.8 8.7" data-name="Path 256764"/><path fill="#86c9cf" d="M-7942.4-4045.4s4.8 7.7.9 24.4c-8.4 35.3-.5 45.7-.5 45.7l35-9.3s-6-14.4 1.2-41.5c4.9-18.6-1.6-28.7-1.6-28.7z" data-name="Path 256765"/><path fill="#dddddc" d="M-7948.8-4043.7l-6.6 72.1-35 9.4 6.6-72.1z" data-name="Path 256766"/><path fill="#ffb900" d="M-7990.2-4032.6s-.2 9 11.5 21.6c24.9 26.3 23.3 39.3 23.3 39.3l-35 9.4s-2-15.4-21.8-35.2c-13.5-13.7-12.9-25.8-12.9-25.8z" data-name="Path 256767"/><path fill="#e85620" d="M-7978.7-4011a57 57 0 01-6.5-8.2l-5.2 57 35-9.5c0-1 .6-14-23.3-39.3" data-name="Path 256768"/><path fill="#dddddc" d="M-7881.2-4061.8l-34.3 9.2 17.6 65.6 34.3-9.2a34 34 0 00-17.6-65.6" data-name="Path 256769"/></g></g></g></g></svg>