<svg xmlns="http://www.w3.org/2000/svg" width="300" height="80" viewBox="0 0 300 80"><defs><clipPath id="a"><path fill="none" d="M0 0h39.2v39.2H0z" /></clipPath><clipPath id="b"><path fill="none" d="M15.6 35.2a19.6 19.6 0 1019.6-19.6 19.6 19.6 0 00-19.6 19.6" transform="translate(-15.6 -15.6)" /></clipPath></defs><g id="circles"><path fill="#fff" d="M69 40a29 29 0 11-29-29 29 29 0 0129 29" data-name="Path 256694" /><path fill="#d1d1d0" d="M40 70a30 30 0 1130-30 30 30 0 01-30 30m0-58a28 28 0 1028 28 28 28 0 00-28-28" data-name="Path 256695" /><path fill="#474746" d="M20.3 25l-.4.1a.8.8 0 00-.1-.5 1.8 1.8 0 01.2-.2h.1a.1.1 0 000 .1 1.2 1.2 0 01.1.2.8.8 0 010 .3m3.4.4a.8.8 0 00-.5-.2l.4-.4a.3.3 0 00.1-.2l-.4-.5-.6.7a1.2 1.2 0 01.2.8 3.2 3.2 0 01-.5 1.2 1 1 0 00-.2 0 1.3 1.3 0 00-.3 0 3.2 3.2 0 00.5-1 .9.9 0 000-.5l-.7.7-.3-.2-.2.2-.6-.5a1 1 0 00-.3 0 1.5 1.5 0 00.2-.6.7.7 0 000-.4 2.4 2.4 0 00-.4-.4l.3-.4a2.5 2.5 0 01.4.5l.7-.2v.5a5.3 5.3 0 00-.6.1 1.2 1.2 0 010 .6l.5-.6.5-.6a1 1 0 00-.4 0 1.5 1.5 0 00.2-.5.7.7 0 000-.5 2.3 2.3 0 00-.4-.3l.3-.4a2.5 2.5 0 01.4.5l1-.3v.3-.1l.6.5-.2.3h.1a7 7 0 01.6.7.7.7 0 01.1.3.6.6 0 01-.1.4l-.4.5M21 24l-.3.1a2.8 2.8 0 00-.1-.4 3.2 3.2 0 01.3-.2h.1a.5.5 0 000 .1.6.6 0 010 .1v.2m.4-.3l-.3.1a.8.8 0 00-.1-.5l.2-.1c.1 0 .1-.1.1 0a1.3 1.3 0 01.1.2.7.7 0 010 .3m0 2l.6-.7-.2-.2-.4.3-.3.4zm.9-3l-.3.1a2 2 0 00-.2-.5 2.4 2.4 0 01.3-.2h.2a.1.1 0 000 .1v.4m-.4 1.4l.4-.5.4-.4-.6.2a1.4 1.4 0 01-.2.7m.4.6l.5-.5.4-.4-.3-.3-.8 1 .2.2" data-name="Path 256696" /><path fill="#474746" d="M27 22.4a1.3 1.3 0 00-.5 0l-1.3 1-.3-.2.7-.6-.1-.2-.4.3-.3.2a.6.6 0 010-.1.5.5 0 01-.2-.2l.3-.2.3-.2V22l-.6.4-.4-.5-.4-.4.6-.5-.4.2-.3.3-.1-.1a.6.6 0 01-.1-.2l.3-.2.4-.3-.1-.1-.6.5a1.2 1.2 0 00-.3-.2 14.1 14.1 0 001.4-1.3l.4.1-.6.6.1.1.7-.5.1.2.4-.2-.5-.7.4-.3.4.7.8-.6v.2l1 1.4a1.5 1.5 0 01.3.6.5.5 0 010 .2.9.9 0 01-.2.1 3.6 3.6 0 01-.4.4 1 1 0 00-.4-.3l.4-.2a.2.2 0 000-.2 1 1 0 00-.1-.4l-.8-1.1-.3.2a4.8 4.8 0 01.6 1.3 2 2 0 010 1.2m-2.4-.7l.2-.2v-.2l-.2.1-.1.1zm.2.3l.3-.2-.1-.1-.1.1-.2.1zm1.2.3c.2 0 .4-.3.6-.5a1.9 1.9 0 00-.1-.8 4.5 4.5 0 00-.5-.8l-.3.3-.2-.3-.7.5.1.1.6-.4.4.4.4.5-.7.5.1.1.3-.2.4-.3v.2a.5.5 0 01.2.1l-.4.2-.3.3zm-.8-1.1l.3-.2-.1-.1H25l-.1.2zm.3.4l.1-.1.1-.1v-.2l-.3.2z" data-name="Path 256697" /><path fill="#474746" d="M28 18.3a.8.8 0 01-.2-.2.7.7 0 010-.2l.3-.2.4-.1-.1-.2-.1-.2a3 3 0 01.3-.1h.2a.2.2 0 000 .1l.1.1.4-.1.3-.2a.8.8 0 01.1.2.8.8 0 01.1.2l-.5.2-.4.2-.5.2-.5.3m.4 1a1 1 0 01-.1-.2.7.7 0 01-.1-.2 2 2 0 00.2-.1l.3-.1a2 2 0 00-.4-.5l.3-.2a1.7 1.7 0 01.4.4l-.3.3 1-.5h-.3a2.7 2.7 0 00-.1-.5 2 2 0 01.4 0h.2a.3.3 0 00-.1.2v.3l.2-.1.2-.1a.8.8 0 01.1.1 1 1 0 01.1.3 5 5 0 00-.5.2l-.5.2-.5.2-.5.3m1.2 1.4a1 1 0 01-.3 0 6.8 6.8 0 00-.3-.6l-.1-.4a4 4 0 00-.2-.3 4.2 4.2 0 00.4-.2l.4-.2.4-.2q.3 0 .4-.2l.2.4.2.3a6 6 0 00.3.7 1 1 0 01-.3.1.7.7 0 01-.2.1V20l-.8.3a.4.4 0 000 .1l-.1.2m0-.7l.3-.1.4-.2-.3-.5-.7.4zm1.9-.2a1.1 1.1 0 01-.3 0 6.8 6.8 0 00-.3-.7l-.3-.8-.4-.7a7 7 0 00-.4-.8q.3 0 .6-.3l.6-.2h.5v1.2a1.2 1.2 0 01.7.7.6.6 0 010 .6.7.7 0 01-.2.2 2.3 2.3 0 01-.3.2 1 1 0 00-.1-.2.9.9 0 00-.2-.2 2.2 2.2 0 00.2-.1.6.6 0 00.2-.1v-.3a1 1 0 00-.8-.5v-1l-.5.2.7 1.6a10 10 0 00.6 1 1.2 1.2 0 01-.3.2" data-name="Path 256698" /><path fill="#474746" d="M33 16.2h-.4a.8.8 0 00.2-.6 1.8 1.8 0 01.3 0h.1v.1a1 1 0 010 .2.8.8 0 01-.3.3m2.5 2.3a.8.8 0 00-.3-.4l.6-.1a.3.3 0 00.2 0 1.3 1.3 0 000-.7l-1 .2a1.2 1.2 0 01-.3.8 3.2 3.2 0 01-1 .6 1 1 0 00-.2-.2 1.4 1.4 0 00-.2-.1 3.2 3.2 0 00.9-.5.9.9 0 00.3-.5l-1 .2v-.4l-.4.1-.1-.7a1 1 0 00-.2-.3 1.5 1.5 0 00.5-.3.7.7 0 00.1-.4 2.5 2.5 0 000-.5l.4-.1a2.5 2.5 0 010 .7c.4 0 .6.1.7.2l-.2.3a5.1 5.1 0 00-.5-.2 1.2 1.2 0 01-.5.5l.8-.2.8-.2a1 1 0 00-.3-.2 1.5 1.5 0 00.5-.3.7.7 0 00.1-.4 2.2 2.2 0 000-.5l.5-.1a2.5 2.5 0 010 .7l1 .2-.3.3h.2l.2.7h-.4a1 1 0 000 .2 7.3 7.3 0 01.1.8.7.7 0 010 .4.6.6 0 01-.4.2l-.6.2m-1.9-1.1l1-.2-.1-.4-.5.1-.5.1zm.7-1.6h-.3a2.6 2.6 0 00.1-.5 3 3 0 01.3 0l.2.1a.1.1 0 00-.1 0v.2l-.2.2m.5 0h-.3a.8.8 0 00.2-.6h.4a.1.1 0 000 .2 1.2 1.2 0 010 .1.7.7 0 01-.3.3m.2 1.3l.6-.2.7-.1-.1-.3-1.2.2v.4m.1-.8l.6-.1.5-.2c-.1 0-.4 0-.6-.2a1.3 1.3 0 01-.5.5m1-.8h-.3a2.1 2.1 0 00.2-.6 3 3 0 01.3 0h.2v.1a.1.1 0 00-.1 0v.2a.4.4 0 00-.1 0l-.1.2" data-name="Path 256699" /><path fill="#474746" d="M40 18a1.3 1.3 0 00-.4-.3l-1.7.2v-.4h.8v-.3h-.8a.5.5 0 010-.1.5.5 0 010-.2h.8v-.1H38v-1.2h.7v-.2h-.9a.6.6 0 010-.2.5.5 0 010-.1h.9v-.2H38a1.2 1.2 0 00-.2-.3 14.2 14.2 0 002-.2l.2.4h-.8v.3h.8v.2h.4v-.8h.5v.8h.9v1.9a1.4 1.4 0 01-.2.6.4.4 0 01-.2.1.7.7 0 01-.2.1 3.5 3.5 0 01-.5 0 1 1 0 00-.2-.4h.5a.2.2 0 00.1 0 1 1 0 00.1-.6v-1.3H41a4.8 4.8 0 01-.2 1.4 2 2 0 01-.8 1m-1.5-2h.3v-.2h-.3zm0 .4h.3v-.2h-.3zm.8 1l.7-.1a1.9 1.9 0 00.4-.8 4.4 4.4 0 00.1-.9H40v-.3h-.8v.2h.7v1.1h-.7v.2h.8a.5.5 0 010 .2.6.6 0 010 .1h-.8zm0-1.5h.3v-.2h-.3zm0 .5h.3v-.2h-.3z" data-name="Path 256700" /><path fill="#474746" d="M42.9 18.2a1.1 1.1 0 00-.2-.3 1.6 1.6 0 00-.1-.2 2.6 2.6 0 001.2-.7 2.4 2.4 0 00.6-1h-.7l-.6-.2a1.2 1.2 0 010-.2 1 1 0 010-.3l.7.2.7.1v-.4a3.4 3.4 0 00.1-.4l.4.1.3.1a.7.7 0 00-.2.4v.3l.8.2.9.2v.2l-.6 1.6a1.3 1.3 0 01-.3.6.6.6 0 01-.2.1.8.8 0 01-.3 0 4.7 4.7 0 01-.7-.1 1 1 0 000-.3 1 1 0 000-.2l.6.1a.3.3 0 00.2 0 4.3 4.3 0 00.6-1.7l-1.2-.2a3 3 0 01-.6 1.1 2.8 2.8 0 01-1.4.9" data-name="Path 256701" /><path fill="#474746" d="M47.5 19.3a.7.7 0 000-.4l.5.2a.3.3 0 00.2 0s.2-.1.3-.4l-.5-.2-.4-.1a7.3 7.3 0 00.6-.8l.7.3.1-.2-.7-.3H48a1.8 1.8 0 000-.5 3 3 0 00.7 0l-.3-.3.4-.1a3.2 3.2 0 01.3.4 1.8 1.8 0 00.3-.2l-.4-.1-.4-.2a.6.6 0 01.1-.2.6.6 0 01.1-.2 2.5 2.5 0 00.3.2h.2l.5.3h.1l.3.3a2.3 2.3 0 01-1.2.5l.6.2-.4.7a.6.6 0 00.4-.1.6.6 0 00.1-.2l.1-.3.8.4a2.7 2.7 0 01-.4-1.3h.4a2 2 0 00.1.5 3.3 3.3 0 00.5-.2 1.4 1.4 0 01.2.3v.2a.3.3 0 00-.2 0h-.3l.1.3a3.4 3.4 0 00.6-.2 1.5 1.5 0 01.1.3v.1a.3.3 0 00-.2 0h-.3a3.1 3.1 0 00.5.5 1.8 1.8 0 00-.4.2 3.9 3.9 0 01-.4-.4l-.1.4v.1h.2a1.4 1.4 0 000-.1 1 1 0 00.3.3.6.6 0 01-.2.2.3.3 0 01-.1 0 .7.7 0 01-.2 0l-.2-.1a.4.4 0 01-.3-.2.3.3 0 010-.2 1 1 0 010-.2l.2-.2-.4-.2a.9.9 0 01-.7.5 1.5 1.5 0 00-.2-.3.2.2 0 000 .1.7.7 0 01-.3 0 .7.7 0 01-.2-.1l-.4-.2a2.4 2.4 0 01-.1.2l.9.3-.1.2a5.3 5.3 0 01-.3.5.5.5 0 01-.3.2.5.5 0 01-.3 0l-.6-.2m1.2.5a1.2 1.2 0 000-.4 3.3 3.3 0 00.7.2 1.8 1.8 0 01-.1-.6h.2-.1l-.2-.1a.4.4 0 010-.2v-.1l.4.2.3.1.7.3.3.2a1.6 1.6 0 01-.8.5 3.3 3.3 0 00.6.4 1.4 1.4 0 00-.4.2 3 3 0 01-.6-.6 3.5 3.5 0 01-1 0m1.1-.4a1.2 1.2 0 00.4-.1l-.3-.2h-.2a1.3 1.3 0 00.1.3" data-name="Path 256702" /><path fill="#474746" d="M51.6 21.3a1.6 1.6 0 00-.1-.3 1.6 1.6 0 00-.2-.2 2.4 2.4 0 001-.6 6.3 6.3 0 00.6-.8l.4-.5a4.8 4.8 0 00.3-.4l.7.5.7.5.6.4a8.5 8.5 0 00.7.6 3.8 3.8 0 00-.3.4l-.3.4-.5-.4-.1.2.2.2.3.2a.7.7 0 01-.1.2.7.7 0 01-.2.1l-.2-.2-.3-.1-.1.2.3.2.4.2a.7.7 0 01-.1.2.7.7 0 01-.2.2 1.4 1.4 0 00-.2-.2l-.1-.1.1.3a5.1 5.1 0 01-.6 0 2.7 2.7 0 00.4.6 1.4 1.4 0 00-.4.1 2.3 2.3 0 01-.6-1.1l-.2.2-1-.5-.4-.3.2-.3.3.2.4-.5-.2-.1-.2-.1a.7.7 0 01.1-.2l.2-.2a2.9 2.9 0 00.2.2l.3.2.1-.2-.2-.1a2.6 2.6 0 00-.2-.2.7.7 0 01.1-.2.8.8 0 01.1-.1 2.2 2.2 0 00.3.1l.2.2.1-.2-.5-.4v.1a4 4 0 01-1.8 1.6m1.5.3l.1.1h.2l.3.3a2.1 2.1 0 010-.6l-.3-.2zm.5-2.3l1.9 1.4.2-.3-1-.6-1-.7zm.2 1.7l.5.4.2-.2-.3-.2-.3-.2zm.3 1a4.8 4.8 0 00.5.1l-.2-.2-.3-.2a1.6 1.6 0 000 .4m0-1.6l.6.4.1-.2-.2-.2-.3-.2z" data-name="Path 256703" /><path fill="#474746" d="M55.8 24.7a.9.9 0 01-.2-.2 4.2 4.2 0 00.4-.3l.3-.3a6.5 6.5 0 01-.6-.4 1.6 1.6 0 000-.2 1.6 1.6 0 00.1-.2 10 10 0 001.5 1l-.5-.7-.6-.6a1.4 1.4 0 01.3-.2l.5.5.4.5h.2l-.4-.5a8 8 0 00-.3-.3l.1-.2a.6.6 0 01.1 0l.4.3.3.4h.1l-.7-1 .3-.3a3.7 3.7 0 00.3-.3l.6.7.5.6 1.2 1.2-.4.3a3.7 3.7 0 00-.3.4l-.6-.7-.5-.6h-.1l.6.8-.1.1a3.5 3.5 0 00.5.1 1.6 1.6 0 010 .3v.2a.1.1 0 01-.1 0 .2.2 0 00-.2-.1h-.3l.2.2.3.3H59a.6.6 0 01-.2.2 6 6 0 00-.3-.4l-.4-.4a2.5 2.5 0 01.3.5h-.2l.2.2-.5.4a5.8 5.8 0 00-.5.5 1 1 0 01-.2-.2L57 26h.1l-1-1.3H56a.1.1 0 010 .1l-.2-.2m.5 0l1 1h.1L57 25l-.5-.6zm.3-.4l.5.6.5.6h.2l-1.1-1.3zm.7.2l.3.3.3.3a4 4 0 00-.1-.4h.2a7 7 0 01-.7-.2m.4-2l.2.2.1.1.2-.1-.3-.4zm0 1.5l.4.4a3.6 3.6 0 00.3 0l-.2-.2-.3-.3zm.6-.8l.4.3.2-.1-.2-.2-.2-.2zm.7.7l.3.4.2-.2-.2-.2-.1-.2z" data-name="Path 256704" /><path fill="#474746" d="M19.5 30.1l-2.1-1.4.2-.6 3 .9-.2.4-2.2-.7 1.9 1.4-.3.6-2.3-.7 2 1.4-.2.4-2.5-1.8.2-.6z" data-name="Path 256705" /><path fill="#474746" d="M19 32.9c-.2.5-.8.9-1.9.5s-1.3-1-1-1.5.7-.9 1.7-.5 1.3 1 1.2 1.5m-2.6-.9c0 .3.1.7 1 1s1 0 1.2-.2-.1-.7-1-1-1 0-1.2.2" data-name="Path 256706" /><path fill="#474746" d="M18.5 34.3l-.2.8a.7.7 0 01-1 .6.7.7 0 01-.5-.7c0 .1-.1.2-.4.2l-1.2.1v-.5h1a.4.4 0 00.5-.3v-.1l-1.3-.3.1-.5zm-1.4.3a.4.4 0 00.3.6c.4 0 .5 0 .5-.4v-.2l-.8-.2z" data-name="Path 256707" /><path fill="#474746" d="M18 36.4v.5l-1.3-.2 1.2 1v.5l-1.4-1-1.7.7v-.6l1.6-.6-1.4-.2V36z" data-name="Path 256708" /><path fill="#474746" d="M17.8 38.6V40h-.5v-1h-.8v.9h-.4V39h-1.3v-.5z" data-name="Path 256709" /><path fill="#474746" d="M17.9 41.3c0 .5-.5 1-1.5 1.1s-1.6-.4-1.7-1 .4-1 1.5-1.1 1.6.4 1.7 1m-2.7.1c0 .3.3.6 1.1.5s1.1-.3 1.1-.6-.3-.5-1.1-.5-1.2.3-1.1.6" data-name="Path 256710" /><path fill="#474746" d="M18 42.7v.9a.7.7 0 01-.6.9.7.7 0 01-.8-.4s0 .2-.3.3l-1.1.6-.1-.6 1-.4a.4.4 0 00.2-.4v-.1l-1.3.2v-.5zm-1.3 1a.4.4 0 00.5.3c.4 0 .5-.2.4-.5v-.2l-1 .1z" data-name="Path 256711" /><path fill="#474746" d="M15.8 47.3a1.4 1.4 0 01-.2-.6c-.2-.8.3-1.3 1.2-1.6s1.6 0 1.8.8a1.5 1.5 0 010 .6l-.5.1a1 1 0 000-.5c0-.4-.4-.7-1.2-.5s-1 .7-.9 1a.8.8 0 00.3.5z" data-name="Path 256712" /><path fill="#474746" d="M18.9 47l.5 1.3-.5.1-.3-.8-.7.2.3.8-.5.2-.3-.8-.8.3.3.9-.4.1L16 48z" data-name="Path 256713" /><path fill="#474746" d="M20 49.6l.3.6c.4.8.1 1.4-.8 1.9a1.3 1.3 0 01-2-.4l-.2-.6zm-2.1 1.7v.1c.3.5.8.6 1.4.2s.8-.7.6-1.2l-.1-.1z" data-name="Path 256714" /><path fill="#474746" d="M21.1 51.7l.8 1.2-.4.2-.5-.7-.7.4.5.8-.3.2-.5-.7-.8.5.6.8-.4.2-.8-1.2z" data-name="Path 256715" /><path fill="#474746" d="M22 53.2l.4.4-1.5 1.9 2.2-1 .3.3-2.9 1.3-.3-.4z" data-name="Path 256716" /><path fill="#474746" d="M23.6 55l1 1-.3.3-.7-.6-.6.5.6.6-.3.4-.6-.7-.6.7.6.6-.3.4-1-1z" data-name="Path 256717" /><path fill="#474746" d="M24.9 56.3l.4.4-1.7 2 .6.5-.3.3-1-.9z" data-name="Path 256718" /><path fill="#474746" d="M27 58c.5.3.7 1 0 2s-1.3.9-1.8.6-.6-1 0-2 1.4-1 1.9-.6m-1.6 2.2c.2.2.6 0 1.1-.6s.5-1 .2-1.2-.6-.1-1.1.6-.5 1-.2 1.2" data-name="Path 256719" /><path fill="#474746" d="M28.2 58.9l.7.4a1 1 0 01-1 1.6l-.2-.2-.6 1-.4-.2zm0 1.5c.2.2.4.1.6-.2s0-.5-.2-.6l-.1-.1-.5.9z" data-name="Path 256720" /><path fill="#474746" d="M31.7 61.2l-1.7 2-.3-.1.4-2.6-1 2.3-.4-.2 1.2-2.7.7.3-.4 2.3 1.4-1.9.7.3-1.2 2.8-.4-.2z" data-name="Path 256721" /><path fill="#474746" d="M32.8 61l1.4.5-.2.4-.8-.3-.3.8.8.2v.5l-1-.3-.2.9 1 .3-.2.4-1.4-.4z" data-name="Path 256722" /><path fill="#474746" d="M34.6 61.6l.6.1.4 2.5.5-2.3h.4l-.6 3h-.5l-.5-2.6-.4 2.4-.5-.1z" data-name="Path 256723" /><path fill="#474746" d="M37.4 62.5h-.6V62l1.7.2v.4h-.7l-.2 2.6-.5-.1z" data-name="Path 256724" /><path fill="#474746" d="M41 64.5h-.8l-.2.8h-.5l.8-3h.5l1 3h-.5zm0-.4l-.4-1.4-.3 1.4z" data-name="Path 256725" /><path fill="#474746" d="M43.2 63.3h.9l.2 1.5a1.5 1.5 0 01-.7.3c-.9 0-1.4-.5-1.6-1.4s.3-1.6 1.2-1.7a1.6 1.6 0 01.6 0v.5a1.1 1.1 0 00-.6-.1c-.5 0-.7.6-.6 1.2 0 .7.4 1 .9 1a.7.7 0 00.3 0l-.1-.9h-.4z" data-name="Path 256726" /><path fill="#474746" d="M44.4 61.8l1.4-.3v.4l-.8.2.1.8.9-.2v.4l-.8.2.2 1 1-.3v.4l-1.3.4z" data-name="Path 256727" /><path fill="#474746" d="M46.2 61.4l.6-.2 1.6 2-.8-2.3.5-.1 1 2.8-.6.2-1.6-2 .7 2.3-.4.1z" data-name="Path 256728" /><path fill="#474746" d="M51.3 62.5a1.3 1.3 0 01-.4.4c-.8.3-1.4-.1-1.8-1s-.3-1.5.4-1.9a1.5 1.5 0 01.6 0l.2.4a1 1 0 00-.5 0c-.4.2-.6.6-.2 1.3s.7.9 1.1.7a.8.8 0 00.4-.3z" data-name="Path 256729" /><path fill="#474746" d="M51.8 61l-1.6-1.2.5-.3 1 .8-.1-1.3.4-.3.3 2 .6 1-.5.3z" data-name="Path 256730" /><path fill="#474746" d="M53.6 60.6l.3 1.1-.3.2-.4-1z" data-name="Path 256731" /><path fill="#474746" d="M55.4 56.7l1.2 2.4-.3.2-2.2-1.5 1.7 2-.3.2-2-2.3.5-.5 2 1.4-1.1-2.1.5-.5 2 2.3-.3.3z" data-name="Path 256732" /><path fill="#474746" d="M55.8 55.7l.3-.4 2.2 2.1-.3.4z" data-name="Path 256733" /><path fill="#474746" d="M56.5 54.9l.4-.5 2.4.9-1.8-1.6.3-.3 2.3 2-.4.4-2.4-.8 1.9 1.5-.3.3z" data-name="Path 256734" /><path fill="#474746" d="M58 53l.4-.5 2.5 1.8-.3.4z" data-name="Rectangle 173374" /><path fill="#474746" d="M60.8 53.3a1 1 0 00.4-.4.4.4 0 00-.1-.5c-.2-.2-.4-.1-.6 0l-.3.2a.9.9 0 01-.9 0 .8.8 0 01-.3-1.2 1.6 1.6 0 01.4-.5l.4.3a1.2 1.2 0 00-.4.4.3.3 0 00.2.5.5.5 0 00.5 0l.3-.2a.8.8 0 01.9 0 .8.8 0 01.3 1.3 1.1 1.1 0 01-.4.4z" data-name="Path 256735" /><path fill="#474746" d="M60.2 50.2l-.2.6-.4-.2.7-1.5.4.2-.2.5 2.3 1.1-.2.5z" data-name="Path 256736" /><path fill="#474746" d="M60.4 48.8l.3-.8a.7.7 0 011-.5.7.7 0 01.6.8c0-.1.1-.2.4-.2l1.2.1-.2.5-1-.1a.4.4 0 00-.4.2v.1l1.2.5-.2.5zm1.5-.2a.4.4 0 00-.2-.6c-.4 0-.5 0-.6.3v.2l.8.3z" data-name="Path 256737" /><path fill="#474746" d="M63 47l-2 .2.2-.5 1.3-.2-1-.8.1-.5 1.6 1.3 1.1.3v.5z" data-name="Path 256738" /><path fill="#474746" d="M62 43c0-.6.6-1 1.7-.9s1.5.7 1.4 1.3-.6 1-1.7.8-1.5-.7-1.4-1.2m2.7.3c0-.3-.3-.6-1-.7s-1.3.1-1.3.4.2.6 1 .7 1.2 0 1.3-.4" data-name="Path 256739" /><path fill="#474746" d="M62.2 41.5V40h.5v.9h.8v-.8h.4v.8h1.3v.6z" data-name="Path 256740" /><path fill="#474746" d="M62.2 38.6v-.4l2.5-.3V37h.4l.1 1.4z" data-name="Path 256741" /><path fill="#474746" d="M64 35.2l.2.9h.8v.5l-3-.3-.2-.5 2.9-1.4v.5zm-.3.2l-1.4.5 1.5.2z" data-name="Path 256742" /><path fill="#474746" d="M61.6 34.6l-.2-.7c-.2-.5 0-.8.5-1a.7.7 0 01.8.3.7.7 0 01.6-.7.8.8 0 011 .5l.2.8zm1-.8v-.2a.4.4 0 00-.5-.2.4.4 0 00-.3.4v.3zm1.4-.3v-.3a.4.4 0 00-.6-.3.4.4 0 00-.4.6v.2z" data-name="Path 256743" /><path fill="#474746" d="M60.6 31.8c-.2-.6 0-1.2 1-1.6s1.7-.1 2 .4-.1 1.1-1.1 1.6-1.7 0-1.9-.4m2.5-1c-.1-.3-.5-.5-1.2-.2s-1 .7-.9 1 .5.4 1.3 0 1-.6.8-.9" data-name="Path 256744" /><path fill="#474746" d="M60 30.4l-.3-.8a.7.7 0 01.3-1 .7.7 0 01.9 0l.2-.4.8-.8.3.5-.8.7a.4.4 0 000 .4v.1l1.1-.6.3.5zm1-1.4a.4.4 0 00-.6-.1.4.4 0 00-.2.6l.1.1.8-.4z" data-name="Path 256745" /><g data-name="Group 220303"><g data-name="Group 220302"><g clip-path="url(#a)" data-name="Group 220301" transform="translate(20.4 20.4)"><path fill="#ffb900" d="M39.2 19.6A19.6 19.6 0 1119.6 0a19.6 19.6 0 0119.6 19.6" data-name="Path 256746" /></g></g></g><g data-name="Group 220305"><g clip-path="url(#b)" data-name="Group 220304" transform="translate(20.4 20.4)"><path fill="#86c9cf" d="M17.6 39.1a19.9 19.9 0 002 .1A19.6 19.6 0 0037.3 28L27.6 1.7A19.5 19.5 0 005.4 6.1z" data-name="Path 256747" /><path fill="#86c9cf" d="M19.6 39.2A19.6 19.6 0 0030.8 3.5 32 32 0 0127 14c-7 13-8.4 21-8.5 25.2h1" data-name="Path 256748" /><path fill="#59b5ad" d="M19.6 39.2A19.6 19.6 0 0037.3 28L29.8 7.7a37.2 37.2 0 01-2.7 6.3c-7 13-8.4 21-8.5 25.2h1" data-name="Path 256749" /><path fill="#dddddc" d="M25.4.9A19.6 19.6 0 0012 37.6z" data-name="Path 256750" /><path fill="#e85620" d="M1.8 14l-.6-1.2a19.5 19.5 0 009 24c-.6-4.6-2.5-12-8.4-22.8" data-name="Path 256751" /></g></g><path fill="#fff" d="M25 50.2h9.4s11-12.8 14.7-25.2a65.5 65.5 0 01-16.7 11.4 46.5 46.5 0 007.3-.3A94.8 94.8 0 0125 50.2" data-name="Path 256753" /><path fill="#fff" d="M26.1 38.6c1.4-1.7 6-1.6 10.5.5l.4.2 1.1-1.2c-5.6-2.2-10.8-2-12 .5" data-name="Path 256754" /><path fill="#fff" d="M48.8 48c-.2-3.6-4-6.3-6.9-8-5.3-3.5-14.3-5-15.8-1.4 2.4-3 11-.1 14.7 3.1 5.6 4.6 1.5 9.2-4.8 6.6l-.7.9a18.8 18.8 0 004.1 1.7 14.5 14.5 0 003.4.6c2.3.1 5.8-.6 6-3.4" data-name="Path 256755" /></g><g id="fonts" style="transform: scale(1.05);transform-origin: center;"><g id="fonts_wda"><path fill="#1a202c" d="M180.3 63.3a51.3 51.3 0 00-6.2-1.7h-.2l.8-1.3H170l.7.7h-.2a18.9 18.9 0 01-3 1.2l-3.7.8h-.1l-.8-1.6h.2a33.3 33.3 0 003.6-.8l1.5-.3h-3v-8.4h5l-.8-1.5h.2a11 11 0 003.3-1.2 2.3 2.3 0 001.2-1.7h2a3.2 3.2 0 01-.3 1.1 25.2 25.2 0 002.5 1 21.6 21.6 0 003 1h.2l-1 1.9-1.5-.6v8.4h-3.7c2 .3 4 .8 5.8 1.3h.1l-.8 1.7zm-13-4.6h9.8v-.8h-9.9zm0-2.2h9.8v-.8h-9.9zm0-2.3h9.8v-.8h-9.9zm7.2-4a11.2 11.2 0 01-4 1.7h8.4l-1.5-.7a23.9 23.9 0 01-2.5-1.4l-.4.4zM252.2 63h-.1l-.4-2h.2a7.7 7.7 0 002.2.3c.2 0 .5 0 .5-.7v-3.8c-2.2.3-4.4.4-6.6.4h-.2l-.2-2h.1A35.5 35.5 0 00253 53a60 60 0 01-4 .4h-.2l-.4-1.7a29.8 29.8 0 007.8-4.6l1.9.6-.2.1a23.2 23.2 0 01-4.6 3.5l3.4-.5a29 29 0 002.7-2v-.1l1.7 1-.2.2a34.8 34.8 0 01-5.6 4 41 41 0 01-3.3 1.4 37 37 0 007.4-.9l-1-1.1-.2-.1 1.6-1h.1a19.3 19.3 0 013.6 4.3v.1l-1.8 1-1-1.6-4.2.6v4.3c0 1-.1 1.5-.5 1.8a3 3 0 01-2 .5 11 11 0 01-1.8-.2zm21.9-1.4a7 7 0 002.2-2.5 12.1 12.1 0 00.8-4.7l-2 .1-.6-1.6a13.5 13.5 0 003-4.1h-2.8V47h3.6l.8-2.3v-.1l2 .5-.1.2-.7 1.7h4.7v1.7h-5.5c-.3.7-.6 1.3-1 1.8a14.3 14.3 0 01-1.3 2c1.5 0 3.2-.2 4.8-.4a15.4 15.4 0 00-1-1.7l-.1-.2 1.5-.7a21.5 21.5 0 012.6 4.6v.1l-1.7.8v-.2l-.5-1.1h-.8v6.7a.9.9 0 000 .5h.5c.8 0 1 0 1-.2a1.8 1.8 0 00.3-.9 10.6 10.6 0 00.2-1.5v-.2l1.6.8v.1c-.2 1.8-.5 2.9-1 3.2 0 .3-.3.4-.8.4a4.7 4.7 0 01-1.3.2 3.7 3.7 0 01-1.2-.2c-.7 0-1-.7-1-1.8V54l-1.3.1c-.1 3-.5 5-1 6a8.5 8.5 0 01-2.8 2.9h-.1zM207.7 63V52.6H220V57h-10.4v.7h11.2v4.7h-11.2v.6zm1.8-2.2h9.3v-1.4h-9.2zm0-5.5h8.5v-1h-8.5zM193.7 63v-8.7h-2v-1.8h2v-5h-1.8v-1.9h8V59a8.7 8.7 0 00.3 1.7 1.7 1.7 0 00.2.5 1 1 0 00.1-.3c0-.3.2-1.4.2-3v-.2l1.8 1a8.8 8.8 0 01-1 3.6 1.3 1.3 0 01-1 .7 1.5 1.5 0 01-1.3-.8 5.6 5.6 0 01-.8-2.3 22.2 22.2 0 01-.3-3.9v-8.5h-2.6v5.1h2.2v1.8h-2.2V63zm-88.8 0v-3.4a34.9 34.9 0 01-4 1.3l-.6-1.7h.2l1-.3V47.2h-.8v-1.6h6.7v.8h2.3a9.5 9.5 0 00-.3-1.1V45l1.7-.4a8.6 8.6 0 01.5 1.7h2.4V48h-.8a44 44 0 01-.6 2.6h1.5v-6l1.6.2v5.8h3.2v1.6h-3v2.3l.2 1.7a26.8 26.8 0 001-3.7l.1-.1 1.6.6a24.6 24.6 0 01-2.2 6 6 6 0 00.5 1.6.6.6 0 00.1-.2 11.9 11.9 0 00.3-2v-.1l1.7 1a8.3 8.3 0 01-.9 2.8 1.4 1.4 0 01-1.2.7c-.4 0-.9-.6-1.5-2v-.1a13 13 0 01-2.1 2.2h-.1l-1-1.4.5-.5h-5.2v-7.8h5.7v7.3a11.4 11.4 0 001.5-2 27.7 27.7 0 01-.4-2.7l-.3-3.6h-7.5v-1.6h2a25.2 25.2 0 00-.4-2.6h-1v-.8h-.7V63zm4.5-3.5h2.4v-1.7h-2.4zm-6.3-1l1.8-.5v-2.6H103zm6.3-2.1h2.4v-1.7h-2.4zm-6.3-2.5h1.8v-2.6H103zm7.2-3.3h.8a30.5 30.5 0 00.5-2.6h-1.7a24.7 24.7 0 01.4 2.6zm-7.2-.8h1.8v-2.6H103zM82.8 63v-7.6a19.8 19.8 0 01-1.5 1.5h-.1l-1.4-1.4h.1a23.2 23.2 0 004.3-5.1l1-1.5H80v-1.8h6a24.4 24.4 0 001-2.3l.1-.1 1.8.4v.2a41 41 0 01-.8 1.8h9.4v1.8H87.4a27.2 27.2 0 01-1.7 2.8l-1 1.5v7.1h5.7v-5.1H86v-1.8h4.3v-3.5h1.8v3.5h4.6v1.8h-4.6v5.1h5.5v1.8h-13v.9zm45.8-1v.6h-1.8v-.9h-2.7v1h-1.9v-6.9h6.4v5.3a13 13 0 001.1-3.2 19.5 19.5 0 00.5-4.2v-8.3h1.7v8.3a22.2 22.2 0 01-.6 5.5 13 13 0 01-1.5 3.7zm-4.5-2h2.7v-2.5h-2.7zm29.5 3v-5.3a16 16 0 01-1.2 1.8 14.2 14.2 0 01-2.7 2.8h-.1l-1.1-1.4h.1a7 7 0 00.9-.7l-1.3.3v-.1a10.4 10.4 0 00-.8-2.7v-.1l1.5-.5v.1a12 12 0 01.9 2.7 14.5 14.5 0 001.2-1.4 12.3 12.3 0 001.4-2h-3v.2l-1.6.5v-.9a23.7 23.7 0 01-4.8 1l-.5-1.7a22.5 22.5 0 002.8-3.9l-2.4.4h-.1l-.3-1.5a18 18 0 002.8-5.8v-.1l1.8.5v.1a24.7 24.7 0 01-1.8 4.1l-.7 1 1.6-.2 1.2-2.4 1.5.5v-1.6h4.7v-2h1.7v2h5.3v1.8h-5.3v.9h4.6v7h-3.1a12.4 12.4 0 001.3 2 8.7 8.7 0 002.3 2h.1l-1 1.9v-.1a11 11 0 01-2.6-2.5 15 15 0 01-1.6-2.6v5.8zm-5.2-10.3a20.1 20.1 0 011 3.4v-6.7h4.2v-1h-4.5a25.2 25.2 0 01-3.3 5.8 14.2 14.2 0 01-.9 1.1 23 23 0 002.5-.6l-.4-1.6 1.4-.5zm7 2h2.7v-2.5a19.5 19.5 0 01-1.1 2.3l-1.6-.4.1-.1a12.3 12.3 0 001.2-2.7l1.4.2V51h-2.8zm-4.3 0h2.5v-.9l-1.3.8v-.1a10.3 10.3 0 00-1.2-2.3zm1.3-3.5a12 12 0 011.2 2.5V51h-2.5v.8l1.2-.8zM137 63V45.2h1.8v17.7zm5.3-.7V62a18.9 18.9 0 001-4.2v-.2l1.5.4a17.3 17.3 0 01-.9 4.7zm42.3.6v-7h6.3v6.8h-1.8v-.9h-2.7v1zm1.8-2.8h2.7v-2.5h-2.7zm80.5 1.8a18.9 18.9 0 00.8-4.4v-.2l1.7.4v.1a20.7 20.7 0 01-.8 4.8v.1zm-35.9.7v-1.9h5.4v-1.9h-4V57h4v-1.6h-4.2v-10h10.5v10h-4.4V57h4.2v1.8h-4.2v2h5.3v1.8zm7.3-8.9h2.5v-2.4h-2.5zm-4.2 0h2.3v-2.4h-2.3zm4.2-4.2h2.5V47h-2.5zm-4.2 0h2.3V47h-2.3zm28.6 12.8a28.4 28.4 0 00-4.9-4h-.2l1.6-1.2a32.1 32.1 0 015 3.6l.1.1-1.5 1.6zm-16.5-1.7h.1a17.7 17.7 0 003-1.5 11.5 11.5 0 002-1.8h.2l1.2 1.4a14.4 14.4 0 01-2.5 2 14.7 14.7 0 01-2.8 1.5h-.1zM145.8 62a13.5 13.5 0 00-.5-4l1.4-.3a12 12 0 01.7 4.2l-1.6.3zm124.7-.1a13 13 0 00-.6-4.1v-.2l1.5-.3v.1a12 12 0 01.8 4.3v.1l-1.7.2zm2.5-.7a18.7 18.7 0 00-.7-3.4v-.2l1.6-.4a18.2 18.2 0 011 3.5v.1l-1.9.6zm-47.8-1.8h.1l2.5-.8v-5.2h-2.1v-1.7h2v-4h-2.2v-1.8h6.5v1.8h-2.4v4h2v1.7h-2V58l2.1-.8h.2l.4 1.6a40.4 40.4 0 01-6.2 2.4zM133.5 61V46h1.8v15zm133.6-5.7a23.2 23.2 0 003.1-3.6l-2.8.3h-.2l-.2-1.6a15.8 15.8 0 003.4-5.7v-.1l1.8.5v.1a23.6 23.6 0 01-2 4.1 11 11 0 01-.9 1l2-.2 1.5-2.7v-.1l1.9.6-.1.1a24.8 24.8 0 01-3.8 5.8l-1 1.1 2.8-.5a10.8 10.8 0 00-.6-1.6v-.1l1.6-.5v.1a16.3 16.3 0 011.3 3.7v.1l-1.7.6v-.2l-.1-.5a33.8 33.8 0 01-5.4 1h-.1zm-82.4-.8V53h6.3v1.7zm-62.5 0V53h6.4v1.7zm83-1.2v-3.2h7.5a3.5 3.5 0 00-.4-.6v-.2l1.7-.5-.8-.6.1-.1a7.7 7.7 0 001.4-1.8 8.9 8.9 0 001-1.8v-.1l1.8.6c0 .3-.2.5-.3.7h5.6v1.6h-3.7a8.5 8.5 0 011.6 1.6v.2l-1.5.9a7.5 7.5 0 00-1.6-1.7h-.1l1.3-.9h-2.4a9.9 9.9 0 01-1.5 2l-.4-.2a6.7 6.7 0 01.4 1h7.5v3.2h-1.9v-1.6h-13.4v1.7zm-20.5-1.7V50h6.3v1.7zm-62.5 0V50h6.4v1.7zm41-.7v-1.7h6V51zm85.2-2.3h.2a33.4 33.4 0 003.9-2 15.6 15.6 0 002.8-2.1v-.1l1.7 1h-.1a17 17 0 01-3 2.5 26 26 0 01-4.3 2l-.1.1zm-131.2 1.2a19.6 19.6 0 00-1.2-3.5v-.1l1.4-.7a22.9 22.9 0 011.4 3.7v.1l-1.6.7zm93.4 0a6.7 6.7 0 00-1.6-1.6h-.1l1.3-.9h-2v.2a12.7 12.7 0 01-2 2.2l-1.7-1.1.1-.1a9 9 0 001.9-2 10.7 10.7 0 001.3-2v-.1l1.9.5v.1l-.4.7h4.5v1.6h-3.3a8.4 8.4 0 011.7 1.6l-1.5 1zM177 48.2l.1-.1a6.2 6.2 0 001-1h-5.8a.7.7 0 010 .1 7.6 7.6 0 01-1.5 1.7l-1.3-1.2a8.2 8.2 0 001.2-1.4 7.3 7.3 0 001-1.5v-.1l1.6.4v.2l-.1.2h7.5V47a12 12 0 01-2.4 2.2zm7 .5v-1.9h3a13.9 13.9 0 00-.7-1.7V45l1.8-.5a10.3 10.3 0 01.9 2.3h2.8v1.9zm-62.5 0v-1.9h2.7a10.8 10.8 0 00-.6-1.7V45l2-.5v.1a14 14 0 01.8 2.2h3.2v1.8zm42-1.4v-1.7h5.6v1.7zm1.3-10.3a1.3 1.3 0 01-1-.5l-.1-.2v-.1l-.7-2-.2-1h1.2l1.2-.2h-.2a1.2 1.2 0 01-1.1-1.3V31a1.3 1.3 0 000-2v-5.6a1.2 1.2 0 01.1-.6 1.2 1.2 0 01-.7-1.2V21a1.2 1.2 0 01.4-1 .9.9 0 010-.1v-.2a1 1 0 00-.2-.4 1.5 1.5 0 01-.2-.7v-1h1a33.9 33.9 0 004.2-.3h.1a12.1 12.1 0 003.2-.8 1.6 1.6 0 01.7-.2 1.3 1.3 0 01.9.4c.9.7 1.3 1.2 1.3 1.8a1.3 1.3 0 01-.8 1.2h.2a1.1 1.1 0 01.9 1.3h.8a151.3 151.3 0 000-3.2 1.2 1.2 0 011.2-1.2h.1l1.5.1a1.2 1.2 0 011.1 1.2 1.3 1.3 0 01-.5 1.1v2h2.4a1.2 1.2 0 011.2 1.4c0 3.6 0 6-.2 7.6a21.2 21.2 0 01-.7 4.4 2.8 2.8 0 01-3 2.2 5.1 5.1 0 01-1.2-.2 1.4 1.4 0 01-1.1-1l-.5.8v.1l-.2.4h-1.1a15 15 0 01-1.3-.5h-.1a1.2 1.2 0 01-.6-1l-1 .2-6.1 1a1.3 1.3 0 01-.9.7zm14.2-9.5a23.2 23.2 0 01-1.2 5.4h1.3a1.1 1.1 0 000-.2 16.8 16.8 0 00.4-3v-.1l.3-5.4h-.5c0 1.3-.2 2.4-.3 3.3zm-4.3 1.7a1.3 1.3 0 000 1.9v.6a15 15 0 001-3.9 35 35 0 00.2-3.6h-1a1.4 1.4 0 01-.2 0zm-2.3-9.4h.7-.1l-.2-.1-.4.1zm-70 17.2a1.3 1.3 0 01-1-.5l-.1-.2v-.1l-.7-2-.2-1h1.2l1.2-.2h-.2a1.2 1.2 0 01-1.1-1.3V31a1.3 1.3 0 000-2v-5.6a1.4 1.4 0 00-.6-1.8V21a1.2 1.2 0 01.4-1 1 1 0 010-.1v-.2a.9.9 0 00-.2-.4 1.5 1.5 0 01-.2-.7v-1h1a34.2 34.2 0 004.2-.3h.1a12.1 12.1 0 003.2-.8 1.7 1.7 0 01.7-.2 1.3 1.3 0 01.8.3h.1c.9.8 1.3 1.3 1.3 1.9a1.3 1.3 0 01-.9 1.2h.3a1.1 1.1 0 011.1 1.1h.8v-3.2a1.2 1.2 0 011.2-1.2h.1l1.5.1a1.2 1.2 0 011.1 1.2 1.3 1.3 0 01-.5 1.1v2h2.4a1.2 1.2 0 011.2 1.4c0 3.5 0 6.1-.2 7.7a21.2 21.2 0 01-.7 4.3 2.8 2.8 0 01-3 2.2 5.1 5.1 0 01-1.2-.2 1.4 1.4 0 01-1.1-1l-.5.8v.2l-.3.3h-1l-1.3-.5h-.1a1.2 1.2 0 01-.7-1l-.9.2-6.1 1a1.3 1.3 0 01-.9.7zm14.2-9.5a23.2 23.2 0 01-1.2 5.4h1.3a1 1 0 000-.1v-.1a16.7 16.7 0 00.4-3l.3-5.5h-.5a49 49 0 01-.3 3.3zm-4.3 1.7a1.3 1.3 0 000 1.9v.6a15 15 0 001-3.9l.2-3.6h-1a1.4 1.4 0 01-.3 0zm-2.3-9.4h.7-.1l-.2-.1-.4.1zm152 17a1.3 1.3 0 01-1.1-.7h-6.3a1.3 1.3 0 01-1.2.7h-.7a1.2 1.2 0 01-1.4-1.3v-3.9l-2.5.8h-.2a1.3 1.3 0 01-1.4-.7 1.2 1.2 0 00-.4-.3v-.1h-.1v-.1a1.4 1.4 0 01-.4-1 1.1 1.1 0 011.1-1 33.5 33.5 0 003.4-.6H248a1.2 1.2 0 01-1.1-1.3v-.7a1.1 1.1 0 011.1-1.2h1.6a1.5 1.5 0 01-.2-.9v-.6a1.4 1.4 0 01.2-.7h-1a1.3 1.3 0 01-1.3-1.3v-3.7a1.2 1.2 0 011.3-1.2H264a1.2 1.2 0 011.3 1.2v3.7a1.2 1.2 0 01-1 1.2 1 1 0 01.1.4 1.2 1.2 0 01-1.2 1.2h-.2l-.8.7h2.4a1.2 1.2 0 011.2 1.2v.6a1.2 1.2 0 01-1.2 1.3h-.8a1.2 1.2 0 01.1.7v6.3a1.2 1.2 0 01-1.3 1.3zm-18.7 0h-.4a13.9 13.9 0 01-2.6-1.3 12.4 12.4 0 01-1.7-1.2 1.1 1.1 0 01-.3.5v.1l-.2.2h-.3l-6.1 1a1.3 1.3 0 01-1 .7c-1 0-1.3-.8-1.8-2.2a9.5 9.5 0 01-.8 1.5l-.1.1-.2.3h-.6a1.5 1.5 0 01-.6-.1h-.2v-.2a2.1 2.1 0 00-.6-.4h-.2v-.2h-.1a1.5 1.5 0 01-.3-1v-.2l.1-.2a9.6 9.6 0 001-2.2 20.4 20.4 0 00.7-3.3l.2-4.4v-6a1.3 1.3 0 011.3-1.3H243a1.2 1.2 0 011.3 1.3V22a1.3 1.3 0 01-1.3 1.3h-1.4a1.4 1.4 0 01-.1.4h1.7a1.2 1.2 0 011.3 1.3v.7a1.2 1.2 0 01-1.3 1.3h-2v.1h3a1.2 1.2 0 011.2 1.3v.6a1.2 1.2 0 01-1.2 1.3c.5.5.7.9.7 1.3a1.2 1.2 0 01-1.2 1.2h-.4l-.3.2.4.2.9.2a1.1 1.1 0 011 1.1 1.3 1.3 0 01-.5 1l-.5.6a1.4 1.4 0 01-1.2.6zm-13.8-3.6h.3l1.8-.3v-2.5h-1.4a15.7 15.7 0 01-.6 2.8zm5.5-.8l1.8-.4a17.1 17.1 0 01-.8-1.6h-1zm5.3-1.3l.9-.7h-1.5a5.6 5.6 0 00.6.7zm-4.2-4h1.9-2zm-5.5 0h2-1.7a1.2 1.2 0 01-.3 0zm0-3.3a1.3 1.3 0 01.3 0h1.8v-.4h-2zm5.7 0h1.7v-.4h-1.5a1.3 1.3 0 01-.2.4zm-14.5 12.8l-1.5-.5a15.2 15.2 0 01-1.5-.6 10.2 10.2 0 01-1.3.6 11.2 11.2 0 01-2 .6h-.5a1.4 1.4 0 01-1.2-.5l-.3-.5a3.1 3.1 0 01-2.6 1c-.7 0-2.3 0-2.6-1.1a2.2 2.2 0 00-.4-.7v-.1l-.2-.2v-1.7l.9.2h.3a11.3 11.3 0 002 .2 3 3 0 00.2-.8l.1-.7h-2v.3a1 1 0 01-1 .8 2.3 2.3 0 01-.6 0l-1-.2a1.1 1.1 0 01-.9-1.2v-.3a8.1 8.1 0 00.5-1.2 11 11 0 00.4-1.5v-.1a15.3 15.3 0 00.3-1.9.7.7 0 00.5-1.3l-1.1.2h-.2a1.4 1.4 0 01-1.2-.6 10 10 0 01-.4-.5 1.2 1.2 0 01-.3-.8 1 1 0 011-1 15.6 15.6 0 001.6-.4l.4-.1a5.6 5.6 0 00-.5-.3h-.1l-.5-.2v-.7c0-.3.1-.6.8-1.4a1.3 1.3 0 01.2-.3 1.8 1.8 0 010-.2v-.6a1.2 1.2 0 011.2-1.3h5.5a1.5 1.5 0 01.7.2 5.3 5.3 0 011.4-.5h.4a1.2 1.2 0 01.8.3h.1v.1l.7 1 .1-.2a2.9 2.9 0 00.5-.6l.1-.1a1.1 1.1 0 01.9-.4h.3l.2.1 1.1.8a1.4 1.4 0 01.6.8 1 1 0 01.1 0h.3l.2.1 1.1.8a1.4 1.4 0 01.7 1.2 1.2 1.2 0 01-1 1.1.2.2 0 00-.1 0 16.4 16.4 0 001.6.6h.2l.5.2v.8a1.2 1.2 0 01-.5 1 5 5 0 00-.4.4 1.2 1.2 0 01-.4.4 1.3 1.3 0 01.3.9v.2a10.7 10.7 0 01-.5 1.9 1.7 1.7 0 01-.9.8 1.2 1.2 0 01.2.7v.3a16.4 16.4 0 01-1 2.2 11.8 11.8 0 01-.6 1 17.6 17.6 0 002 .5 1 1 0 01.9 1 1.3 1.3 0 01-.4 1 7.6 7.6 0 00-.6.6 1.3 1.3 0 01-1 .5 1.7 1.7 0 01-.7 0zm-7.3-3.1v.2l1-.3h.3a5.4 5.4 0 01-.6-1 7.4 7.4 0 01-.5-1 16 16 0 01-.2 2zm4.1-2a4.5 4.5 0 00.3-.4h-.6l.3.4zm-.7-4.7a3.8 3.8 0 01-.5 1.2h1.2a1.4 1.4 0 01-.1-.4v-2.1h-.4a7 7 0 01-.2 1.3zm-8.4-1a.8.8 0 01.2.1h1.6v-.3h-2.4l.6.3zm5-4.7a9.2 9.2 0 01-1.1 1.2 1.2 1.2 0 011.2 1.3v2.3a1.1 1.1 0 00.1-.2 4.1 4.1 0 00.1-1v-1.1a1.2 1.2 0 011.2-1.3h1.5a16.5 16.5 0 01-1.3-1.2l-1-1.3a9.8 9.8 0 01-.8 1.3zm-68.1 15.5a1.5 1.5 0 01-1.4-.7 4.4 4.4 0 00-.5-.6 1.3 1.3 0 01-.4-.9 1.2 1.2 0 01.8-1v-.1h.1a6.3 6.3 0 001.8-.6 5.6 5.6 0 001.7-1 3.7 3.7 0 00.5-.6h-2.4a1.2 1.2 0 01-1.1-.6 1.4 1.4 0 01-.6.1h-.8a1.2 1.2 0 01-1.3-1.2v-3.6a1.2 1.2 0 01.8-1.1V24l.4-.2h.1a11 11 0 001.2-.7 6.5 6.5 0 00-1-.3 1.2 1.2 0 01-1-1.1v-.4l.1-.2a6.2 6.2 0 00.6-1 5.8 5.8 0 00.4-1.6 1.2 1.2 0 011.2-1h.2l1 .3v-.2a1.1 1.1 0 011.2-1.2 38.2 38.2 0 011.7.2 1 1 0 011 1 1 1 0 01.5-.1h.2l1.1.5.2.1a1.1 1.1 0 011-.5h.2l1 .3v-.4a1.1 1.1 0 011-1.2h.1a50.6 50.6 0 011.7.2 1 1 0 011 1 1.5 1.5 0 01-.1.2 1 1 0 01.7-.2h.3l1.3.6a1.3 1.3 0 01.8 1.2 1.2 1.2 0 01-.5 1 10.1 10.1 0 01-1 2v.1h-.1a1.4 1.4 0 01-.4.4c.3 0 .5.3.8.4a1 1 0 01.9 1 1.1 1.1 0 01-.1.5 1.2 1.2 0 01.7 1v3.7a1.2 1.2 0 01-1.3 1.2h-.8a1.5 1.5 0 01-.2 0 14.6 14.6 0 01-.2 2.3 5.5 5.5 0 01-1 2.3c-.6 1-2 1-3.1 1a4.5 4.5 0 01-1.2 0 1.4 1.4 0 01-1-1.2 1.9 1.9 0 00-.4-.6l-.2-.3v-1.7l1 .2h.2a8.6 8.6 0 001.6.2 1.7 1.7 0 00.5 0v-.1a2 2 0 00.3-.8 5.5 5.5 0 00.2-.8h-3.6a10 10 0 01-.8 1.7 5.9 5.9 0 01-1.6 1.7 10 10 0 01-2 1.4h-.1l-1.8.7h-.1zm-.2-8.7a1.2 1.2 0 01.4 0h3.5v-.1h-3.9zm7.8-.1h4.8-4.8zm-2-5.6a1.3 1.3 0 01-.7.5l1 .7a1.1 1.1 0 01.3 0 6.3 6.3 0 001-.5 8.7 8.7 0 00-.9-.3 1.2 1.2 0 01-.7-.4zM84 36.6a1.5 1.5 0 01-1.4-.7 4.1 4.1 0 00-.5-.6 1.2 1.2 0 01-.4-.9 1.2 1.2 0 01.8-1v-.1h.1a6.3 6.3 0 001.8-.6 5.5 5.5 0 001.7-1 4 4 0 00.5-.6H84a1.2 1.2 0 01-1.1-.6 1.4 1.4 0 01-.6.1h-.8a1.2 1.2 0 01-1.3-1.2v-3.6a1.2 1.2 0 01.8-1.2V24l.4-.2h.1a11.3 11.3 0 001.2-.7 6.4 6.4 0 00-1-.3 1.2 1.2 0 01-1-1.1v-.4l.1-.2a6.7 6.7 0 00.6-1 6.2 6.2 0 00.4-1.6 1.1 1.1 0 011.2-1h.2l1 .3v-.2a1.1 1.1 0 011.2-1.2 39.8 39.8 0 011.7.1 1 1 0 01.9 1v.2a1 1 0 01.5-.2h.4l1.1.5h.1a1.1 1.1 0 011-.4h.2a10.6 10.6 0 011 .3v-.4a1.1 1.1 0 011.2-1.2 35.6 35.6 0 011.7.2 1 1 0 011 1 1.4 1.4 0 01-.1.2 1 1 0 01.7-.2h.2l1.3.6a1.3 1.3 0 011 1.2 1.2 1.2 0 01-.6 1 9.8 9.8 0 01-1 2 1.5 1.5 0 01-.5.5c.3 0 .5.2.8.4a1 1 0 01.8 1.4 1.2 1.2 0 01.7 1.2v3.5a1.2 1.2 0 01-1.3 1.3h-.8a1.2 1.2 0 01-.2 0 15.3 15.3 0 01-.2 2.3 5.5 5.5 0 01-1 2.3c-.4.7-1.5 1-3.1 1a4.4 4.4 0 01-1.2 0 1.3 1.3 0 01-1-1.2 1.9 1.9 0 00-.4-.6l-.2-.3v-1.7l1 .2h.2a8.6 8.6 0 001.6.2 1.7 1.7 0 00.5 0v-.1a2 2 0 00.3-.8v-.1a6.2 6.2 0 00.2-.7h-3.6a10.7 10.7 0 01-.8 1.7 6 6 0 01-1.6 1.7 10 10 0 01-2 1.3h-.1l-1.8.8zm-.2-8.7a1.3 1.3 0 01.4 0h3.5v-.1h-3.9zm7.8-.1h4.8-4.8zm-2-5.6a1.3 1.3 0 01-.7.5 12.2 12.2 0 001.1.7 1.5 1.5 0 01.3 0 6.2 6.2 0 001-.5 8.7 8.7 0 00-1-.3 1.2 1.2 0 01-.7-.4zm44.7 14.3a1.2 1.2 0 01-1.3-1.2v-7.5h-.5a1.2 1.2 0 01.3.8v6.7a1.2 1.2 0 01-1.3 1.2h-.7a1.3 1.3 0 01-1.4-1.2H126a1.2 1.2 0 01-1.3 1.2h-.8a1.3 1.3 0 01-1.3-1.2v-6.7a1.3 1.3 0 01.3-.8h-.2a1.2 1.2 0 01-1.3-1.3v-.7a1.2 1.2 0 011.3-1.3h1.3l-.1-.2a10 10 0 00-.7-1.7l-.1-.2v-.2a.9.9 0 010-.1 1.2 1.2 0 01-1.3-1.3V20a1.2 1.2 0 011.3-1.3h3v-1.3a1.2 1.2 0 011.3-1.2 10.2 10.2 0 011.3 0c1.1.2 1.2 1 1.2 1.2a1.3 1.3 0 01-.4 1v.3h2.9a1.3 1.3 0 01.5.2v-.6a1.2 1.2 0 011.3-1.2h5.5a1.9 1.9 0 011 .2 1.8 1.8 0 011 1.4v.4l-2.7 5.4a10.3 10.3 0 011.6 2.5 8.8 8.8 0 01.7 3.5 5.1 5.1 0 01-.4 2.2v.1a3.4 3.4 0 01-1.8 1.5 4.3 4.3 0 01-2.2.5 1.9 1.9 0 01-.6-.1v.5a1.2 1.2 0 01-1.3 1.2zm-8.2-4.4h3.3v-1.5H126zm10.3-.9h.1l.9.2.4-.1v-.1a.8.8 0 00.2-.6 5.5 5.5 0 00-.4-2 8.8 8.8 0 00-1.2-1.9zm-3.5-9.2a1.2 1.2 0 01-.6 1.1l-.5 1.4h1.1V22zm-5.9 1a13.7 13.7 0 01.5 1.5h.4a1.6 1.6 0 01.2-.3 11.8 11.8 0 00.7-1.4 7 7 0 00.3-.7h-2.4l.3.9zm9.4-.6l1.1-2h-1zm59.3 14a1.2 1.2 0 01-1.2-1 4.3 4.3 0 00-.3-1l-.1-.2v-1.6l.9.1h.3a14.2 14.2 0 002 .3l.8-.1v-.1a1.8 1.8 0 00.4-.7 16.2 16.2 0 00.5-2.9 51.7 51.7 0 00.3-5.7h-4.4v.3a18.6 18.6 0 01-.6 3.2 15.1 15.1 0 01-1 2.8 11.3 11.3 0 01-1.6 2.9 12 12 0 01-1.8 1.7 10.6 10.6 0 01-3 1.9h-.4a1.3 1.3 0 01-1-.5l-.7-.6a1.3 1.3 0 01-.5-1 1.1 1.1 0 01.8-1 10 10 0 002-1V32a8.7 8.7 0 001.5-1.4h.1a8 8 0 001.4-2.2 13 13 0 001-2.5 10.4 10.4 0 00.3-2.4h-4.9a1.2 1.2 0 01-1.2-1.3v-.8a1.2 1.2 0 011.2-1.3h5.1v-2.6a1 1 0 011.1-1.1h.1l1.7.2a3.3 3.3 0 01.7.1 1 1 0 01.7 1 1.3 1.3 0 01-.7 1v1.4h6.4a1.3 1.3 0 011.3 1.4c0 3.1 0 5.6-.2 7.2a22.4 22.4 0 01-.8 4.5 4.7 4.7 0 01-1.4 2.4 4.5 4.5 0 01-3 .8 12.4 12.4 0 01-1.8-.2z" /></g><g id="fonts_sub"><path fill="#fff" d="M179.8 64.7a49.9 49.9 0 00-6-1.6h-.2l-.5-1.3h-1.7v.5h-.2a20.7 20.7 0 01-3.3 1.3l-3.8.9h-.1l-1.7-.9-.7-1.6 1.1-2.1h.2l.9-.2v-7.2h-.6l-1.5-1.5v-1.7l1.1-1.2-.7-.7v1l-.8.9v7.1L160 58h-.1a7.1 7.1 0 001.4 1.1l.1.1.6 2-1 1.9-2.2.5h-.1a11.2 11.2 0 01-1.8-1.6v1l-1.5 1.5h-1.7l-1.5-1.5v-.8a11.2 11.2 0 01-1.6 1.4l-2.1-.3-.3-.3-.5.6-1.7.1-.5-.4v.2l-2 .8-1.6-.7-.8-1.8v-.1a17.5 17.5 0 00.9-3.7l-.4-.2-.5-1.7.4-1.4 1-1.3-1.1-.9-.3-1.6.3-1.1v-.1a16.4 16.4 0 002.5-5.3l2-1 1.7.5 1 1.8.4-.4h3.2v-.5l1.5-1.5h1.7l1.5 1.5v.5h3.8l1.4 1.4v-1l1.5-1.5h5.5l.8.8a5.5 5.5 0 00.3-.7V44l1.9-.9 1.6.5.2.3h6.8l1.5 1.5V47l-.4 1-.9 1 .9.2h.2l1 2.2-1 1.8-1.4.5V60l1 .2h.1l1 2.1-.9 1.8-1.8.7zm-5.1-4.4l-.8 1.3h.2a51.4 51.4 0 016.2 1.7l.9-1.7h-.1c-1.8-.5-3.8-1-5.8-1.3h3.7v-8.4l1.4.5h.1l1-1.7h-.1a21.6 21.6 0 01-3.1-1 24.8 24.8 0 01-2.5-1 3.2 3.2 0 00.3-1.2h-2a2.3 2.3 0 01-1.2 1.7 11 11 0 01-3.3 1.1h-.2l.8 1.6h-5v8.4h3l-1.5.3a33.2 33.2 0 01-3.6.7h-.2l.8 1.7a42 42 0 003.8-.9 19.2 19.2 0 003-1l.2-.1-.7-.7zm-21 2.6h1.7v-5.8a15 15 0 001.5 2.5 11.1 11.1 0 002.5 2.6h.2l1-1.8h-.2a8.6 8.6 0 01-2.3-2 12.6 12.6 0 01-1.3-2h3v-7h-4.4v-1h5.2v-1.7h-5.2v-2h-1.8v2H149v1.6l-1.5-.6v.1a41 41 0 01-1.2 2.4l-1.6.2.7-1a24.9 24.9 0 001.8-4v-.2l-1.8-.5a18 18 0 01-2.8 5.8l.3 1.7h.1l2.5-.4a22.5 22.5 0 01-2.9 3.8l.5 1.7a23.7 23.7 0 004.7-1l.1.7v.2l1.6-.5v-.3h3a12.4 12.4 0 01-1.4 2.1 14.3 14.3 0 01-1.2 1.4 12.2 12.2 0 00-.9-2.7v-.1l-1.5.5v.1a10.3 10.3 0 01.8 2.7v.1l1.3-.3a6.9 6.9 0 01-.9.6h-.1l1 1.5h.2a14.1 14.1 0 002.7-2.8 15.7 15.7 0 001.2-1.8zm-10.3-5a18.9 18.9 0 01-1 4.2l1.6.8v-.1a17.4 17.4 0 001-4.6V58l-1.6-.4zm1.8 0v.2a13.5 13.5 0 01.6 4l1.6-.1v-.1a12 12 0 00-.7-4.1v-.1zm18-6.9h6v-1.7h-6zm14.8-3.9a6.3 6.3 0 01-1 1l1.1 1.2h.1a12 12 0 002.4-2.3v-1.5h-7.5v-.2l.1-.2-1.6-.4a7.2 7.2 0 01-1 1.6 8.2 8.2 0 01-1.1 1.3l-.1.1 1.2 1.3.1-.1a7.7 7.7 0 001.5-1.7zm-14.5.2h5.5v-1.7h-5.5zm88.4 17.1h-.1l-1.2-1.3-.1-.7a17.8 17.8 0 01-2.5 1.1l-2-.5-.8-1.4v.9l-1.5 1.5h-12.6l-1.5-1.5v-.9q-1.4.6-3 1h-.2l-1.8-.8-.8-1.9 1-2h.1l1.4-.4V55h-.6l-1.5-1.5v-1.8l1.5-1.5h.6v-1h-.8l-1.4-1.5-1.3 1.2h-.1l1.2 1.3v3.2l-1.5 1.5h-1v2l.8.9v4.7l-1.5 1.5h-10.6l-.6.5h-1.8l-1.5-1.5v-8h-1l-1.5-1.5v-3.3l.2-.2-.3-.1v-2.4l.1-.1a7.5 7.5 0 001.6-1.7 9.2 9.2 0 001.2-1.8v-.1l1.8-.8 1.8.5.4.8h3.3l.3.3a5 5 0 00.2-.5V44l1.9-1 1.8.6.3.7h4.5l1.4 1.4 1.3-1.3h6.2l.6-.6h10.5l1.5 1.5v10l-.9 1 .7.6v1.8l-.4.4 1.5 1.5v.1l.5-1.6h.2l1.6-.8-1.1-1-.3-2 1-1.6h.2L247 52l.9-1.7-.6-.7.6-2.3h.2a31.5 31.5 0 003.7-1.9 14.1 14.1 0 002.6-1.9l1.8-.3 1.6 1 .3 1.8.6.2.2 1.2h1.5l1.6 1 .2 2.4-.2.1-.5.5a20.6 20.6 0 013.4 4.2v.1l-.5 2.1-.7.4q1 .6 1.7 1.3l.1.1v2.2l-1.4 1.5h-2.2A26.1 26.1 0 00258 60v.7a3.6 3.6 0 01-1 3 4.4 4.4 0 01-3 .8 12.5 12.5 0 01-2.1-.2zm.2-1.5a11 11 0 002 .2 3 3 0 002-.5c.3-.3.4-.9.4-1.8v-4.3l4.2-.6a17.7 17.7 0 011 1.5v.2l1.8-1.1v-.1a19.3 19.3 0 00-3.6-4.3l-1.6 1 1.1 1.2a36.9 36.9 0 01-7.4 1l3.3-1.5a34.8 34.8 0 005.7-4v-.1l-1.5-1.1h-.1a28.8 28.8 0 01-2.7 2.1l-3.4.5a23.2 23.2 0 004.6-3.5l.2-.1-1.9-.7a29.8 29.8 0 01-7.7 4.7h-.1l.4 1.7h.1c1.4 0 2.8-.2 4.1-.4a35.6 35.6 0 01-5.3 2.2l.1 2h.2a69 69 0 006.6-.4v3.8c0 .6-.3.7-.5.7a7.7 7.7 0 01-2.2-.3h-.2zm-44.4.1h1.8v-.5h11.2v-4.7h-11.2V57H220v-4.4h-12.2zm23.4-.5h12.6v-1.9h-5.3v-1.9h4.2v-1.8h-4.2v-1.6h4.4v-10h-10.5v10h4.2V57h-3.9v1.8h3.9v2H231zm26.7-4.3h.1a28.8 28.8 0 015 4l1.5-1.4v-.1a32.2 32.2 0 00-5-3.6h-.1zm-6.3-1a11.5 11.5 0 01-2.2 1.8 17.5 17.5 0 01-2.9 1.4h-.1l1 1.8h.2a14.8 14.8 0 002.8-1.5 14.5 14.5 0 002.5-2v-.1l-1.2-1.5zm-25.8-3.7h2v5.1l-2.4.7.7 2h.1a40.5 40.5 0 006.1-2.4h.1l-.4-1.8-.2.1-2 .8v-4.5h1.9v-1.8h-2v-4h2.4v-1.8h-6.5v1.8h2.3v4h-2.1zm-20.5 0h2v-1.7h13.3v1.6h2v-3.2h-7.6a6.9 6.9 0 00-.4-1l.3.2a10 10 0 001.6-2h2.4l-1.3.8.1.1a7.5 7.5 0 011.6 1.7l1.6-.9h-.1a8.7 8.7 0 00-1.6-1.7h3.7v-1.6h-5.6l.3-.6V45l-1.8-.6v.1a8.8 8.8 0 01-1 1.8 7.8 7.8 0 01-1.4 1.8l.7.7-1.7.5v.2a3.6 3.6 0 01.4.6h-7.5zm50.1-9a15.7 15.7 0 01-2.8 2.2 33.7 33.7 0 01-4 2h-.1l1 1.4h.2a26 26 0 004.2-2.1 17 17 0 003-2.5h.2l-1.6-1zm-45.1 3l-1.3.7.1.1a6.7 6.7 0 011.6 1.6l1.7-.8-.1-.2a8.4 8.4 0 00-1.7-1.5h3.3v-1.6h-4.5l.3-.7V45l-1.7-.5a10.6 10.6 0 01-1.4 2.1 9 9 0 01-1.9 2l1.5 1.2h.1a12.6 12.6 0 002-2.2v-.2zm-16.5 17l-1.5-1.5-1.2 1h-1.8l-.9-.8h-.7l-1 1h-1.9l-1.5-1.4v-7l.6-.6-.6-.6V53l.6-.6-.6-.6V50l.3-.2-1.1-1v-2l1.5-1.5h1l1-1.8 1.7-.4 1.7.7v.1a12 12 0 01.7 1.4h.7l1.2-1.2h8l1.5 1.5v10.7l1.8.9.8 1.5a9.9 9.9 0 01-1.2 4.3 2.8 2.8 0 01-2.4 1.4A2.9 2.9 0 01198 63a6.5 6.5 0 01-1-2.2V63l-1.5 1.5zm-2-10.2h2V63h1.8v-8.7h2.2v-1.8h-2.2v-5h2.6v8.4a21.9 21.9 0 00.3 4 5.7 5.7 0 00.8 2.2 1.5 1.5 0 001.2.8 1.3 1.3 0 001.2-.7 8.8 8.8 0 00.9-3.6l-1.7-1v.2l-.3 3a1 1 0 010 .3 1.6 1.6 0 01-.3-.5 9 9 0 01-.2-1.7V45.6h-8v1.8h1.7v5.1h-2zm-7 8.5h1.8v-1h2.7v.8h1.8v-6.8h-6.3zm0-8.2h6.3V53h-6.3zm0-2.9h6.3V50h-6.3zm-.8-3h7.8v-1.9h-2.8a10.2 10.2 0 00-.9-2.2l-1.8.4a13.8 13.8 0 01.6 1.8h-3zm-79 15.8l-1.5-1.5v-1.3l-2 .6h-.2l-1.8-1-.2-.7V62l-1.5 1.5H85.5l-.8 1h-2L81.4 63v-5H80l-1.4-1.4.1-2.2h.1a23 23 0 003.5-4H80L78.6 49v-1.8l1.5-1.5h5l.7-1.4 1.8-1 1.8.5 1 2h7.2L99 47v2l-1.5 1.5h-3.9V52h3l1.6 1.5v1.8l-1.5 1.5h-3v2.1h3.9l1.4 1.4-.2-.6 1-1.8V48l-.7-.8v-1.6l1.5-1.5h6.7l.8.8h.1l.7-1.2 1.7-.5 1.8 1 .1.3 1.6-1.4 1.7.2.8 1 2 .6v.1a23.5 23.5 0 011.2 3v-1.2l1.5-1.5h.8l1-1.8 1.9-.5 1.7.9.6 1.4h1.3l1.5-1.4h1.8L133 45l.4-.4h1.8l.5.4 1.3-1.3h1.8l1.5 1.5v17.7l-1.5 1.5H137l-1.5-1.5v-.6l-.3.3h-1.8l-1.3-1.3a12.2 12.2 0 01-1 2.4h-.2l-2.1.5-.2-.2h-1.8l-.9-.8h-.8l-1 1h-1.8l-1.5-1.4v-7l.5-.6-.5-.6V53l.5-.6-.5-.6V50l.2-.2-.8-.9v.1l-.4 1 .6.6v1.6l-.5.5.3.6v.1a32.5 32.5 0 01-1.2 4l1 .6.6 1.5v.1a9.6 9.6 0 01-1 3.3 2.8 2.8 0 01-2.5 1.5 2.3 2.3 0 01-1.8-1.1l-.9.8-2.3-.3-.9-1.2h-3v.4l-1.6 1.5zm0-1.5h1.7V47.2h.8v.8h1a26.3 26.3 0 01.3 2.6h-2v1.6h7.5a44.8 44.8 0 00.7 6.3 11.4 11.4 0 01-1.5 2v-7.3h-5.7V61h5.2a7 7 0 01-.5.4v.1l1 1.5v-.1a13 13 0 002.2-2.2v.1c.6 1.4 1.1 2 1.5 2a1.4 1.4 0 001.2-.7 8.3 8.3 0 00.8-2.7v-.1l-1.6-1v.2a11.7 11.7 0 01-.3 1.9.7.7 0 010 .2c-.1 0-.3-.3-.6-1.5a24.6 24.6 0 002.1-6V53l-1.5-.6v.1a26.6 26.6 0 01-1.1 3.7 43.9 43.9 0 01-.3-4h3.1v-1.6h-3.1l-.1-5.7v-.1l-1.7-.2v.1l.1 6h-1.5a16.7 16.7 0 00.6-2.7h.8v-1.6h-2.4a8.8 8.8 0 00-.5-1.6v-.1l-1.7.4v.2a10.5 10.5 0 01.3 1.1h-2.3v-.8h-6.7v1.6h.7V59l-1 .3.5 1.7a35.1 35.1 0 004-1.3zm-22.1 0h1.9v-.9h13v-1.8h-5.5v-5.1h4.6v-1.8h-4.6v-3.5h-1.8v3.5H86v1.8h4.3v5.1h-5.7v-7.1l1-1.5a27.2 27.2 0 001.7-2.8h10.2v-1.8h-9.4l.8-1.8V45l-1.8-.4a24.4 24.4 0 01-1 2.4H80v1.8h5l-.9 1.5a23.2 23.2 0 01-4.3 5v.1l1.3 1.5v-.1a19.7 19.7 0 001.6-1.4zm47 0v-.1a13 13 0 001.5-3.7 22.2 22.2 0 00.7-5.5v-8.3h-1.8v8.3a19.5 19.5 0 01-.5 4.3 13 13 0 01-1.1 3.1v-5.3h-6.4v7h1.9v-1h2.7v.8h1.8V62zm7.3 0h1.8V45.1h-1.8zm-3.6-1.9h1.8v-15h-1.8zm-47.3-2.3h2.7v-2.1h-2.7zm36-4.2h6.4V53h-6.4zM87.4 52h1.5v-1.5h-.6l-1 1.5zm34.8-.2h6.4V50h-6.4zm-6.2-5.5v.2a20 20 0 011.2 3.5v.2l1.6-.7a22.6 22.6 0 00-1.4-3.7v-.1zm5.4 2.4h8v-1.8h-3.1a14.2 14.2 0 00-.8-2.2v-.1l-2 .5a11 11 0 01.6 1.8h-2.7zM273.8 64l-.8-1.3-.6.7-1.7.2-.6-.5-2.1 1-1.7-.8-.8-1.8v-.1a17.6 17.6 0 00.8-3.7l-.2-.1-.4-1.7.4-1.5 1-1-1.3-1-.3-1.5.4-1.3a14.4 14.4 0 003-5.2v-.1l2-1 1.8.6 1 2-.1.1v.1l.4.2.7-.7h2.6l.4-1.3v-.1l1.9-1 1.9.6.8 1.8h2.7l1.5 1.5v1.7l-1.5 1.5h-.3a23.6 23.6 0 011.7 3.4l-.8 2-1.7.8-.4-.2v1.3l1.3-.7 1.5.8.8 1.6c-.3 2.1-.6 3.3-1.3 4a2.5 2.5 0 01-1.6 1 6.6 6.6 0 01-1.7 0 5.3 5.3 0 01-1.6-.1 2.7 2.7 0 01-2.1-2.5 10.4 10.4 0 01-2.8 2.6l-.1.1zm2.5-4.9a7 7 0 01-2.1 2.4h-.1l1 1.6a8.6 8.6 0 002.8-3c.6-1 1-2.9 1-5.9h1.3v6.7c0 1.1.4 1.7 1 1.8a3.7 3.7 0 001.3.2 4.7 4.7 0 001.3-.2c.5 0 .8-.1.9-.4.4-.3.7-1.4 1-3.2L284 58v.2a10.6 10.6 0 01-.3 1.5 1.8 1.8 0 01-.3 1s-.2.2-1 .2l-.4-.1a.9.9 0 010-.4v-6.7l.7-.1.5 1.1v.2l1.7-.8a21.7 21.7 0 00-2.5-4.6h-.1l-1.5.6v.2A15.6 15.6 0 01282 52l-4.8.4a14.3 14.3 0 001.4-2l1-1.8h5.4V47h-4.7l.7-1.7V45l-1.8-.5-.9 2.4h-3.6v1.7h2.8a13.5 13.5 0 01-3 4v.1l.5 1.6h.1l2-.1a12 12 0 01-.8 4.7zm-8.4-1.6a18.8 18.8 0 01-.9 4.3v.1l1.6.8v-.1a20.7 20.7 0 001-4.8l-1.7-.5zm2 .2v.2a13 13 0 01.6 4v.2l1.7-.2v-.1a12 12 0 00-.7-4.3zm2.4 0v.2a19 19 0 01.7 3.4v.2l1.8-.6a18.7 18.7 0 00-.8-3.5v-.1zm-5.1-2.2l.4 1.7a33.7 33.7 0 005.5-1v.5l.1.2 1.7-.6a16.3 16.3 0 00-1.3-3.8l-1.7.4.1.1a10.7 10.7 0 01.6 1.6l-2.8.5 1-1a24.8 24.8 0 003.8-5.9l-1.8-.7c-.5 1-1 2-1.6 2.8l-1.9.2a11.4 11.4 0 00.8-1 23.6 23.6 0 002-4l.1-.2-1.8-.5a15.8 15.8 0 01-3.4 5.8l.2 1.6h.2c1 0 1.9-.2 2.8-.3a23.2 23.2 0 01-3 3.6zm-57.7 5.4v-1.4h9.3v1.4zm-23-.8v-2.5h2.7V60zm-62.4 0v-2.5h2.7V60zm-14.7-.5v-1.7h2.4v1.7zm57.9-.8V58h9.8v.8zM103 55.4h1.8V58l-1.8.5zm64.2 1v-.7h9.8v.8zm-58 0v-1.7h2.5v1.7zm39.2-3.7v-.1l-1.6.4v.1l.5 1.6a23 23 0 01-2.5.6l1-1.1a25.2 25.2 0 003.2-5.7h4.5v.9h-4.3V56a20.1 20.1 0 00-.8-3.4zm61 2.6v-1h8.5v1zm-54.1-.5V51h2.7v.5l-1.3-.3v.1a12.2 12.2 0 01-1.3 2.7v.1l1.4.5v-.1a19.6 19.6 0 001.2-2.3v2.6zm-4.3 0v-2.6a10.3 10.3 0 011.1 2.3v.1l1.4-.8v1zm16.1-.6v-.8h9.9v.8zm-64-.3v-2.6h1.7v2.6zm49.2-2.7h-.1l-1.2.7V51h2.5v2.7a12.2 12.2 0 00-1.2-2.5zm86 2.4v-2.4h2.5v2.4zm-4.2 0v-2.4h2.3v2.4zM170.4 52a11.2 11.2 0 004-1.7l.5-.4a24.3 24.3 0 002.5 1.4l1.5.7zm-60-1.3a25.5 25.5 0 00-.5-2.6h1.7a57.3 57.3 0 01-.5 2.6zm-7.3-.8v-2.6h1.8v2.6zm135.3-.4V47h2.5v2.3zm-4.2 0V47h2.3v2.3zm-69.5-11.7a2 2 0 01-1.6-.7 1.5 1.5 0 01-.3-.6l-.6-2a1.5 1.5 0 011-2 2.4 2.4 0 01-.2-.7V31a2.1 2.1 0 01.2-1 2 2 0 01-.2-1v-5.6a2.3 2.3 0 010-.3 2 2 0 01-.5-1.5V21a2 2 0 01.3-1.2.4.4 0 010-.1 2.2 2.2 0 01-.3-.8 2 2 0 010 .3 1.9 1.9 0 01-.7 1.4 11 11 0 01-.9 1.8 1.8 1.8 0 011.2 1.8 2 2 0 01.7 1.5v3.5a2 2 0 01-2 2h-.3a13 13 0 01-.3 1.8 6.2 6.2 0 01-1 2.5c-.9 1.3-2.6 1.4-3.8 1.4a5 5 0 01-1.4-.1 2.1 2.1 0 01-1.6-1.7 1.6 1.6 0 00-.2-.4 1.5 1.5 0 01-.3-.7 6.7 6.7 0 01-1 1 10.8 10.8 0 01-2.2 1.4l-1.9.8a1.5 1.5 0 01-.5 0 2.2 2.2 0 01-2-1 3.5 3.5 0 00-.4-.5 2 2 0 01-.6-1.4 1.9 1.9 0 011.2-1.8h.4a5.5 5.5 0 001.6-.6.6.6 0 01.1 0l.2-.1h-.2a2 2 0 01-1.4-.6 2 2 0 01-.3 0h-.8a2 2 0 01-2-1.4v.7a5.9 5.9 0 01-.5 2.5v.2a4.2 4.2 0 01-2 1.8 4.9 4.9 0 01-2.4.5 2 2 0 01-2 1.7h-.9a2.2 2.2 0 00-2.8 0h-.7a2 2 0 01-2-1.2h-2.1a2 2 0 01-1.9 1.2h-.8a2 2 0 01-2-2v-6.7a2.4 2.4 0 010-.3 2 2 0 01-.7-.5L121 30a22 22 0 01-.7 4.5 3.6 3.6 0 01-3.7 2.7 5.7 5.7 0 01-1.4-.2 2.6 2.6 0 01-.8-.3 1.5 1.5 0 01-1.3.7h-.4a1.5 1.5 0 01-.4-.1l-1.4-.5a.6.6 0 01-.1 0 1 1 0 01-.2-.1 2 2 0 01-.7-.7h-.3l-5.8 1a2 2 0 01-1 .7h-.1a1.4 1.4 0 01-.4 0 2 2 0 01-1.6-.7 1.5 1.5 0 01-.3-.6l-.6-2a1.5 1.5 0 011-2 2.4 2.4 0 01-.2-.7V31a2.1 2.1 0 01.2-1 2 2 0 01-.2-1v-5.6a2 2 0 010-.3 2 2 0 01-.6-1.5V21a2 2 0 01.4-1.2.2.2 0 000-.1 2.3 2.3 0 01-.3-1.2v-.2a1.5 1.5 0 011.5-1.5h.2a33.5 33.5 0 004.1-.2h.1a11.4 11.4 0 003-.8 2.3 2.3 0 011-.2 2 2 0 011.3.4 5.4 5.4 0 011.4 1.6 2 2 0 012-2h.2l1.4.2a1.1 1.1 0 01.2 0 2 2 0 011.7 1.9 2.1 2.1 0 01-.6 1.5v.9h1.7a2 2 0 012 2v2.2a2 2 0 011.4-.6h.2a10 10 0 00-.4-.8 1.4 1.4 0 010-.3 2 2 0 01-1.4-2V20a2 2 0 012-2h2.3v-.6a2 2 0 012-2 10.4 10.4 0 011.4.1 2 2 0 011.9 2 2.3 2.3 0 010 .5h1.5a2 2 0 012-1.7h5.5a2.6 2.6 0 011.4.4h.1a2.5 2.5 0 011.3 2 1.5 1.5 0 01-.2.7l-2.4 5a11.3 11.3 0 011.4 2.3 10 10 0 01.7 2.4v-3.4a2 2 0 01.8-1.6 1.5 1.5 0 01.5-1 1.9 1.9 0 01-.9-1.6 1.5 1.5 0 01.3-1 5.9 5.9 0 00.6-.9 5.3 5.3 0 00.2-1.3 2 2 0 012-1.7 1.5 1.5 0 01.3 0h.1l.2.1a1.8 1.8 0 011.8-1.2h.1a69.6 69.6 0 011.7.2 1.8 1.8 0 011.4 1 1.5 1.5 0 01.6 0l.8.4a2 2 0 011.1-.4 1.5 1.5 0 01.5 0h.1a1.8 1.8 0 011.8-1.3 1.3 1.3 0 01.1 0 36.3 36.3 0 011.7.2 1.8 1.8 0 011.4 1h.1a1.5 1.5 0 01.6.1l1.2.5a2 2 0 011.4 1.6 2.3 2.3 0 010-.3v-.2a1.5 1.5 0 011.4-1.5h.3a33 33 0 004.1-.3h.1a11.5 11.5 0 003-.7 2.4 2.4 0 011-.3 2 2 0 011.4.5 5.4 5.4 0 011.3 1.5 2 2 0 012-2h.2l1.4.2h.2a2 2 0 011.7 2 2.1 2.1 0 01-.6 1.4v1h1.7a2 2 0 012 2c0 3.7-.1 6.2-.3 7.8a21.8 21.8 0 01-.7 4.5 3.6 3.6 0 01-3.7 2.7 5.7 5.7 0 01-1.4-.2 2.6 2.6 0 01-.8-.3 1.5 1.5 0 01-1.3.6h-.4a1.5 1.5 0 01-.4 0l-1.4-.5h-.2a1.1 1.1 0 01-.1-.2 2 2 0 01-.7-.7h-.3l-5.8 1a2 2 0 01-1 .7 1.4 1.4 0 01-.5.1zm-.2-6.6v.6c0 .5.3.5.4.5h3.3v1.1l-4.2.6h-.3l.6 2v.1a.5.5 0 00.4.2c.2 0 .4-.2.5-.6a1810 1810 0 008.6-1.3s.3 0 .3-.4a4 4 0 01.1-.9c0-.5-.2-.5-.3-.5l-1.7.3-2 .3v-.9h3.2c.1 0 .4 0 .4-.5V31c0-.4-.2-.5-.4-.5h-3.2v-1h3c.5 0 .6-.2.6-.4v-5.7c0-.2-.1-.5-.5-.5h-3.1v-.8h3.8a.3.3 0 00.3-.2.9.9 0 000 .2v.7c0 .4.2.5.5.5h1.8a41 41 0 01-.3 4.5 15.6 15.6 0 01-1 4 12.3 12.3 0 01-1.7 3 .5.5 0 00.2.5l1.3.4h.4a16.9 16.9 0 001.5-3 22.2 22.2 0 001.2-5.4l.2-4h2c0 2.9 0 5-.2 6.3a18 18 0 01-.4 3.2c-.2.7-.5.8-.8.8h-2v.4a3 3 0 01.5 1c0 .5 1 .6 1.6.6a2 2 0 002.3-1.6 20.4 20.4 0 00.7-4.2l.2-7.7c0-.4-.3-.5-.5-.5h-3.2a133.3 133.3 0 00.2-3.4.6.6 0 00.4-.5c0-.2-.2-.4-.5-.5H177c-.5 0-.5.2-.5.3a26 26 0 010 4h-1.8a.4.4 0 00-.5.3 1 1 0 000-.2V21c0-.5-.3-.5-.3-.5h-3.8v-1a16 16 0 002.4-.7 1.1 1.1 0 01.2 0l.5.2c.3 0 .5-.1.5-.5 0-.3-.1-.5-1-1.3a.6.6 0 00-.4-.1 1 1 0 00-.4 0 12.8 12.8 0 01-3.4 1 33.5 33.5 0 01-4.4.2h-.3v.2a.7.7 0 00.2.4 1.6 1.6 0 01.2.6.6.6 0 00.6.5c1.1 0 2.3 0 3.3-.2v.7h-3.8c-.2 0-.5 0-.5.4v.7c0 .5.4.5.5.5h3.8v.8H165c-.4 0-.6.2-.6.5v5.7a.5.5 0 00.6.5h3.1v.9H165s-.4 0-.4.5zm-62.4 0v.6c0 .5.3.5.4.5h3.3v1.1l-4.2.6h-.3l.6 2v.1a.5.5 0 00.4.2c.2 0 .4-.2.5-.6a1367.8 1367.8 0 008.6-1.3s.3 0 .3-.4a4 4 0 01.1-.9c0-.5-.2-.5-.3-.5l-1.7.3-2 .3v-.9h3.2c.1 0 .4 0 .4-.5V31c0-.4-.2-.5-.4-.5h-3.2v-1h3c.5 0 .6-.2.6-.4v-5.7c0-.2-.1-.5-.5-.5h-3.1v-.8h3.8a.3.3 0 00.3-.2.7.7 0 000 .2v.7c0 .4.2.5.5.5h1.8a40.8 40.8 0 01-.3 4.5 15.9 15.9 0 01-1 4 12.4 12.4 0 01-1.7 3 .5.5 0 00.2.5l1.3.4h.4a17 17 0 001.5-3 22.3 22.3 0 001.2-5.4l.2-4h2c0 2.9 0 5-.2 6.3a18.6 18.6 0 01-.4 3.2c-.2.7-.5.8-.8.8h-2.1v.4a3.2 3.2 0 01.5 1c0 .5 1 .6 1.6.6A2 2 0 00119 34a20.7 20.7 0 00.6-4.2c.2-1.6.3-4.1.3-7.7 0-.4-.3-.5-.5-.5h-3.2a134.3 134.3 0 00.2-3.4.6.6 0 00.4-.5c0-.2-.2-.4-.5-.5h-1.5c-.5 0-.5.2-.5.3v4.1h-1.8a.5.5 0 00-.5.2 1 1 0 000-.2V21c0-.5-.3-.5-.3-.5h-3.9v-1a16 16 0 002.5-.7 1.1 1.1 0 01.2 0l.5.2c.3 0 .5-.1.5-.5 0-.3-.2-.5-1-1.3a.6.6 0 00-.4-.1 1 1 0 00-.4 0 12.7 12.7 0 01-3.4 1 33.6 33.6 0 01-4.4.2h-.3v.2a.7.7 0 00.2.4 1.6 1.6 0 01.2.6.6.6 0 00.6.5c1.1 0 2.3 0 3.3-.2v.7H102c-.2 0-.5 0-.5.4v.7c0 .5.4.5.5.5h3.8v.8h-3.1c-.4 0-.6.2-.6.5v5.7a.5.5 0 00.6.5h3.1v.9h-3.3s-.4 0-.4.5zm43.9-2v.7a.5.5 0 00.5.6h3.7a3.6 3.6 0 01-.3.6 4.5 4.5 0 01-1 1.2 6.2 6.2 0 01-1.8 1.1 7 7 0 01-2 .7.4.4 0 00-.3.4.6.6 0 00.2.4 5.1 5.1 0 01.5.7.7.7 0 00.7.4h.1l1.7-.7a9.2 9.2 0 002-1.3 5.1 5.1 0 001.3-1.5 9.6 9.6 0 00.9-1.8 2.1 2.1 0 00.1-.2h5a10 10 0 01-.3 1.6 2.3 2.3 0 01-.5 1.2c-.2.2-.5.4-1.1.4a9.4 9.4 0 01-1.7-.2h-.3v.5a2.6 2.6 0 01.5 1c0 .6.9.6 1.5.6 1.4 0 2.2-.2 2.6-.7a4.8 4.8 0 00.8-2 20.3 20.3 0 00.3-3.6.5.5 0 00-.5-.6h-6l.1-.2a.3.3 0 01.2-.2.7.7 0 00.2-.4c0-.1 0-.3-.4-.4l-1.4-.3c-.2 0-.4 0-.5.5a7.4 7.4 0 010 1h-4.3a.5.5 0 00-.5.6zm-12.3-10.7v16.9a.5.5 0 00.5.5h.8a.5.5 0 00.6-.5V19.6h3l-2.5 5a1.2 1.2 0 00-.1.4.6.6 0 00.2.4 10.3 10.3 0 012 2.9 6.3 6.3 0 01.5 2.3 1.5 1.5 0 01-.4 1v.1a1.2 1.2 0 01-1 .5l-1-.2a.5.5 0 00-.5.5v.1a2.2 2.2 0 01.3 1c0 .1.1.5.8.5a3.6 3.6 0 001.9-.3 2.7 2.7 0 001.4-1.2 4.4 4.4 0 00.4-2 8.1 8.1 0 00-.7-3.2 9.4 9.4 0 00-1.7-2.5l-.1-.2a.6.6 0 010-.2L141 19c0-.3-.2-.5-.6-.8a1.2 1.2 0 00-.7-.2h-5.5c-.4 0-.5.3-.5.5zm-3.6 16.2v.7c0 .2.1.5.6.5h.7a.5.5 0 00.6-.5v-6.7a.5.5 0 00-.6-.5H124a.5.5 0 00-.5.5v6.7c0 .2.1.5.5.5h.8a.5.5 0 00.6-.5v-.7zm23.8-2.7a8 8 0 001.5.2V32h-1.7zm-16.8-1.3h.1a3.7 3.7 0 00-.1-.8zm22.3-3.6v2.3a.5.5 0 00.6.5h.7a.5.5 0 00.6-.5v-3.5c0-.3-.1-.5-.6-.5h-1a4.3 4.3 0 00.7-.7.5.5 0 00.2-.3c0-.2 0-.3-.3-.4a9.2 9.2 0 01-2-1.4 8.2 8.2 0 01-1-1v-.3a10.7 10.7 0 00.2-1.7v-1.2a.5.5 0 010-.4.5.5 0 00.4-.4c0-.3-.2-.3-.3-.3h-.4L156 17c-.1 0-.3 0-.3.5v2a7 7 0 01-.2 1.5 3.9 3.9 0 01-.5 1.4 3.2 3.2 0 01-.8 1 7.7 7.7 0 01-1.7 1h-.1v.2a.5.5 0 00.2.4 2.4 2.4 0 01.4.3h-1.4a4 4 0 00.5-.5.5.5 0 00.2-.4s0-.3-.3-.3a8.9 8.9 0 01-2-1.4 6.5 6.5 0 01-.9-1 3.7 3.7 0 00.1-.5 12 12 0 00.2-1.7v-1.2a.4.4 0 010-.3.5.5 0 00.4-.5c0-.2-.3-.2-.3-.2h-.4L148 17c-.1 0-.4 0-.4.4v2a7.3 7.3 0 01-.1 1.5 4.1 4.1 0 01-.5 1.4 4 4 0 01-.9 1 7.7 7.7 0 01-1.6 1h-.1v.2a.5.5 0 00.2.4 3.2 3.2 0 01.4.3h-.9a.5.5 0 00-.5.5v3.5a.5.5 0 00.5.5h.8a.5.5 0 00.6-.5V27zm-37.2-1.2v.7a.5.5 0 00.5.5h10.1a.5.5 0 00.5-.5v-.7a.5.5 0 00-.5-.5h-2.3a15.2 15.2 0 001.1-2.7h.1a.5.5 0 00.4-.5c0-.2-.1-.4-.4-.5l-.7-.3h1.4c.2 0 .4-.1.4-.5V20c0-.4-.2-.5-.4-.5h-3.6v-1.3a.6.6 0 010-.2.5.5 0 00.4-.6c0-.3-.4-.3-.6-.4a9 9 0 00-1.2 0c-.4 0-.5.2-.5.4v2H123a.5.5 0 00-.5.6v.7a.5.5 0 00.5.5h1.8c-1 .5-1 .7-1 .9a10.7 10.7 0 01.7 1.9 9.4 9.4 0 01.3 1.2h-2.2a.5.5 0 00-.5.5zm22.8-7.2a6.7 6.7 0 01-.4 1.7 7 7 0 01-.6 1.2v.1a.4.4 0 00.3.4 7.1 7.1 0 011 .3h.1a.4.4 0 00.4-.2 6.2 6.2 0 00.4-.8 7.8 7.8 0 00.6-1.8.5.5 0 00.4-.5c0-.3-.2-.5-1.6-.8-.5 0-.6.3-.6.4zm13.9 0a5.4 5.4 0 01-.4 1.3 8.3 8.3 0 01-.7 1.2.6.6 0 000 .3c0 .2 0 .2.2.3l.8.3a.8.8 0 00.4.2.5.5 0 00.4-.3 9.7 9.7 0 001-2.2h.1a.4.4 0 00.3-.4c0-.3-.2-.4-.4-.5l-1.3-.6c-.3 0-.4.3-.4.4zm-5.7 0a9 9 0 01-.3 1.7 6 6 0 01-.5 1v.1a.4.4 0 00.3.5 10.5 10.5 0 011.1.3.4.4 0 00.4-.2l.4-.8a9 9 0 00.4-1.7.5.5 0 00.3-.5c0-.2-.2-.4-1.6-.7a.4.4 0 00-.5.4zm-2.5 0a5.7 5.7 0 01-.4 1.2 7.5 7.5 0 01-.7 1.2.6.6 0 000 .2 57.6 57.6 0 001 .6.8.8 0 00.3.2.5.5 0 00.4-.2 10.4 10.4 0 001-2.2.4.4 0 00.4-.4c0-.2-.2-.4-.5-.5l-1.1-.5c-.3 0-.4.3-.4.4zm111.3 19a2.1 2.1 0 01-1.6-.7h-5.5a2.1 2.1 0 01-1.6.6h-.7a2 2 0 01-2.1-2v-2.9l-1.7.5a1.5 1.5 0 01-.3 0 2 2 0 01-2-1 1 1 0 00-.2-.1 1.5 1.5 0 01-.3-.3 2.3 2.3 0 01-.3-.3 2 2 0 01-.4 1.6 1.8 1.8 0 01.8 1.6 2 2 0 01-.7 1.5l-.5.6a2.2 2.2 0 01-1.7.8 1.5 1.5 0 01-.4 0h-.1a14.6 14.6 0 01-2.8-1.4 17 17 0 01-1-.7h-.1a1.5 1.5 0 01-.8.4 145.5 145.5 0 01-6 1.2 2 2 0 01-1.4.5 2 2 0 01-1.8-1.2l-.1.2v.1a1.5 1.5 0 01-1.3.7h-.2a2.2 2.2 0 01-1-.2 1.6 1.6 0 01-.4-.3 1.5 1.5 0 00-.3-.3h-.1a1.5 1.5 0 01-.5-.5 1.1 1.1 0 01-.1-.2 2 2 0 01-.3.3 1.1 1.1 0 010 .1l-.6.5a2 2 0 01-1.5.8 2.3 2.3 0 01-.9-.2l-1.6-.5a15 15 0 01-1.2-.5 10.7 10.7 0 01-1 .5 12 12 0 01-2.2.7 1.4 1.4 0 01-.4 0 2.1 2.1 0 01-1.6-.6 4.5 4.5 0 01-2.5.6 5.1 5.1 0 01-2.1-.3 2 2 0 01-1.2-1.5 2.2 2.2 0 00-.3-.4 1.5 1.5 0 01-.4-1v-.5a1.4 1.4 0 010-.3l-.4-.1a1.9 1.9 0 01-1.5-1.9 1.5 1.5 0 010-.5l.1-.1a7.1 7.1 0 00.4-1v-.2a10.6 10.6 0 00.4-1.4v-.1a14.5 14.5 0 00.3-1.7 1.9 1.9 0 010-.3 2.1 2.1 0 01-1.9-1l-.4-.5a2 2 0 01-.4-1.2 1.8 1.8 0 011.5-1.8 1.2 1.2 0 01.1 0h.4a1.5 1.5 0 01-.1-.7v-.2a3 3 0 01.9-1.8v-.7a2 2 0 01.7-1.5 1.9 1.9 0 011.3-.5h5.5a2.3 2.3 0 01.7.1 9.4 9.4 0 011.1-.4 1.5 1.5 0 01.6-.1 2 2 0 011.4.6 1.4 1.4 0 01.2.2v.1a1.7 1.7 0 01.2-.2 1.9 1.9 0 011.4-.6 1.5 1.5 0 011 .3l1 .8a2.3 2.3 0 01.7.7 1.5 1.5 0 01.6.2l1 .8a2.1 2.1 0 011 1.8 1.9 1.9 0 01-.2 1h.4a1.5 1.5 0 011 1.5v.2a2 2 0 01-.7 1.5 4 4 0 00-.2.3l-.2.2a2 2 0 01.2.7 1.4 1.4 0 010 .4 11 11 0 01-.6 2 .7.7 0 01-.1.1 2.5 2.5 0 01-.5.7 1.9 1.9 0 010 .4 1.5 1.5 0 010 .6h-.1a17 17 0 01-1 2.2l-.1.3.8.2h.1a2 2 0 011.2.8 9.4 9.4 0 00.8-2 19.8 19.8 0 00.6-3 43.4 43.4 0 00.2-4.4v-6a2 2 0 012-2h14.7a2 2 0 012 2V22a2 2 0 01-.5 1.4 2 2 0 01.7 1.6v.7a2.2 2.2 0 01-.2.8 2 2 0 011.2 1.9v.2a1.7 1.7 0 01.3-.1 2.1 2.1 0 01-.4-1.3v-.7a1.9 1.9 0 011.9-2h.6v-.7a2 2 0 01-2-2v-3.7a2 2 0 012-2h15.4a2 2 0 012.1 2v3.7a2 2 0 01-1 1.7 2 2 0 01-.3 1 1.9 1.9 0 011.2.6 2 2 0 01.6 1.4v.7a2 2 0 01-1.9 2v6.2a2 2 0 01-2 2zm-.6-2.2v.1c0 .3.1.5.6.5h.7c.4 0 .6-.2.6-.5v-6.3c0-.2-.2-.5-.6-.5h-6.3l.3-.1 1.3-.8h6.7c.1 0 .5 0 .5-.5v-.7c0-.3-.3-.5-.5-.5h-4.4l2.4-2a.5.5 0 01.2-.2h.3a.5.5 0 00.6-.4c0-.1 0-.2-1-1h1.3c.4 0 .6-.3.6-.6v-3.7c0-.2-.2-.5-.6-.5h-15.4c-.4 0-.5.3-.5.5V22c0 .3.1.5.5.5h6.2a.5.5 0 000 .3v.7h-4.3s-.4 0-.4.5v.6c0 .5.3.6.4.6h4.2v1h-6.7s-.4 0-.4.5v.7c0 .4.3.5.4.5h6.6A22.5 22.5 0 01252 29a21.6 21.6 0 01-2.5.7l-2.1.3c-.4 0-.5.3-.5.4a.6.6 0 00.2.4 2 2 0 01.7.7c.1.2.5.2.6.2l3.6-1v5c0 .2.1.4.6.4h.7c.5 0 .6-.2.6-.5v-.1zm-25-5.7a16.1 16.1 0 001.2 2.3 9.5 9.5 0 001.4 1.6 11.2 11.2 0 001.6 1.2 13 13 0 002.6 1.2.7.7 0 00.6-.2l.5-.7a.6.6 0 00.3-.5.4.4 0 00-.4-.4l-1-.2a11.9 11.9 0 01-1.5-.8l1.3-1a.5.5 0 01.3-.1h.5a.4.4 0 00.5-.4c0-.2-.1-.4-1.2-1.2a.7.7 0 00-.5-.2.9.9 0 00-.5.2 19.7 19.7 0 01-2 1.6 6.9 6.9 0 01-1.1-1.3 9.7 9.7 0 01-.7-1.1h6a.5.5 0 00.5-.6v-.6a.5.5 0 00-.5-.6h-3.8v-1.6h2.8a.5.5 0 00.5-.5V25a.5.5 0 00-.5-.5h-2.8V24a.5.5 0 010-.2.5.5 0 00.4-.5c0-.4-.4-.4-.6-.5a7.7 7.7 0 00-1.1 0 .5.5 0 00-.6.5v1.3h-3.4V24a.5.5 0 010-.2.5.5 0 00.4-.5c0-.4-.4-.4-.6-.5a7.8 7.8 0 00-1.1 0c-.4 0-.6.2-.6.5v1.3h-2.5c-.2 0-.5.1-.5.5v.7c0 .4.3.5.5.5h2.5V28h-3.6l.1-3.6v-1.6h13.3a.5.5 0 00.5-.6v-3.8a.5.5 0 00-.5-.5h-14.6a.5.5 0 00-.6.5v6c0 1.7 0 3.3-.2 4.5a21.5 21.5 0 01-.7 3.4 10.5 10.5 0 01-1 2.3v.1a.7.7 0 00.1.5 2.8 2.8 0 01.8.6.7.7 0 00.3 0h.2a8.5 8.5 0 001-2.1 15 15 0 001-3.6v-.3h2.9v3.9l-2.5.3h-.3v.3c.7 1.7.9 1.8 1.1 1.8s.4-.2.6-.6l6.5-1v-.1c.2-.1.3-.3.3-1.3a.4.4 0 00-.5-.4.4.4 0 00-.2 0c-1 .3-2 .5-3.1.6v-3.5zm-16 5.7l1.6.5a1.1 1.1 0 00.4.1.6.6 0 00.4-.2 9.4 9.4 0 01.6-.7.6.6 0 00.2-.4c0-.2-.1-.3-.3-.4a16.5 16.5 0 01-2.5-.6l-.6-.2.2-.3a9.1 9.1 0 001-1.5 16 16 0 001-2v-.1c0-.1 0-.3-.5-.7a.8.8 0 00-.5-.2h-6.8a.4.4 0 00-.4.5v.6c0 .5.3.6.4.6h.3a7.5 7.5 0 00.8 1.6 5.3 5.3 0 001.2 1.4l.1.2a9 9 0 01-1.4.5 13.3 13.3 0 01-1.3.4.3.3 0 00-.3.3.5.5 0 00.1.4l.4.6a.6.6 0 00.6.2 10.4 10.4 0 002-.6 8.8 8.8 0 001.5-.7 13.4 13.4 0 001.8.7zm-11.9-1a3 3 0 01.6 1c0 .3.3.6 1.9.6 1 0 1.8-.2 2-.8a5.6 5.6 0 00.6-1.9 22.7 22.7 0 00.3-3.4.5.5 0 00-.5-.5h-4.2l.2-1h3.8a.5.5 0 00.6-.5v-4.3c0-.3-.2-.5-.6-.5H211a8.4 8.4 0 001.5-1 8 8 0 001.2-1.4 10.8 10.8 0 001-2h.1c0-.2 0-.3-.4-.7a.8.8 0 00-.5-.2h-5.5c-.2 0-.4.1-.4.5v.6c0 .5.3.5.4.5h4a2.3 2.3 0 01-.2.2 4.6 4.6 0 01-1 1.3 7.5 7.5 0 01-.7.5l-.9-.7a16.6 16.6 0 00-1.6-1 .4.4 0 00-.4.2c-.6.7-.6.8-.6 1l.1.2a8.8 8.8 0 011.1.6l.7.5a11.9 11.9 0 01-1.9.6l-1.6.4c-.3 0-.3.2-.3.3a.5.5 0 00.1.3l.4.6a.6.6 0 00.6.3 17 17 0 001.8-.4c0 .4.2.5.4.5h3.6v1.9h-2.6l-.3-.2-.9-.3a.4.4 0 00-.5.4 15.5 15.5 0 01-.3 2 12 12 0 01-.4 1.6 9.3 9.3 0 01-.4 1.3c0 .1 0 .3.3.4l1 .2a1.4 1.4 0 00.3 0c.2 0 .3-.1.3-.2l.3-.8h3.3a12.4 12.4 0 01-.1 1.5 2.7 2.7 0 01-.4 1.2c0 .2-.3.3-.7.3a12 12 0 01-2-.2h-.4zm22-2.1h.3v-1.1l-.3 1zm-15-8.7v1.2a5 5 0 01-.2 1.1 2.4 2.4 0 01-1 1.2v.2a.6.6 0 00.1.4l.5.7a.8.8 0 00.6.2h.1a4.4 4.4 0 00.9-.8 3 3 0 00.6-1.2 6.8 6.8 0 00.2-1.7v-.1h1.9v2.8a.7.7 0 00.3.6 2.7 2.7 0 001.1.2h1.4a1 1 0 001-.6 10.2 10.2 0 00.5-1.8.5.5 0 00-.4-.6 6.4 6.4 0 01-.6-.2.7.7 0 00-.4 0 .3.3 0 00-.3.2 4.5 4.5 0 01-.2 1l-.2.1h-.1a.9.9 0 01-.3 0v-2.8a17.4 17.4 0 002.2.8h.1a.6.6 0 00.5-.2 5.7 5.7 0 01.5-.6.4.4 0 00.3-.4V23h-.2a17.3 17.3 0 01-2-.8 8 8 0 01-.8-.3 13.7 13.7 0 001-1 .3.3 0 01.2 0c.4 0 .5-.2.5-.4a.6.6 0 00-.3-.5l-1.1-.8a.4.4 0 00-.4.2 5.5 5.5 0 01-.6.8 5.7 5.7 0 01-.8.6l-.2.2a10 10 0 01-.9-.7 11.2 11.2 0 001.4-1 .3.3 0 01.1 0 .4.4 0 00.5-.5.7.7 0 00-.3-.5l-1.1-.9h-.1a.4.4 0 00-.3.2 3.6 3.6 0 01-.6.8 4.7 4.7 0 01-.8.6 18.3 18.3 0 01-1.2-1.5.5.5 0 00-.3-.2h-.1c-1.1.4-1.3.5-1.3.7v.1a23.2 23.2 0 001.8 2.4 14.2 14.2 0 001.8 1.6l1.3.9h-3.9a.5.5 0 00-.4.5zm-.6-2l-.3.4a2 2 0 011-.4l-.4-.4-.3.3zM84 37.3a2.2 2.2 0 01-2-1.1 3.3 3.3 0 00-.4-.5 2 2 0 01-.6-1.4 2 2 0 011.2-1.8 1.5 1.5 0 01.2 0h.1a5.6 5.6 0 001.5-.6h.2l.2-.1H84a2 2 0 01-1.4-.6 2 2 0 01-.3 0h-.8a2 2 0 01-2-2v-3.5a2 2 0 01.8-1.6 1.5 1.5 0 01.5-1 1.9 1.9 0 01-.9-1.6 1.5 1.5 0 01.3-1 5.6 5.6 0 00.6-.8 5.4 5.4 0 00.2-1.4 2 2 0 012-1.7 1.5 1.5 0 01.3 0h.1l.2.1a1.8 1.8 0 011.8-1.2 1.3 1.3 0 01.1 0 55.1 55.1 0 011.7.2 1.8 1.8 0 011.4 1 1.5 1.5 0 01.6 0l.8.4a2 2 0 011.1-.4 1.5 1.5 0 01.4 0l.2.1a1.8 1.8 0 011.8-1.4h.1a43.5 43.5 0 011.7.2 1.8 1.8 0 011.4 1 1.5 1.5 0 01.7.1l1.2.6a2 2 0 011.4 1.9 1.9 1.9 0 01-.7 1.4 10.5 10.5 0 01-.9 1.9 1.8 1.8 0 011.2 1.7 2 2 0 01.7 1.5v3.5a2 2 0 01-2 2H98a13.3 13.3 0 01-.2 1.8 6.3 6.3 0 01-1 2.5C95.8 37 94.2 37 93 37a5 5 0 01-1.4-.1 2.1 2.1 0 01-1.6-1.7 1.8 1.8 0 00-.2-.4 1.5 1.5 0 01-.3-.7 7 7 0 01-1 1 10.8 10.8 0 01-2.2 1.4l-1.9.8h-.1a1.4 1.4 0 01-.4 0zm-.3-8.2v.6a.5.5 0 00.5.6h3.7a3.4 3.4 0 01-.3.6 4.4 4.4 0 01-1 1.2 6.2 6.2 0 01-1.8 1.1 7 7 0 01-2 .7.4.4 0 00-.3.4.5.5 0 00.2.4 4.8 4.8 0 01.5.7.7.7 0 00.7.4h.1l1.7-.7a9.3 9.3 0 002-1.3 5.2 5.2 0 001.3-1.5 10 10 0 00.9-1.8v-.2h5a10 10 0 01-.2 1.6 2.2 2.2 0 01-.5 1.2c-.2.3-.6.4-1.1.4a9.4 9.4 0 01-1.7-.2H91v.5a2.6 2.6 0 01.5 1c0 .6.9.6 1.5.6 1.4 0 2.2-.2 2.6-.7a4.8 4.8 0 00.8-2 20.6 20.6 0 00.3-3.6.5.5 0 00-.5-.6h-6l.1-.2a.3.3 0 01.2-.2.7.7 0 00.2-.4c0-.1 0-.3-.4-.4l-1.4-.2c-.2 0-.4 0-.5.4a7 7 0 010 1H84a.5.5 0 00-.5.6zm8 2.7a8 8 0 001.4.2v-.2h-1.7zM97 27v2.3a.5.5 0 00.6.6h.7a.5.5 0 00.6-.6v-3.5c0-.3-.1-.5-.6-.5h-1a4.4 4.4 0 00.7-.7.5.5 0 00.2-.3c0-.2 0-.3-.3-.4a9.3 9.3 0 01-2-1.3 8.3 8.3 0 01-1-1.1v-.3a10.7 10.7 0 00.2-1.7v-1.2a.5.5 0 010-.3.5.5 0 00.4-.5c0-.2-.3-.3-.3-.3h-.4l-1.2-.2c-.1 0-.4 0-.4.5v2a7.3 7.3 0 01-.1 1.5 3.9 3.9 0 01-.5 1.4 3.3 3.3 0 01-.8 1 7.7 7.7 0 01-1.7 1H90v.2a.5.5 0 00.2.4 2.5 2.5 0 01.4.3h-1.4a3.8 3.8 0 00.5-.5.5.5 0 00.2-.4s0-.2-.3-.3a8.9 8.9 0 01-2-1.4 6.4 6.4 0 01-.9-1 3.7 3.7 0 00.1-.5 12 12 0 00.1-1.7v-1.2a.4.4 0 01.1-.3.5.5 0 00.4-.4c0-.3-.3-.3-.3-.3h-.4l-1.2-.2c-.1 0-.4 0-.4.5v1.9A7.3 7.3 0 0185 21a4.2 4.2 0 01-.5 1.4 4 4 0 01-.9 1 7.7 7.7 0 01-1.6 1h-.1v.2a.5.5 0 00.2.4 3 3 0 01.4.3h-.9a.5.5 0 00-.5.5v3.5a.5.5 0 00.5.5h.8a.5.5 0 00.6-.5V27zm-14.4-8.4a6.9 6.9 0 01-.4 1.8 7.2 7.2 0 01-.6 1v.2a.4.4 0 00.3.5 7.1 7.1 0 011 .2h.1a.4.4 0 00.4-.2 5.8 5.8 0 00.4-.8 7.8 7.8 0 00.6-1.8.5.5 0 00.4-.5c0-.3-.3-.4-1.6-.8-.5 0-.6.3-.6.4zm13.9 0A5.3 5.3 0 0196 20a8.5 8.5 0 01-.6 1.2.6.6 0 000 .3c0 .2 0 .3.2.3l.8.3a.8.8 0 00.4.2.5.5 0 00.4-.3 9.7 9.7 0 001-2.2h.1a.4.4 0 00.3-.4c0-.2-.2-.4-.4-.5l-1.3-.6c-.3 0-.4.3-.4.4zm-5.7 0a9.1 9.1 0 01-.3 1.7 6.2 6.2 0 01-.5 1v.1a.4.4 0 00.3.5 10.2 10.2 0 011.1.3.4.4 0 00.4-.2l.4-.8a9.5 9.5 0 00.4-1.7.5.5 0 00.3-.4c0-.3-.2-.5-1.6-.8a.4.4 0 00-.5.4zm-2.5 0a6 6 0 01-.4 1.2 7.7 7.7 0 01-.7 1.2.6.6 0 00-.1.2c0 .2.2.3.3.4l.7.3a.8.8 0 00.4.1.5.5 0 00.4-.2 10.3 10.3 0 001-2.1v-.1a.4.4 0 00.4-.4c0-.2-.2-.4-.5-.5l-1-.5h-.1c-.3 0-.4.3-.4.4zm107.2 18.5a2 2 0 01-1.8-1.6 4 4 0 00-.3-.7 1.5 1.5 0 01-.1-.8v-.5A1.5 1.5 0 01195 32h.3a12.7 12.7 0 002 .2 1.8 1.8 0 00.3 0 3 3 0 000-.3 15.4 15.4 0 00.6-2.8 45.4 45.4 0 00.3-4.8h-3a19.3 19.3 0 01-.6 3 15.8 15.8 0 01-1 2.9 12.1 12.1 0 01-1.7 3h-.1a12.9 12.9 0 01-1.8 1.8 11.3 11.3 0 01-3.2 2 1.5 1.5 0 01-.6.1 2 2 0 01-1.7-.8l-.5-.5a.7.7 0 01-.1 0 2 2 0 01-.7-1.5 1.8 1.8 0 011.3-1.8 9.1 9.1 0 001.7-1 .1.1 0 01.1 0 8 8 0 001.4-1.3 7.2 7.2 0 001.3-2 12.3 12.3 0 00.9-2.4 8.8 8.8 0 00.3-1.5h-4a2 2 0 01-2-2v-.8a2 2 0 012-2h4.3v-1.9a1.8 1.8 0 011.9-1.9h.1l1.7.2a3.7 3.7 0 01.9.2 1.8 1.8 0 011.1 1.7 2 2 0 01-.6 1.5v.2h5.6a2 2 0 012 2l-.1 7.4a23.4 23.4 0 01-.9 4.6 5.4 5.4 0 01-1.6 2.8 5.1 5.1 0 01-3.5 1 13.1 13.1 0 01-1.9-.2zm-.7-3a5.2 5.2 0 01.4 1c0 .2 0 .4.5.5a11.8 11.8 0 001.7.1 3.8 3.8 0 002.5-.6 4 4 0 001.2-2 22 22 0 00.7-4.3c.2-1.6.2-4 .2-7.2a.5.5 0 00-.5-.6h-7.2v-2.2c.1-.4.2-.5.3-.5a.6.6 0 00.4-.5c0-.3-.3-.3-.7-.4l-1.6-.2s-.4 0-.4.4V21h-5.9a.5.5 0 00-.5.5v.8a.5.5 0 00.5.5h5.8l-.1.7a11.4 11.4 0 01-.4 2.6 14 14 0 01-1 2.8 8.8 8.8 0 01-1.5 2.2 9.5 9.5 0 01-1.8 1.6 11.4 11.4 0 01-2.1 1.2.3.3 0 00-.3.4s0 .2.2.3l.7.7a.6.6 0 00.5.3h.1a9.8 9.8 0 002.8-1.7 11.5 11.5 0 001.7-1.6 10.7 10.7 0 001.6-2.7 14.3 14.3 0 00.9-2.7 17.9 17.9 0 00.6-3.2v-.9h5.9a58.4 58.4 0 01-.3 6.5 17 17 0 01-.6 3 2.1 2.1 0 01-.6 1.1 1.8 1.8 0 01-1.2.3 14.5 14.5 0 01-2.3-.2h-.3zm59.1-.4V33h7.5v.8zM125.3 33v-3h4.8v3zm1.5-1.5h1.8-1.8zm91.2.6a5.8 5.8 0 01-1-1.3 3 3 0 01-.2-.3h3.3l-.2.3a5.1 5.1 0 01-.8 1.4 7 7 0 01-.5.4 5 5 0 01-.6-.5zm36-.8v-.8h7.4v.8zM170.1 28v-.8h1.7v.8zm-3.8 0v-.8h1.8v.8zm-58.6 0v-.8h1.7v.8zm-3.8 0v-.8h1.8v.8zm131.2 0v-1.7h3.4V28zm21.5-1.9v-1h2.2l-1 .7a3.4 3.4 0 01-.5.3zm-86.5-.6v-.8h1.7v.8zm-3.8 0v-.8h1.8v.8zm-58.6 0v-.8h1.7v.8zm-3.8 0v-.8h1.8v.8zm50.4-.2a5.5 5.5 0 001-.8 5.8 5.8 0 001.2-1.2 7.8 7.8 0 00.5.6 9.5 9.5 0 001.6 1.4zm-8.1 0a6.7 6.7 0 001-.8 5.1 5.1 0 001-1l.6.6a9 9 0 001.3 1.2zm-19.8 0l.3-.3a18 18 0 00-1.4-3.6h4.6a.9.9 0 000 .1 7.8 7.8 0 01-.6 1.6 12.9 12.9 0 01-.8 1.4.5.5 0 000 .3c0 .2.1.3.3.3l.3.2zm-34.5 0a5.4 5.4 0 001-.8 5.7 5.7 0 001.2-1.2 7.7 7.7 0 00.5.6 9.5 9.5 0 001.6 1.4zm-8.1 0a6.5 6.5 0 001-.8 5 5 0 001-1l.6.6a9 9 0 001.3 1.2zm176.3-1.4c0-.5-.4-.5-.5-.5h-3a.7.7 0 010-.1.5.5 0 00.4-.6.3.3 0 00-.1-.3h4.6a10.4 10.4 0 01-1.4 1.5zm-30.4-3v-1.4h12V21zm30-.2v-1.3h3v1.3zm-5 0v-1.3h3.1v1.3zm-4.7 0v-1.3h2.8v1.3z" /></g></g></svg>