<svg xmlns="http://www.w3.org/2000/svg" width="1040" height="87"><defs><clipPath id="a"><path fill="#fff" d="M0 0h1040v87H0z" data-name="Rectangle 173377" transform="translate(-8826 -3634)"/></clipPath></defs><g clip-path="url(#a)" data-name="Mask Group 83914" transform="translate(8826 3634)"><g data-name="Group 220311"><path fill="#86c9cf" d="m-8792-3250 41 59 35-10-42-59z" data-name="Path 256761"/><g data-name="Group 220310"><path fill="#86c9cf" d="M-8632-3223s-5-10-1-34a95 95 0 0 0 0-36l-35 9s6 9-1 42c-3 19 2 28 2 28z" data-name="Path 256762"/><path fill="#dddddc" d="M-8624-3225s-1-12-17-30a95 95 0 0 1-18-31l35-9s0 9 22 35c12 14 13 26 13 26z" data-name="Path 256763"/><path fill="#ffb900" d="m-8634-3246 1-11a95 95 0 0 0 0-36l-26 7a95 95 0 0 0 18 31l7 8" data-name="Path 256764"/><path fill="#86c9cf" d="M-8751-3261s5 7 1 24c-9 35-1 46-1 46l35-10s-6-14 1-41c5-19-1-29-1-29z" data-name="Path 256765"/><path fill="#dddddc" d="m-8757-3260-7 72-35 10 7-72z" data-name="Path 256766"/><path fill="#ffb900" d="M-8799-3249s0 9 12 22c25 26 23 39 23 39l-35 10s-2-16-22-35c-13-14-13-26-13-26z" data-name="Path 256767"/><path fill="#e85620" d="M-8787-3227a57 57 0 0 1-7-8l-5 57 35-10c0-1 1-14-23-39" data-name="Path 256768"/><path fill="#dddddc" d="m-8690-3278-34 9 17 66 35-9a34 34 0 0 0-18-66" data-name="Path 256769"/></g><g data-name="logo_content"><path fill="#86c9cf" d="m-8873-3552 41 59 35-10-41-59z" data-name="Path 256761"/><g data-name="Group 220310"><path fill="#86c9cf" d="M-8713-3525s-5-10-1-35a95 95 0 0 0 0-35l-35 9s6 8-1 42c-3 18 2 28 2 28z" data-name="Path 256762"/><path fill="#dddddc" d="M-8705-3527s-1-12-17-30a95 95 0 0 1-18-31l35-10s0 10 22 36c12 14 13 25 13 25z" data-name="Path 256763"/><path fill="#ffb900" d="m-8715-3549 1-11a95 95 0 0 0 0-35l-26 7a95 95 0 0 0 18 31l7 8" data-name="Path 256764"/><path fill="#86c9cf" d="M-8832-3564s5 8 1 25c-9 35-1 46-1 46l35-10s-6-14 1-41c5-19-1-29-1-29z" data-name="Path 256765"/><path fill="#dddddc" d="m-8838-3562-7 72-35 10 6-73z" data-name="Path 256766"/><path fill="#ffb900" d="M-8880-3551s0 9 12 22c25 26 23 39 23 39l-35 9s-2-15-22-35c-13-13-13-25-13-25z" data-name="Path 256767"/><path fill="#e85620" d="M-8868-3529a57 57 0 0 1-7-8l-5 57 35-10c0-1 0-14-23-39" data-name="Path 256768"/><path fill="#dddddc" d="m-8771-3580-34 9 17 66 35-9a34 34 0 0 0-18-66" data-name="Path 256769"/></g></g><g data-name="logo_content"><path fill="#86c9cf" d="m-8555-3314 42 59 35-9-42-59z" data-name="Path 256761"/><g data-name="Group 220310"><path fill="#86c9cf" d="M-8395-3287s-5-10 0-34a95 95 0 0 0 0-36l-35 9s5 9-1 42c-4 19 1 29 1 29z" data-name="Path 256762"/><path fill="#dddddc" d="M-8386-3289s-1-11-17-30a95 95 0 0 1-18-31l35-9s-1 10 22 35c12 15 13 26 13 26z" data-name="Path 256763"/><path fill="#ffb900" d="m-8397-3310 2-11a95 95 0 0 0 0-36l-26 7a95 95 0 0 0 18 31l6 9" data-name="Path 256764"/><path fill="#86c9cf" d="M-8513-3325s4 8 0 24c-8 36 0 46 0 46l35-9s-6-15 1-42c5-18-1-29-1-29z" data-name="Path 256765"/><path fill="#dddddc" d="m-8520-3323-6 72-35 9 6-72z" data-name="Path 256766"/><path fill="#ffb900" d="M-8561-3312s-1 9 11 21c25 27 23 40 23 40l-34 9s-2-15-22-35c-14-14-13-26-13-26z" data-name="Path 256767"/><path fill="#e85620" d="M-8550-3291a57 57 0 0 1-6-8l-5 57 35-9c0-1 0-14-24-40" data-name="Path 256768"/><path fill="#dddddc" d="m-8452-3341-34 9 17 65 34-9a34 34 0 0 0-17-66" data-name="Path 256769"/></g></g><g data-name="logo_content"><path fill="#86c9cf" d="m-8636-3616 42 59 35-9-42-60z" data-name="Path 256761"/><g data-name="Group 220310"><path fill="#86c9cf" d="M-8476-3589s-5-10 0-34a95 95 0 0 0 0-36l-35 9s5 9-1 42c-4 19 1 28 1 28z" data-name="Path 256762"/><path fill="#dddddc" d="M-8468-3591s0-12-17-30a95 95 0 0 1-17-31l35-9s-1 9 21 35c13 15 13 26 13 26z" data-name="Path 256763"/><path fill="#ffb900" d="m-8478-3612 2-11a95 95 0 0 0 0-36l-26 7a95 95 0 0 0 18 31l6 9" data-name="Path 256764"/><path fill="#86c9cf" d="M-8594-3627s4 7 0 24c-8 35 0 46 0 46l35-10s-6-14 1-41c5-19-1-29-1-29z" data-name="Path 256765"/><path fill="#dddddc" d="m-8601-3626-6 73-35 9 6-72z" data-name="Path 256766"/><path fill="#ffb900" d="M-8642-3614s0 9 11 21c25 26 24 39 24 39l-35 10s-2-16-22-35c-14-14-13-26-13-26z" data-name="Path 256767"/><path fill="#e85620" d="M-8631-3593a57 57 0 0 1-6-8l-5 57 35-10c0-1 0-14-24-39" data-name="Path 256768"/><path fill="#dddddc" d="m-8533-3644-35 10 18 65 34-9a34 34 0 0 0-17-66" data-name="Path 256769"/></g></g><g data-name="logo_content"><path fill="#86c9cf" d="m-8317-3378 42 59 35-9-42-59z" data-name="Path 256761"/><g data-name="Group 220310"><path fill="#86c9cf" d="M-8157-3350s-5-11 0-35a95 95 0 0 0 0-36l-35 10s5 8-2 41c-3 19 2 29 2 29z" data-name="Path 256762"/><path fill="#dddddc" d="M-8149-3352s0-12-17-30a95 95 0 0 1-18-31l35-10s0 10 22 35c13 15 13 26 13 26z" data-name="Path 256763"/><path fill="#ffb900" d="m-8159-3374 2-11a95 95 0 0 0 0-36l-27 7a95 95 0 0 0 18 31l7 9" data-name="Path 256764"/><path fill="#86c9cf" d="M-8276-3389s5 8 1 25c-8 35 0 45 0 45l35-9s-6-14 1-42c5-18-2-28-2-28z" data-name="Path 256765"/><path fill="#dddddc" d="m-8282-3387-7 72-35 9 7-72z" data-name="Path 256766"/><path fill="#ffb900" d="M-8324-3376s0 9 12 22c25 26 23 39 23 39l-35 9s-2-15-22-35c-13-14-13-26-13-26z" data-name="Path 256767"/><path fill="#e85620" d="M-8312-3354a57 57 0 0 1-7-9l-5 57 35-9c0-1 1-14-23-39" data-name="Path 256768"/><path fill="#dddddc" d="m-8215-3405-34 9 18 66 34-10a34 34 0 0 0-18-65" data-name="Path 256769"/></g></g><g data-name="logo_content"><path fill="#86c9cf" d="m-8398-3680 42 59 35-9-42-59z" data-name="Path 256761"/><g data-name="Group 220310"><path fill="#86c9cf" d="M-8238-3653s-5-10 0-34a95 95 0 0 0 0-36l-35 10s5 8-2 41c-3 19 2 29 2 29z" data-name="Path 256762"/><path fill="#dddddc" d="M-8230-3655s0-11-17-30a95 95 0 0 1-18-31l35-9s0 10 22 35c13 15 13 26 13 26z" data-name="Path 256763"/><path fill="#ffb900" d="m-8240-3676 2-11a95 95 0 0 0 0-36l-27 7a95 95 0 0 0 18 31l7 9" data-name="Path 256764"/><path fill="#86c9cf" d="M-8357-3691s5 8 1 24c-8 36 0 46 0 46l35-9s-6-15 1-42c5-18-2-28-2-28z" data-name="Path 256765"/><path fill="#dddddc" d="m-8363-3689-7 72-35 9 7-72z" data-name="Path 256766"/><path fill="#ffb900" d="M-8405-3678s0 9 12 21c25 27 23 40 23 40l-35 9s-2-15-22-35c-13-14-13-26-13-26z" data-name="Path 256767"/><path fill="#e85620" d="M-8393-3657a57 57 0 0 1-7-8l-5 57 35-9c0-1 1-14-23-40" data-name="Path 256768"/><path fill="#dddddc" d="m-8296-3707-34 9 18 65 34-9a34 34 0 0 0-18-66" data-name="Path 256769"/></g></g><g data-name="logo_content"><path fill="#86c9cf" d="m-8079-3441 41 59 35-10-42-59z" data-name="Path 256761"/><g data-name="Group 220310"><path fill="#86c9cf" d="M-7919-3414s-6-10-1-34a95 95 0 0 0 0-36l-35 9s5 8-1 42c-4 18 2 28 2 28z" data-name="Path 256762"/><path fill="#dddddc" d="M-7911-3416s-1-12-17-30a95 95 0 0 1-18-31l35-10s0 10 22 36c12 14 13 25 13 25z" data-name="Path 256763"/><path fill="#ffb900" d="m-7921-3438 1-10a95 95 0 0 0 0-36l-26 7a95 95 0 0 0 18 31l7 8" data-name="Path 256764"/><path fill="#86c9cf" d="M-8038-3453s5 8 1 25c-9 35-1 46-1 46l35-10s-6-14 1-41c5-19-1-29-1-29z" data-name="Path 256765"/><path fill="#dddddc" d="m-8045-3451-6 72-35 10 6-72z" data-name="Path 256766"/><path fill="#ffb900" d="M-8086-3440s0 9 12 22c24 26 23 39 23 39l-35 10s-2-16-22-36c-13-13-13-25-13-25z" data-name="Path 256767"/><path fill="#e85620" d="M-8074-3418a57 57 0 0 1-7-8l-5 57 35-10c0-1 0-14-23-39" data-name="Path 256768"/><path fill="#dddddc" d="m-7977-3469-34 9 17 66 35-9a34 34 0 0 0-18-66" data-name="Path 256769"/></g></g><g data-name="logo_content"><path fill="#86c9cf" d="m-8160-3744 41 60 35-10-42-59z" data-name="Path 256761"/><g data-name="Group 220310"><path fill="#86c9cf" d="M-8000-3716s-6-11-1-35a95 95 0 0 0 0-36l-35 10s5 8-1 41c-4 19 2 29 2 29z" data-name="Path 256762"/><path fill="#dddddc" d="M-7992-3718s-1-12-17-30a95 95 0 0 1-18-31l35-10s0 10 22 35c12 15 13 26 13 26z" data-name="Path 256763"/><path fill="#ffb900" d="m-8002-3740 1-11a95 95 0 0 0 0-36l-26 7a95 95 0 0 0 18 31l7 9" data-name="Path 256764"/><path fill="#86c9cf" d="M-8119-3755s5 8 1 25c-9 35-1 45-1 45l35-9s-6-14 1-41c5-19-1-29-1-29z" data-name="Path 256765"/><path fill="#dddddc" d="m-8126-3753-6 72-35 9 6-72z" data-name="Path 256766"/><path fill="#ffb900" d="M-8167-3742s0 9 12 22c24 26 23 39 23 39l-35 9s-2-15-22-35c-13-14-13-26-13-26z" data-name="Path 256767"/><path fill="#e85620" d="M-8155-3720a57 57 0 0 1-7-9l-5 57 35-9c0-1 0-14-24-39" data-name="Path 256768"/><path fill="#dddddc" d="m-8058-3771-34 9 17 66 35-10a34 34 0 0 0-18-65" data-name="Path 256769"/></g></g><g data-name="logo_content"><path fill="#86c9cf" d="m-7842-3505 42 59 35-9-42-60z" data-name="Path 256761"/><g data-name="Group 220310"><path fill="#86c9cf" d="M-7682-3478s-5-10 0-34a95 95 0 0 0 0-36l-35 9s5 9-1 42c-4 19 1 29 1 29z" data-name="Path 256762"/><path fill="#dddddc" d="M-7674-3480s0-12-17-30a95 95 0 0 1-17-31l35-9s-1 9 21 35c13 15 13 26 13 26z" data-name="Path 256763"/><path fill="#ffb900" d="m-7684-3501 2-11a95 95 0 0 0 0-36l-26 7a95 95 0 0 0 18 31l6 9" data-name="Path 256764"/><path fill="#86c9cf" d="M-7800-3516s4 8 0 24c-8 36 0 46 0 46l35-9s-6-15 1-42c5-19-1-29-1-29z" data-name="Path 256765"/><path fill="#dddddc" d="m-7807-3514-6 72-35 9 6-72z" data-name="Path 256766"/><path fill="#ffb900" d="M-7848-3503s-1 9 11 21c25 26 23 39 23 39l-34 10s-2-15-22-35c-14-14-13-26-13-26z" data-name="Path 256767"/><path fill="#e85620" d="M-7837-3482a57 57 0 0 1-6-8l-6 57 36-9c0-1 0-14-24-40" data-name="Path 256768"/><path fill="#dddddc" d="m-7739-3533-35 10 18 65 34-9a34 34 0 0 0-17-66" data-name="Path 256769"/></g></g><g data-name="logo_content"><path fill="#86c9cf" d="m-7923-3807 42 59 35-10-42-59z" data-name="Path 256761"/><g data-name="Group 220310"><path fill="#86c9cf" d="M-7763-3780s-5-10 0-34a95 95 0 0 0 0-36l-35 9s5 9-1 42c-4 19 1 28 1 28z" data-name="Path 256762"/><path fill="#dddddc" d="M-7755-3782s0-12-17-30a95 95 0 0 1-17-31l35-9s-1 9 21 35c13 14 13 26 13 26z" data-name="Path 256763"/><path fill="#ffb900" d="m-7765-3803 2-11a95 95 0 0 0 0-36l-26 7a95 95 0 0 0 18 31l6 8" data-name="Path 256764"/><path fill="#86c9cf" d="M-7881-3818s4 7 0 24c-8 35 0 46 0 46l35-10s-6-14 1-41c5-19-2-29-2-29z" data-name="Path 256765"/><path fill="#dddddc" d="m-7888-3817-6 72-35 10 6-72z" data-name="Path 256766"/><path fill="#ffb900" d="M-7929-3806s-1 9 11 22c25 26 23 39 23 39l-35 10s-1-16-21-35c-14-14-13-26-13-26z" data-name="Path 256767"/><path fill="#e85620" d="M-7918-3784a57 57 0 0 1-6-8l-6 57 36-10c0-1 0-14-24-39" data-name="Path 256768"/><path fill="#dddddc" d="m-7820-3835-35 9 18 66 34-9a34 34 0 0 0-17-66" data-name="Path 256769"/></g></g><g data-name="logo_content"><path fill="#86c9cf" d="m-8813-3325 42 59 35-10-42-59z" data-name="Path 256761"/><g data-name="Group 220310"><path fill="#86c9cf" d="M-8652-3298s-6-10-1-34a95 95 0 0 0 0-36l-35 9s5 8-1 42c-4 18 2 28 2 28z" data-name="Path 256762"/><path fill="#dddddc" d="M-8644-3300s-1-12-17-30a95 95 0 0 1-18-31l35-10s0 10 22 36c12 14 13 25 13 25z" data-name="Path 256763"/><path fill="#ffb900" d="m-8654-3322 1-10a95 95 0 0 0 0-36l-26 7a95 95 0 0 0 18 31l7 8" data-name="Path 256764"/><path fill="#86c9cf" d="M-8771-3337s4 8 1 25c-9 35-1 46-1 46l35-10s-6-14 1-41c5-19-1-29-1-29z" data-name="Path 256765"/><path fill="#dddddc" d="m-8778-3335-6 72-35 10 6-73z" data-name="Path 256766"/><path fill="#ffb900" d="M-8819-3324s0 9 12 22c24 26 23 39 23 39l-35 9s-2-15-22-35c-13-13-13-25-13-25z" data-name="Path 256767"/><path fill="#e85620" d="M-8807-3302a57 57 0 0 1-7-8l-5 57 35-10c0-1 0-14-24-39" data-name="Path 256768"/><path fill="#dddddc" d="m-8710-3353-34 9 17 66 35-9a34 34 0 0 0-18-66" data-name="Path 256769"/></g></g><g data-name="logo_content"><path fill="#86c9cf" d="m-8894-3628 42 59 35-9-42-59z" data-name="Path 256761"/><g data-name="Group 220310"><path fill="#86c9cf" d="M-8733-3600s-6-11-1-35a95 95 0 0 0 0-36l-35 10s5 8-1 41c-4 19 2 29 2 29z" data-name="Path 256762"/><path fill="#dddddc" d="M-8725-3602s-1-12-17-30a95 95 0 0 1-18-31l35-10s0 10 22 35c12 15 13 26 13 26z" data-name="Path 256763"/><path fill="#ffb900" d="m-8735-3624 1-11a95 95 0 0 0 0-36l-26 7a95 95 0 0 0 18 31l7 9" data-name="Path 256764"/><path fill="#86c9cf" d="M-8852-3639s4 8 1 25c-9 35-1 45-1 45l35-9s-6-14 1-41c5-19-1-29-1-29z" data-name="Path 256765"/><path fill="#dddddc" d="m-8859-3637-6 72-35 9 6-72z" data-name="Path 256766"/><path fill="#ffb900" d="M-8900-3626s0 9 12 22c24 26 23 39 23 39l-35 9s-2-15-22-35c-14-14-13-26-13-26z" data-name="Path 256767"/><path fill="#e85620" d="M-8888-3604a57 57 0 0 1-7-9l-5 57 35-9c0-1 0-14-24-39" data-name="Path 256768"/><path fill="#dddddc" d="m-8791-3655-34 9 17 66 35-10a34 34 0 0 0-18-65" data-name="Path 256769"/></g></g><g data-name="logo_content"><path fill="#86c9cf" d="m-8575-3389 42 59 35-9-42-60z" data-name="Path 256761"/><g data-name="Group 220310"><path fill="#86c9cf" d="M-8415-3362s-5-10 0-34a95 95 0 0 0 0-36l-35 9s5 9-1 42c-4 19 1 28 1 28z" data-name="Path 256762"/><path fill="#dddddc" d="M-8407-3364s0-12-17-30a95 95 0 0 1-17-31l35-9s-1 9 21 35c13 15 13 26 13 26z" data-name="Path 256763"/><path fill="#ffb900" d="m-8417-3385 2-11a95 95 0 0 0 0-36l-26 7a95 95 0 0 0 18 31l6 9" data-name="Path 256764"/><path fill="#86c9cf" d="M-8534-3400s5 7 1 24c-8 35 0 46 0 46l35-10s-6-14 1-41c5-19-2-29-2-29z" data-name="Path 256765"/><path fill="#dddddc" d="m-8540-3399-7 73-35 9 7-72z" data-name="Path 256766"/><path fill="#ffb900" d="M-8581-3387s-1 9 11 21c25 26 23 39 23 39l-35 10s-2-16-21-35c-14-14-13-26-13-26z" data-name="Path 256767"/><path fill="#e85620" d="M-8570-3366a57 57 0 0 1-6-8l-6 57 35-9c0-2 1-14-23-40" data-name="Path 256768"/><path fill="#dddddc" d="m-8472-3417-35 10 18 65 34-9a34 34 0 0 0-17-66" data-name="Path 256769"/></g></g><g data-name="logo_content"><path fill="#86c9cf" d="m-8656-3691 42 59 35-10-42-59z" data-name="Path 256761"/><g data-name="Group 220310"><path fill="#86c9cf" d="M-8496-3664s-5-10 0-34a95 95 0 0 0 0-36l-35 9s5 8-1 42c-4 18 1 28 1 28z" data-name="Path 256762"/><path fill="#dddddc" d="M-8488-3666s0-12-17-30a95 95 0 0 1-18-31l36-10s-1 10 21 36c13 14 13 25 13 25z" data-name="Path 256763"/><path fill="#ffb900" d="m-8498-3688 2-10a95 95 0 0 0 0-36l-26 7a95 95 0 0 0 17 31l7 8" data-name="Path 256764"/><path fill="#86c9cf" d="M-8615-3702s5 7 1 24c-8 35 0 46 0 46l35-10s-6-14 1-41c5-19-2-29-2-29z" data-name="Path 256765"/><path fill="#dddddc" d="m-8621-3701-7 72-35 10 7-72z" data-name="Path 256766"/><path fill="#ffb900" d="M-8662-3690s-1 9 11 22c25 26 23 39 23 39l-35 10s-2-16-21-36c-14-13-13-25-13-25z" data-name="Path 256767"/><path fill="#e85620" d="M-8651-3668a57 57 0 0 1-6-8l-6 57 35-10c0-1 1-14-23-39" data-name="Path 256768"/><path fill="#dddddc" d="m-8553-3719-35 9 18 66 34-9a34 34 0 0 0-17-66" data-name="Path 256769"/></g></g><g data-name="logo_content"><path fill="#86c9cf" d="m-8337-3453 42 59 35-9-42-59z" data-name="Path 256761"/><g data-name="Group 220310"><path fill="#86c9cf" d="M-8177-3425s-5-11-1-35a95 95 0 0 0 0-36l-35 10s6 8-1 41c-3 19 2 29 2 29z" data-name="Path 256762"/><path fill="#dddddc" d="M-8169-3428s-1-11-17-30a95 95 0 0 1-18-31l35-9s0 10 22 35c13 15 13 26 13 26z" data-name="Path 256763"/><path fill="#ffb900" d="m-8179-3449 2-11a95 95 0 0 0-1-36l-26 7a95 95 0 0 0 18 31l7 9" data-name="Path 256764"/><path fill="#86c9cf" d="M-8296-3464s5 8 1 24c-8 36-1 46-1 46l35-9s-6-15 2-42c5-18-2-28-2-28z" data-name="Path 256765"/><path fill="#dddddc" d="m-8302-3462-7 72-35 9 7-72z" data-name="Path 256766"/><path fill="#ffb900" d="M-8344-3451s0 9 12 21c25 27 23 40 23 40l-35 9s-2-15-22-35c-13-14-13-26-13-26z" data-name="Path 256767"/><path fill="#e85620" d="M-8332-3430a57 57 0 0 1-7-8l-5 57 35-9c0-1 1-14-23-40" data-name="Path 256768"/><path fill="#dddddc" d="m-8235-3480-34 9 18 65 34-9a34 34 0 0 0-18-65" data-name="Path 256769"/></g></g><g data-name="logo_content"><path fill="#86c9cf" d="m-8418-3755 41 59 35-9-41-60z" data-name="Path 256761"/><g data-name="Group 220310"><path fill="#86c9cf" d="M-8258-3728s-5-10-1-34a95 95 0 0 0 0-36l-35 9s6 9-1 42c-3 19 2 29 2 29z" data-name="Path 256762"/><path fill="#dddddc" d="M-8250-3730s-1-11-17-30a95 95 0 0 1-18-31l35-9s0 9 22 35c13 15 13 26 13 26z" data-name="Path 256763"/><path fill="#ffb900" d="m-8260-3751 1-11a95 95 0 0 0 0-36l-26 7a95 95 0 0 0 18 31l7 9" data-name="Path 256764"/><path fill="#86c9cf" d="M-8377-3766s5 8 1 24c-9 36-1 46-1 46l35-9s-6-15 2-42c5-19-2-29-2-29z" data-name="Path 256765"/><path fill="#dddddc" d="m-8383-3764-7 72-35 9 7-72z" data-name="Path 256766"/><path fill="#ffb900" d="M-8425-3753s0 9 12 21c25 26 23 39 23 39l-35 10s-2-15-22-35c-13-14-13-26-13-26z" data-name="Path 256767"/><path fill="#e85620" d="M-8413-3732a57 57 0 0 1-7-8l-5 57 35-9c0-1 1-14-23-40" data-name="Path 256768"/><path fill="#dddddc" d="m-8316-3783-34 10 18 65 34-9a34 34 0 0 0-18-66" data-name="Path 256769"/></g></g><g data-name="logo_content"><path fill="#86c9cf" d="m-8100-3517 42 60 35-10-42-59z" data-name="Path 256761"/><g data-name="Group 220310"><path fill="#86c9cf" d="M-7939-3489s-6-11-1-35a95 95 0 0 0 0-36l-35 10s5 8-1 41c-4 19 2 29 2 29z" data-name="Path 256762"/><path fill="#dddddc" d="M-7931-3491s-1-12-17-30a95 95 0 0 1-18-31l35-10s0 10 22 35c12 15 13 26 13 26z" data-name="Path 256763"/><path fill="#ffb900" d="m-7941-3513 1-11a95 95 0 0 0 0-36l-26 7a95 95 0 0 0 18 31l7 9" data-name="Path 256764"/><path fill="#86c9cf" d="M-8058-3528s4 8 0 25c-8 35 0 45 0 45l35-9s-6-14 1-41c5-19-1-29-1-29z" data-name="Path 256765"/><path fill="#dddddc" d="m-8065-3526-6 72-35 10 6-73z" data-name="Path 256766"/><path fill="#ffb900" d="M-8106-3515s0 9 11 22c25 26 24 39 24 39l-35 9s-2-15-22-35c-14-14-13-26-13-26z" data-name="Path 256767"/><path fill="#e85620" d="M-8095-3493a57 57 0 0 1-6-9l-5 57 35-9c0-1 0-14-24-39" data-name="Path 256768"/><path fill="#dddddc" d="m-7997-3544-34 9 17 66 34-10a34 34 0 0 0-17-65" data-name="Path 256769"/></g></g><g data-name="logo_content"><path fill="#86c9cf" d="m-8181-3819 42 59 35-9-42-59z" data-name="Path 256761"/><g data-name="Group 220310"><path fill="#86c9cf" d="M-8020-3791s-6-11-1-35a95 95 0 0 0 0-36l-35 10s5 8-1 41c-4 19 1 29 1 29z" data-name="Path 256762"/><path fill="#dddddc" d="M-8012-3794s-1-11-17-30a95 95 0 0 1-18-31l35-9s0 10 22 35c12 15 13 26 13 26z" data-name="Path 256763"/><path fill="#ffb900" d="m-8022-3815 1-11a95 95 0 0 0 0-36l-26 7a95 95 0 0 0 18 31l7 9" data-name="Path 256764"/><path fill="#86c9cf" d="M-8139-3830s4 8 0 25c-8 35 0 45 0 45l35-9s-6-15 1-42c5-18-1-28-1-28z" data-name="Path 256765"/><path fill="#dddddc" d="m-8146-3828-6 72-35 9 6-72z" data-name="Path 256766"/><path fill="#ffb900" d="M-8187-3817s0 9 11 22c25 26 24 39 24 39l-35 9s-2-15-22-35c-14-14-13-26-13-26z" data-name="Path 256767"/><path fill="#e85620" d="M-8176-3795a57 57 0 0 1-6-9l-5 57 35-9c0-1 0-14-24-40" data-name="Path 256768"/><path fill="#dddddc" d="m-8078-3846-34 9 17 65 34-9a34 34 0 0 0-17-65" data-name="Path 256769"/></g></g><g data-name="logo_content"><path fill="#86c9cf" d="m-7862-3580 42 59 35-10-42-59z" data-name="Path 256761"/><g data-name="Group 220310"><path fill="#86c9cf" d="M-7702-3553s-5-10 0-34a95 95 0 0 0 0-36l-35 9s5 8-1 41c-4 20 1 29 1 29z" data-name="Path 256762"/><path fill="#dddddc" d="M-7694-3555s0-12-17-30a95 95 0 0 1-18-31l35-10s0 10 22 36c13 14 13 25 13 25z" data-name="Path 256763"/><path fill="#ffb900" d="m-7704-3577 2-10a95 95 0 0 0 0-36l-27 7a95 95 0 0 0 18 31l7 8" data-name="Path 256764"/><path fill="#86c9cf" d="M-7821-3592s5 8 1 25c-8 35 0 46 0 46l35-10s-6-14 1-41c5-19-2-29-2-29z" data-name="Path 256765"/><path fill="#dddddc" d="m-7827-3590-7 72-35 10 7-72z" data-name="Path 256766"/><path fill="#ffb900" d="M-7868-3579s-1 9 11 22c25 26 23 39 23 39l-35 10s-2-16-21-36c-14-13-13-25-13-25z" data-name="Path 256767"/><path fill="#e85620" d="M-7857-3557a57 57 0 0 1-6-8l-6 57 35-10c0-1 1-14-23-39" data-name="Path 256768"/><path fill="#dddddc" d="m-7759-3608-35 9 18 66 34-9a34 34 0 0 0-17-66" data-name="Path 256769"/></g></g><g data-name="logo_content"><path fill="#86c9cf" d="m-7943-3883 42 60 35-10-42-59z" data-name="Path 256761"/><g data-name="Group 220310"><path fill="#86c9cf" d="M-7783-3855s-5-11 0-35a95 95 0 0 0 0-36l-35 10s5 8-2 41c-3 19 2 29 2 29z" data-name="Path 256762"/><path fill="#dddddc" d="M-7775-3857s-1-12-17-30a95 95 0 0 1-18-31l35-10s0 10 22 35c13 15 13 26 13 26z" data-name="Path 256763"/><path fill="#ffb900" d="m-7785-3879 2-11a95 95 0 0 0 0-36l-27 7a95 95 0 0 0 18 31l7 9" data-name="Path 256764"/><path fill="#86c9cf" d="M-7902-3894s5 8 1 25c-8 35 0 45 0 45l35-9s-6-14 1-41c5-19-2-29-2-29z" data-name="Path 256765"/><path fill="#dddddc" d="m-7908-3892-7 72-35 9 7-72z" data-name="Path 256766"/><path fill="#ffb900" d="M-7949-3881s-1 9 11 22c25 26 23 39 23 39l-35 9s-2-15-21-35c-14-14-13-26-13-26z" data-name="Path 256767"/><path fill="#e85620" d="M-7938-3859a57 57 0 0 1-6-9l-6 57 35-9c0-1 1-14-23-39" data-name="Path 256768"/><path fill="#dddddc" d="m-7841-3910-34 9 18 66 34-10a34 34 0 0 0-18-65" data-name="Path 256769"/></g></g><g data-name="logo_content"><path fill="#86c9cf" d="m-8833-3402 42 59 35-9-42-59z" data-name="Path 256761"/><g data-name="Group 220310"><path fill="#86c9cf" d="M-8673-3375s-5-10 0-34a95 95 0 0 0 0-36l-35 9s5 9-1 42c-4 19 1 29 1 29z" data-name="Path 256762"/><path fill="#dddddc" d="M-8665-3377s0-11-17-30a95 95 0 0 1-18-31l35-9s0 10 22 35c13 15 13 26 13 26z" data-name="Path 256763"/><path fill="#ffb900" d="m-8675-3398 2-11a95 95 0 0 0 0-36l-26 7a95 95 0 0 0 17 31l7 9" data-name="Path 256764"/><path fill="#86c9cf" d="M-8792-3413s5 8 1 24c-8 36 0 46 0 46l35-9s-6-15 1-42c5-18-2-29-2-29z" data-name="Path 256765"/><path fill="#dddddc" d="m-8798-3411-7 72-35 9 7-72z" data-name="Path 256766"/><path fill="#ffb900" d="M-8839-3400s-1 9 11 21c25 27 23 40 23 40l-35 9s-2-15-21-35c-14-14-13-26-13-26z" data-name="Path 256767"/><path fill="#e85620" d="M-8828-3379a57 57 0 0 1-6-8l-6 57 35-9c0-1 1-14-23-40" data-name="Path 256768"/><path fill="#dddddc" d="m-8731-3429-34 9 18 65 34-9a34 34 0 0 0-18-66" data-name="Path 256769"/></g></g><g data-name="logo_content"><path fill="#86c9cf" d="m-8914-3704 42 59 35-9-42-60z" data-name="Path 256761"/><g data-name="Group 220310"><path fill="#86c9cf" d="M-8754-3677s-5-10 0-34a95 95 0 0 0 0-36l-35 9s5 9-1 42c-4 19 1 28 1 28z" data-name="Path 256762"/><path fill="#dddddc" d="M-8746-3679s0-11-17-30a95 95 0 0 1-18-31l35-9s0 9 22 35c13 15 13 26 13 26z" data-name="Path 256763"/><path fill="#ffb900" d="m-8756-3700 2-11a95 95 0 0 0 0-36l-26 7a95 95 0 0 0 17 31l7 9" data-name="Path 256764"/><path fill="#86c9cf" d="M-8873-3715s5 7 1 24c-8 35 0 46 0 46l35-10s-6-14 1-41c5-19-2-29-2-29z" data-name="Path 256765"/><path fill="#dddddc" d="m-8879-3714-7 73-35 9 7-72z" data-name="Path 256766"/><path fill="#ffb900" d="M-8921-3702s0 9 12 21c25 26 23 39 23 39l-35 10s-2-16-21-35c-14-14-13-26-13-26z" data-name="Path 256767"/><path fill="#e85620" d="M-8909-3681a57 57 0 0 1-6-8l-6 57 35-9c0-1 1-14-23-40" data-name="Path 256768"/><path fill="#dddddc" d="m-8812-3732-34 10 18 65 34-9a34 34 0 0 0-18-66" data-name="Path 256769"/></g></g><g data-name="logo_content"><path fill="#86c9cf" d="m-8595-3466 41 59 35-9-42-59z" data-name="Path 256761"/><g data-name="Group 220310"><path fill="#86c9cf" d="M-8435-3438s-5-11-1-35a95 95 0 0 0 0-36l-35 10s6 8-1 41c-3 19 2 29 2 29z" data-name="Path 256762"/><path fill="#dddddc" d="M-8427-3440s-1-12-17-30a95 95 0 0 1-18-31l35-10s0 10 22 35c12 15 13 26 13 26z" data-name="Path 256763"/><path fill="#ffb900" d="m-8437-3462 1-11a95 95 0 0 0 0-36l-26 7a95 95 0 0 0 18 31l7 9" data-name="Path 256764"/><path fill="#86c9cf" d="M-8554-3477s5 8 1 25c-9 35-1 45-1 45l35-9s-6-14 1-41c5-19-1-29-1-29z" data-name="Path 256765"/><path fill="#dddddc" d="m-8560-3475-7 72-35 9 6-72z" data-name="Path 256766"/><path fill="#ffb900" d="M-8602-3464s0 9 12 22c25 26 23 39 23 39l-35 9s-2-15-22-35c-13-14-13-26-13-26z" data-name="Path 256767"/><path fill="#e85620" d="M-8590-3442a57 57 0 0 1-7-9l-5 57 35-9c0-1 0-14-23-39" data-name="Path 256768"/><path fill="#dddddc" d="m-8493-3493-34 9 17 66 35-10a34 34 0 0 0-18-65" data-name="Path 256769"/></g></g><g data-name="logo_content"><path fill="#86c9cf" d="m-8676-3768 41 59 35-9-42-59z" data-name="Path 256761"/><g data-name="Group 220310"><path fill="#86c9cf" d="M-8516-3740s-6-11-1-35a95 95 0 0 0 0-36l-35 10s6 8-1 41c-3 19 2 29 2 29z" data-name="Path 256762"/><path fill="#dddddc" d="M-8508-3743s-1-11-17-30a95 95 0 0 1-18-31l35-9s0 10 22 35c12 15 13 26 13 26z" data-name="Path 256763"/><path fill="#ffb900" d="m-8518-3764 1-11a95 95 0 0 0 0-36l-26 7a95 95 0 0 0 18 31l7 9" data-name="Path 256764"/><path fill="#86c9cf" d="M-8635-3779s5 8 1 25c-9 35-1 45-1 45l35-9s-6-15 1-42c5-18-1-28-1-28z" data-name="Path 256765"/><path fill="#dddddc" d="m-8641-3777-7 72-35 9 6-72z" data-name="Path 256766"/><path fill="#ffb900" d="M-8683-3766s0 9 12 21c25 27 23 40 23 40l-35 9s-2-15-22-35c-13-14-13-26-13-26z" data-name="Path 256767"/><path fill="#e85620" d="M-8671-3745a57 57 0 0 1-7-8l-5 57 35-9c0-1 0-14-23-40" data-name="Path 256768"/><path fill="#dddddc" d="m-8574-3795-34 9 17 65 35-9a34 34 0 0 0-18-65" data-name="Path 256769"/></g></g><g data-name="logo_content"><path fill="#86c9cf" d="m-8358-3529 42 59 35-10-42-59z" data-name="Path 256761"/><g data-name="Group 220310"><path fill="#86c9cf" d="M-8198-3502s-5-10 0-34a95 95 0 0 0 0-36l-35 9s5 8-1 42c-4 18 1 28 1 28z" data-name="Path 256762"/><path fill="#dddddc" d="M-8190-3504s0-12-17-30a95 95 0 0 1-17-31l35-10s-1 10 21 36c13 14 13 25 13 25z" data-name="Path 256763"/><path fill="#ffb900" d="m-8200-3526 2-10a95 95 0 0 0 0-36l-26 7a95 95 0 0 0 18 31l6 8" data-name="Path 256764"/><path fill="#86c9cf" d="M-8316-3540s4 7 0 24c-8 35 0 46 0 46l35-10s-6-14 1-41c5-19-1-29-1-29z" data-name="Path 256765"/><path fill="#dddddc" d="m-8323-3539-6 72-35 10 6-72z" data-name="Path 256766"/><path fill="#ffb900" d="M-8364-3528s0 9 11 22c25 26 24 39 24 39l-35 10s-2-16-22-36c-14-13-13-25-13-25z" data-name="Path 256767"/><path fill="#e85620" d="M-8353-3506a57 57 0 0 1-6-8l-5 57 35-10c0-1 0-14-24-39" data-name="Path 256768"/><path fill="#dddddc" d="m-8255-3557-35 9 18 66 34-9a34 34 0 0 0-17-66" data-name="Path 256769"/></g></g><g data-name="logo_content"><path fill="#86c9cf" d="m-8439-3832 42 60 35-10-42-59z" data-name="Path 256761"/><g data-name="Group 220310"><path fill="#86c9cf" d="M-8279-3804s-5-10 0-35a95 95 0 0 0 0-35l-35 9s5 8-1 41c-4 19 1 29 1 29z" data-name="Path 256762"/><path fill="#dddddc" d="M-8271-3806s0-12-17-30a95 95 0 0 1-17-31l35-10s-1 10 21 35c13 15 13 26 13 26z" data-name="Path 256763"/><path fill="#ffb900" d="m-8281-3828 2-11a95 95 0 0 0 0-35l-26 7a95 95 0 0 0 18 31l6 8" data-name="Path 256764"/><path fill="#86c9cf" d="M-8397-3843s4 8 0 25c-8 35 0 46 0 46l35-10s-6-14 1-41c5-19-1-29-1-29z" data-name="Path 256765"/><path fill="#dddddc" d="m-8404-3841-6 72-35 9 6-72z" data-name="Path 256766"/><path fill="#ffb900" d="M-8445-3830s0 9 11 22c25 26 24 39 24 39l-35 9s-2-15-22-35c-14-13-13-25-13-25z" data-name="Path 256767"/><path fill="#e85620" d="M-8434-3808a57 57 0 0 1-6-9l-5 58 35-10c0-1 0-14-24-39" data-name="Path 256768"/><path fill="#dddddc" d="m-8336-3859-35 9 18 66 34-10a34 34 0 0 0-17-65" data-name="Path 256769"/></g></g><g data-name="logo_content"><path fill="#86c9cf" d="m-8120-3593 42 59 35-9-42-60z" data-name="Path 256761"/><g data-name="Group 220310"><path fill="#86c9cf" d="M-7960-3566s-5-10 0-34a95 95 0 0 0 0-36l-35 9s5 9-2 42c-3 19 2 29 2 29z" data-name="Path 256762"/><path fill="#dddddc" d="M-7952-3568s-1-12-17-30a95 95 0 0 1-18-31l35-9s0 9 22 35c13 15 13 26 13 26z" data-name="Path 256763"/><path fill="#ffb900" d="m-7962-3589 2-11a95 95 0 0 0 0-36l-27 7a95 95 0 0 0 18 31l7 9" data-name="Path 256764"/><path fill="#86c9cf" d="M-8079-3604s5 8 1 24c-8 36 0 46 0 46l35-9s-6-15 1-42c5-19-2-29-2-29z" data-name="Path 256765"/><path fill="#dddddc" d="m-8085-3602-7 72-35 9 7-72z" data-name="Path 256766"/><path fill="#ffb900" d="M-8127-3591s0 9 12 21c25 26 23 39 23 39l-35 10s-2-15-22-35c-13-14-13-26-13-26z" data-name="Path 256767"/><path fill="#e85620" d="M-8115-3570a57 57 0 0 1-7-8l-5 57 35-9c0-1 1-14-23-40" data-name="Path 256768"/><path fill="#dddddc" d="m-8018-3621-34 10 18 65 34-9a34 34 0 0 0-18-66" data-name="Path 256769"/></g></g><g data-name="logo_content"><path fill="#86c9cf" d="m-8201-3895 42 59 35-10-42-59z" data-name="Path 256761"/><g data-name="Group 220310"><path fill="#86c9cf" d="M-8041-3868s-5-10 0-34a95 95 0 0 0 0-36l-35 9s5 9-2 42c-3 19 2 28 2 28z" data-name="Path 256762"/><path fill="#dddddc" d="M-8033-3870s-1-12-17-30a95 95 0 0 1-18-31l35-9s0 9 22 35c13 14 13 26 13 26z" data-name="Path 256763"/><path fill="#ffb900" d="m-8043-3891 2-11a95 95 0 0 0 0-36l-27 7a95 95 0 0 0 18 31l7 8" data-name="Path 256764"/><path fill="#86c9cf" d="M-8160-3906s5 7 1 24c-8 35 0 46 0 46l35-10s-6-14 1-41c5-19-2-29-2-29z" data-name="Path 256765"/><path fill="#dddddc" d="m-8166-3905-7 72-35 10 7-72z" data-name="Path 256766"/><path fill="#ffb900" d="M-8208-3894s0 9 12 22c25 26 23 39 23 39l-35 10s-2-16-22-35c-13-14-13-26-13-26z" data-name="Path 256767"/><path fill="#e85620" d="M-8196-3872a57 57 0 0 1-7-8l-5 57 35-10c0-1 1-14-23-39" data-name="Path 256768"/><path fill="#dddddc" d="m-8099-3923-34 9 18 66 34-9a34 34 0 0 0-18-66" data-name="Path 256769"/></g></g><g data-name="logo_content"><path fill="#86c9cf" d="m-7882-3657 41 59 35-9-42-59z" data-name="Path 256761"/><g data-name="Group 220310"><path fill="#86c9cf" d="M-7722-3629s-6-11-1-35a95 95 0 0 0 0-36l-35 10s5 8-1 41c-4 19 2 29 2 29z" data-name="Path 256762"/><path fill="#dddddc" d="M-7714-3632s-1-11-17-30a95 95 0 0 1-18-31l35-9s0 10 22 35c12 15 13 26 13 26z" data-name="Path 256763"/><path fill="#ffb900" d="m-7724-3653 1-11a95 95 0 0 0 0-36l-26 7a95 95 0 0 0 18 31l7 9" data-name="Path 256764"/><path fill="#86c9cf" d="M-7841-3668s5 8 1 25c-9 35-1 45-1 45l35-9s-6-14 1-42c5-18-1-28-1-28z" data-name="Path 256765"/><path fill="#dddddc" d="m-7848-3666-6 72-35 9 6-72z" data-name="Path 256766"/><path fill="#ffb900" d="M-7889-3655s0 9 12 22c24 26 23 39 23 39l-35 9s-2-15-22-35c-13-14-13-26-13-26z" data-name="Path 256767"/><path fill="#e85620" d="M-7877-3633a57 57 0 0 1-7-9l-5 57 35-9c0-1 0-14-23-39" data-name="Path 256768"/><path fill="#dddddc" d="m-7780-3684-34 9 17 65 35-9a34 34 0 0 0-18-65" data-name="Path 256769"/></g></g><g data-name="logo_content"><path fill="#86c9cf" d="m-7964-3959 42 59 35-9-42-59z" data-name="Path 256761"/><g data-name="Group 220310"><path fill="#86c9cf" d="M-7803-3932s-6-10-1-34a95 95 0 0 0 0-36l-35 10s5 8-1 41c-4 19 2 29 2 29z" data-name="Path 256762"/><path fill="#dddddc" d="M-7795-3934s-1-11-17-30a95 95 0 0 1-18-31l35-9s0 10 22 35c12 15 13 26 13 26z" data-name="Path 256763"/><path fill="#ffb900" d="m-7805-3955 1-11a95 95 0 0 0 0-36l-26 7a95 95 0 0 0 18 31l7 9" data-name="Path 256764"/><path fill="#86c9cf" d="M-7922-3970s5 8 1 24c-9 36-1 46-1 46l35-9s-6-15 1-42c5-18-1-29-1-29z" data-name="Path 256765"/><path fill="#dddddc" d="m-7929-3968-6 72-35 9 6-72z" data-name="Path 256766"/><path fill="#ffb900" d="M-7970-3957s0 9 12 21c24 27 23 40 23 40l-35 9s-2-15-22-35c-13-14-13-26-13-26z" data-name="Path 256767"/><path fill="#e85620" d="M-7958-3936a57 57 0 0 1-7-8l-5 57 35-9c0-1 0-14-23-40" data-name="Path 256768"/><path fill="#dddddc" d="m-7861-3986-34 9 17 65 35-9a34 34 0 0 0-18-66" data-name="Path 256769"/></g></g><g data-name="logo_content"><path fill="#86c9cf" d="m-8853-3477 41 59 36-9-42-60z" data-name="Path 256761"/><g data-name="Group 220310"><path fill="#86c9cf" d="M-8693-3450s-5-10 0-34a95 95 0 0 0 0-36l-35 9s5 9-2 42c-3 19 2 28 2 28z" data-name="Path 256762"/><path fill="#dddddc" d="M-8685-3452s-1-11-17-30a95 95 0 0 1-18-31l35-9s0 9 22 35c13 15 13 26 13 26z" data-name="Path 256763"/><path fill="#ffb900" d="m-8695-3473 1-11a95 95 0 0 0 1-36l-27 7a95 95 0 0 0 18 31l7 9" data-name="Path 256764"/><path fill="#86c9cf" d="M-8812-3488s5 7 1 24c-8 35 0 46 0 46l35-10s-6-14 1-41c5-19-2-29-2-29z" data-name="Path 256765"/><path fill="#dddddc" d="m-8818-3487-7 73-35 9 7-72z" data-name="Path 256766"/><path fill="#ffb900" d="M-8860-3475s0 9 12 21c25 26 23 39 23 39l-35 10s-2-16-22-35c-13-14-13-26-13-26z" data-name="Path 256767"/><path fill="#e85620" d="M-8848-3454a57 57 0 0 1-7-8l-5 57 35-9c0-1 1-14-23-40" data-name="Path 256768"/><path fill="#dddddc" d="m-8751-3505-34 10 18 65 34-9a34 34 0 0 0-18-66" data-name="Path 256769"/></g></g><g data-name="logo_content"><path fill="#86c9cf" d="m-8934-3779 42 59 35-10-42-59z" data-name="Path 256761"/><g data-name="Group 220310"><path fill="#86c9cf" d="M-8774-3752s-5-10-1-34a95 95 0 0 0 1-36l-35 9s5 8-2 42c-3 18 2 28 2 28z" data-name="Path 256762"/><path fill="#dddddc" d="M-8766-3754s-1-12-17-30a95 95 0 0 1-18-31l35-10s0 10 22 36c13 14 13 25 13 25z" data-name="Path 256763"/><path fill="#ffb900" d="m-8776-3775 1-11a95 95 0 0 0 1-36l-27 7a95 95 0 0 0 18 31l7 8" data-name="Path 256764"/><path fill="#86c9cf" d="M-8893-3790s5 7 1 24c-8 35-1 46-1 46l36-10s-6-14 1-41c5-19-2-29-2-29z" data-name="Path 256765"/><path fill="#dddddc" d="m-8899-3789-7 72-35 10 7-72z" data-name="Path 256766"/><path fill="#ffb900" d="M-8941-3778s0 9 12 22c25 26 23 39 23 39l-35 10s-2-16-22-36c-13-13-13-25-13-25z" data-name="Path 256767"/><path fill="#e85620" d="M-8929-3756a57 57 0 0 1-7-8l-5 57 35-10c0-1 1-14-23-39" data-name="Path 256768"/><path fill="#dddddc" d="m-8832-3807-34 9 18 66 34-9a34 34 0 0 0-18-66" data-name="Path 256769"/></g></g><g data-name="logo_content"><path fill="#86c9cf" d="m-8616-3541 42 59 35-9-42-59z" data-name="Path 256761"/><g data-name="Group 220310"><path fill="#86c9cf" d="M-8455-3513s-6-11-1-35a95 95 0 0 0 0-36l-35 10s5 8-1 41c-4 19 2 29 2 29z" data-name="Path 256762"/><path fill="#dddddc" d="M-8447-3516s-1-11-17-30a95 95 0 0 1-18-31l35-9s0 10 22 35c12 15 13 26 13 26z" data-name="Path 256763"/><path fill="#ffb900" d="m-8457-3537 1-11a95 95 0 0 0 0-36l-26 7a95 95 0 0 0 18 31l7 9" data-name="Path 256764"/><path fill="#86c9cf" d="M-8574-3552s4 8 1 25c-9 35-1 45-1 45l35-9s-6-15 1-42c5-18-1-28-1-28z" data-name="Path 256765"/><path fill="#dddddc" d="m-8581-3550-6 72-35 9 6-72z" data-name="Path 256766"/><path fill="#ffb900" d="M-8622-3539s0 9 12 21c24 27 23 40 23 40l-35 9s-2-15-22-35c-14-14-13-26-13-26z" data-name="Path 256767"/><path fill="#e85620" d="M-8610-3518a57 57 0 0 1-7-8l-5 57 35-9c0-1 0-14-24-40" data-name="Path 256768"/><path fill="#dddddc" d="m-8513-3568-34 9 17 65 35-9a34 34 0 0 0-18-65" data-name="Path 256769"/></g></g><g data-name="logo_content"><path fill="#86c9cf" d="m-8697-3843 42 59 35-9-42-60z" data-name="Path 256761"/><g data-name="Group 220310"><path fill="#86c9cf" d="M-8536-3816s-6-10-1-34a95 95 0 0 0 0-36l-35 9s5 9-1 42c-4 19 1 29 1 29z" data-name="Path 256762"/><path fill="#dddddc" d="M-8528-3818s-1-11-17-30a95 95 0 0 1-18-31l35-9s0 10 22 35c12 15 13 26 13 26z" data-name="Path 256763"/><path fill="#ffb900" d="m-8538-3839 1-11a95 95 0 0 0 0-36l-26 7a95 95 0 0 0 18 31l7 9" data-name="Path 256764"/><path fill="#86c9cf" d="M-8655-3854s4 8 1 24c-9 36-1 46-1 46l35-9s-6-15 1-42c5-18-1-29-1-29z" data-name="Path 256765"/><path fill="#dddddc" d="m-8662-3852-6 72-35 9 6-72z" data-name="Path 256766"/><path fill="#ffb900" d="M-8703-3841s0 9 11 21c25 27 24 40 24 40l-35 9s-2-15-22-35c-14-14-13-26-13-26z" data-name="Path 256767"/><path fill="#e85620" d="M-8692-3820a57 57 0 0 1-6-8l-5 57 35-9c0-1 0-14-24-40" data-name="Path 256768"/><path fill="#dddddc" d="m-8594-3871-34 10 17 65 35-9a34 34 0 0 0-18-66" data-name="Path 256769"/></g></g><g data-name="logo_content"><path fill="#86c9cf" d="m-8378-3605 42 60 35-10-42-59z" data-name="Path 256761"/><g data-name="Group 220310"><path fill="#86c9cf" d="M-8218-3577s-5-10 0-35a95 95 0 0 0 0-35l-35 9s5 8-1 41c-4 19 1 29 1 29z" data-name="Path 256762"/><path fill="#dddddc" d="M-8210-3579s0-12-17-30a95 95 0 0 1-18-31l36-10s-1 10 21 35c13 15 13 26 13 26z" data-name="Path 256763"/><path fill="#ffb900" d="m-8220-3601 2-11a95 95 0 0 0 0-35l-26 7a95 95 0 0 0 17 31l7 8" data-name="Path 256764"/><path fill="#86c9cf" d="M-8337-3616s5 8 1 25c-8 35 0 46 0 46l35-10s-6-14 1-41c5-19-2-29-2-29z" data-name="Path 256765"/><path fill="#dddddc" d="m-8343-3614-7 72-35 9 7-72z" data-name="Path 256766"/><path fill="#ffb900" d="M-8384-3603s-1 9 11 22c25 26 23 39 23 39l-35 9s-2-15-21-35c-14-13-13-25-13-25z" data-name="Path 256767"/><path fill="#e85620" d="M-8373-3581a57 57 0 0 1-6-9l-6 58 35-10c0-1 1-14-23-39" data-name="Path 256768"/><path fill="#dddddc" d="m-8275-3632-35 9 18 66 34-10a34 34 0 0 0-17-65" data-name="Path 256769"/></g></g><g data-name="logo_content"><path fill="#86c9cf" d="m-8459-3907 42 59 35-9-42-59z" data-name="Path 256761"/><g data-name="Group 220310"><path fill="#86c9cf" d="M-8299-3879s-5-11 0-35a95 95 0 0 0 0-36l-35 10s5 8-1 41c-4 19 1 29 1 29z" data-name="Path 256762"/><path fill="#dddddc" d="M-8291-3882s0-11-17-30a95 95 0 0 1-18-31l36-9s-1 10 21 35c13 15 13 26 13 26z" data-name="Path 256763"/><path fill="#ffb900" d="m-8301-3903 2-11a95 95 0 0 0 0-36l-26 7a95 95 0 0 0 17 31l7 9" data-name="Path 256764"/><path fill="#86c9cf" d="M-8418-3918s5 8 1 25c-8 35 0 45 0 45l35-9s-6-14 1-42c5-18-2-28-2-28z" data-name="Path 256765"/><path fill="#dddddc" d="m-8424-3916-7 72-35 9 7-72z" data-name="Path 256766"/><path fill="#ffb900" d="M-8465-3905s-1 9 11 22c25 26 23 39 23 39l-35 9s-2-15-21-35c-14-14-13-26-13-26z" data-name="Path 256767"/><path fill="#e85620" d="M-8454-3883a57 57 0 0 1-6-9l-6 57 35-9c0-1 1-14-23-39" data-name="Path 256768"/><path fill="#dddddc" d="m-8356-3934-35 9 18 65 34-9a34 34 0 0 0-17-65" data-name="Path 256769"/></g></g><g data-name="logo_content"><path fill="#86c9cf" d="m-8140-3668 41 59 35-10-41-59z" data-name="Path 256761"/><g data-name="Group 220310"><path fill="#86c9cf" d="M-7980-3641s-5-10 0-34a95 95 0 0 0-1-36l-35 9s6 9-1 42c-3 19 2 28 2 28z" data-name="Path 256762"/><path fill="#dddddc" d="M-7972-3643s-1-12-17-30a95 95 0 0 1-18-31l35-9s0 9 22 35c12 14 13 26 13 26z" data-name="Path 256763"/><path fill="#ffb900" d="m-7982-3664 2-11a95 95 0 0 0-1-36l-26 7a95 95 0 0 0 18 31l7 8" data-name="Path 256764"/><path fill="#86c9cf" d="M-8099-3679s5 7 1 24c-9 35-1 46-1 46l35-10s-6-14 2-41c4-19-2-29-2-29z" data-name="Path 256765"/><path fill="#dddddc" d="m-8105-3678-7 72-35 10 7-72z" data-name="Path 256766"/><path fill="#ffb900" d="M-8147-3667s0 9 12 22c25 26 23 39 23 39l-35 10s-2-16-22-35c-13-14-13-26-13-26z" data-name="Path 256767"/><path fill="#e85620" d="M-8135-3645a57 57 0 0 1-7-8l-5 57 35-10c0-1 1-14-23-39" data-name="Path 256768"/><path fill="#dddddc" d="m-8038-3696-34 9 17 66 35-9a34 34 0 0 0-18-66" data-name="Path 256769"/></g></g><g data-name="logo_content"><path fill="#86c9cf" d="m-8221-3970 41 59 35-10-41-59z" data-name="Path 256761"/><g data-name="Group 220310"><path fill="#86c9cf" d="M-8061-3943s-5-10-1-34a95 95 0 0 0 0-36l-35 9s6 8-1 42c-3 18 2 28 2 28z" data-name="Path 256762"/><path fill="#dddddc" d="M-8053-3945s-1-12-17-30a95 95 0 0 1-18-31l35-10s0 10 22 36c12 14 13 25 13 25z" data-name="Path 256763"/><path fill="#ffb900" d="m-8063-3967 1-10a95 95 0 0 0 0-36l-26 7a95 95 0 0 0 18 31l7 8" data-name="Path 256764"/><path fill="#86c9cf" d="M-8180-3982s5 8 1 25c-9 35-1 46-1 46l35-10s-6-14 2-41c4-19-2-29-2-29z" data-name="Path 256765"/><path fill="#dddddc" d="m-8186-3980-7 72-35 10 7-73z" data-name="Path 256766"/><path fill="#ffb900" d="M-8228-3969s0 9 12 22c25 26 23 39 23 39l-35 9s-2-15-22-35c-13-13-13-25-13-25z" data-name="Path 256767"/><path fill="#e85620" d="M-8216-3947a57 57 0 0 1-7-8l-5 57 35-10c0-1 1-14-23-39" data-name="Path 256768"/><path fill="#dddddc" d="m-8119-3998-34 9 17 66 35-9a34 34 0 0 0-18-66" data-name="Path 256769"/></g></g><g data-name="logo_content"><path fill="#86c9cf" d="m-7903-3732 42 59 35-9-42-60z" data-name="Path 256761"/><g data-name="Group 220310"><path fill="#86c9cf" d="M-7743-3705s-5-10 0-34a95 95 0 0 0 0-36l-35 9s5 9-1 42c-4 19 1 29 1 29z" data-name="Path 256762"/><path fill="#dddddc" d="M-7734-3707s-1-11-17-30a95 95 0 0 1-18-31l35-9s-1 9 22 35c12 15 13 26 13 26z" data-name="Path 256763"/><path fill="#ffb900" d="m-7745-3728 2-11a95 95 0 0 0 0-36l-26 7a95 95 0 0 0 18 31l6 9" data-name="Path 256764"/><path fill="#86c9cf" d="M-7861-3743s4 8 0 24c-8 36 0 46 0 46l35-9s-6-15 1-42c5-19-1-29-1-29z" data-name="Path 256765"/><path fill="#dddddc" d="m-7868-3741-6 72-35 9 6-72z" data-name="Path 256766"/><path fill="#ffb900" d="M-7909-3730s0 9 11 21c25 26 24 39 24 39l-35 10s-2-15-22-35c-14-14-13-26-13-26z" data-name="Path 256767"/><path fill="#e85620" d="M-7898-3709a57 57 0 0 1-6-8l-5 57 35-9c0-1 0-14-24-40" data-name="Path 256768"/><path fill="#dddddc" d="m-7800-3760-34 10 17 65 34-9a34 34 0 0 0-17-66" data-name="Path 256769"/></g></g><g data-name="logo_content"><path fill="#86c9cf" d="m-7984-4034 42 59 35-10-42-59z" data-name="Path 256761"/><g data-name="Group 220310"><path fill="#86c9cf" d="M-7824-4007s-5-10 0-34a95 95 0 0 0 0-36l-35 9s5 9-1 42c-4 19 1 28 1 28z" data-name="Path 256762"/><path fill="#dddddc" d="M-7815-4009s-1-12-17-30a95 95 0 0 1-18-31l35-9s-1 9 21 35c13 14 14 25 14 25z" data-name="Path 256763"/><path fill="#ffb900" d="m-7826-4030 2-11a95 95 0 0 0 0-36l-26 7a95 95 0 0 0 18 31l6 8" data-name="Path 256764"/><path fill="#86c9cf" d="M-7942-4045s4 7 1 24c-9 35-1 46-1 46l35-10s-6-14 1-41c5-19-1-29-1-29z" data-name="Path 256765"/><path fill="#dddddc" d="m-7949-4044-6 72-35 10 6-72z" data-name="Path 256766"/><path fill="#ffb900" d="M-7990-4033s0 9 11 22c25 26 24 39 24 39l-35 10s-2-16-22-35c-14-14-13-26-13-26z" data-name="Path 256767"/><path fill="#e85620" d="M-7979-4011a57 57 0 0 1-6-8l-5 57 35-10c0-1 0-14-24-39" data-name="Path 256768"/><path fill="#dddddc" d="m-7881-4062-34 9 17 66 34-9a34 34 0 0 0-17-66" data-name="Path 256769"/></g></g></g></g></svg>